Ubuntu-CondensedBold.ufo
<glyph name="exclam" format="2">
  <advance width="282"/>
  <unicode hex="0021"/>
  <outline>
    <contour>
      <point x="105" y="221" type="curve"/>
      <point x="173" y="221" type="line"/>
      <point x="196.0" y="298.0"/>
      <point x="212.0" y="433.0"/>
      <point x="212" y="515" type="curve"/>
      <point x="212" y="693" type="line"/>
      <point x="66" y="693" type="line"/>
      <point x="66" y="515" type="line" smooth="yes"/>
      <point x="66" y="433.2702702702702"/>
      <point x="82" y="298"/>
    </contour>
    <contour>
      <point x="140" y="-14" type="curve" smooth="yes"/>
      <point x="195" y="-14.0"/>
      <point x="229.0" y="28"/>
      <point x="229" y="74" type="curve" smooth="yes"/>
      <point x="229.0" y="121"/>
      <point x="195.0" y="164.0"/>
      <point x="140" y="164" type="curve" smooth="yes"/>
      <point x="86.0" y="164.0"/>
      <point x="53.0" y="121"/>
      <point x="53" y="74" type="curve" smooth="yes"/>
      <point x="53.0" y="28"/>
      <point x="86" y="-14.0"/>
    </contour>
  </outline>
</glyph>
<glyph name="numbersign" format="2">
  <advance width="562"/>
  <unicode hex="0023"/>
  <outline>
    <contour>
      <point x="79" y="0" type="line"/>
      <point x="192" y="0" type="line"/>
      <point x="216" y="175" type="line"/>
      <point x="299" y="175" type="line"/>
      <point x="275" y="0" type="line"/>
      <point x="388" y="0" type="line"/>
      <point x="412" y="175" type="line"/>
      <point x="528" y="175" type="line"/>
      <point x="528" y="275" type="line"/>
      <point x="426" y="275" type="line"/>
      <point x="445" y="419" type="line"/>
      <point x="528" y="419" type="line"/>
      <point x="528" y="519" type="line"/>
      <point x="459" y="519" type="line"/>
      <point x="483" y="693" type="line"/>
      <point x="370" y="693" type="line"/>
      <point x="346" y="519" type="line"/>
      <point x="263" y="519" type="line"/>
      <point x="287" y="693" type="line"/>
      <point x="174" y="694" type="line"/>
      <point x="150" y="519" type="line"/>
      <point x="34" y="519" type="line"/>
      <point x="34" y="419" type="line"/>
      <point x="136" y="419" type="line"/>
      <point x="117" y="275" type="line"/>
      <point x="34" y="275" type="line"/>
      <point x="34" y="175" type="line"/>
      <point x="103" y="175" type="line"/>
    </contour>
    <contour>
      <point x="230" y="275" type="line"/>
      <point x="249" y="419" type="line"/>
      <point x="332" y="419" type="line"/>
      <point x="313" y="275" type="line"/>
    </contour>
  </outline>
</glyph>
<glyph name="dollar" format="2">
  <advance width="430"/>
  <unicode hex="0024"/>
  <outline>
    <contour>
      <point x="153" y="-109" type="line"/>
      <point x="271" y="-109" type="line"/>
      <point x="271" y="19" type="line"/>
      <point x="350" y="49"/>
      <point x="399" y="121"/>
      <point x="399" y="205" type="curve"/>
      <point x="399" y="276"/>
      <point x="368" y="329"/>
      <point x="287" y="384" type="curve" smooth="yes"/>
      <point x="206" y="439"/>
      <point x="184" y="463"/>
      <point x="184" y="500" type="curve" smooth="yes"/>
      <point x="184" y="539"/>
      <point x="205.0" y="560.0"/>
      <point x="247" y="560" type="curve" smooth="yes"/>
      <point x="280" y="560"/>
      <point x="318" y="549"/>
      <point x="343" y="531" type="curve"/>
      <point x="377" y="639" type="line"/>
      <point x="345" y="658"/>
      <point x="309" y="670"/>
      <point x="271" y="675" type="curve"/>
      <point x="271" y="776" type="line"/>
      <point x="153" y="776" type="line"/>
      <point x="153" y="662" type="line"/>
      <point x="83" y="634"/>
      <point x="39" y="568"/>
      <point x="39" y="490" type="curve" smooth="yes"/>
      <point x="39" y="417"/>
      <point x="77" y="365"/>
      <point x="153" y="313" type="curve" smooth="yes"/>
      <point x="229" y="261"/>
      <point x="254" y="234"/>
      <point x="254" y="186" type="curve" smooth="yes"/>
      <point x="254.0" y="149.07692307692307"/>
      <point x="227" y="126"/>
      <point x="178" y="126" type="curve"/>
      <point x="143.71844660194174" y="126.0"/>
      <point x="104.79645722741802" y="141.37248824506457"/>
      <point x="71" y="168" type="curve"/>
      <point x="31" y="49" type="line"/>
      <point x="59" y="28"/>
      <point x="106" y="12"/>
      <point x="153" y="6" type="curve"/>
    </contour>
  </outline>
</glyph>
<glyph name="percent" format="2">
  <advance width="680"/>
  <unicode hex="0025"/>
  <outline>
    <contour>
      <point x="145" y="0" type="line"/>
      <point x="258" y="0" type="line"/>
      <point x="535" y="693" type="line"/>
      <point x="422" y="693" type="line"/>
    </contour>
    <contour>
      <point x="162" y="321" type="curve" smooth="yes"/>
      <point x="249.0" y="321.0"/>
      <point x="296.0" y="389.0"/>
      <point x="296" y="515" type="curve" smooth="yes"/>
      <point x="296" y="640"/>
      <point x="249" y="707"/>
      <point x="162" y="707" type="curve" smooth="yes"/>
      <point x="75" y="707"/>
      <point x="28" y="640"/>
      <point x="28" y="515" type="curve" smooth="yes"/>
      <point x="28.0" y="389.0"/>
      <point x="75.0" y="321.0"/>
    </contour>
    <contour>
      <point x="162" y="411" type="curve" smooth="yes"/>
      <point x="139" y="411"/>
      <point x="133" y="432"/>
      <point x="133" y="515" type="curve" smooth="yes"/>
      <point x="133" y="596"/>
      <point x="139" y="617"/>
      <point x="162" y="617" type="curve" smooth="yes"/>
      <point x="185" y="617"/>
      <point x="191" y="596"/>
      <point x="191" y="515" type="curve" smooth="yes"/>
      <point x="191" y="432"/>
      <point x="185" y="411"/>
    </contour>
    <contour>
      <point x="518" y="-15" type="curve" smooth="yes"/>
      <point x="605" y="-15"/>
      <point x="652" y="53"/>
      <point x="652" y="179" type="curve" smooth="yes"/>
      <point x="652.0" y="304.0"/>
      <point x="605.0" y="371.0"/>
      <point x="518" y="371" type="curve" smooth="yes"/>
      <point x="431.0" y="371.0"/>
      <point x="384.0" y="304.0"/>
      <point x="384" y="179" type="curve" smooth="yes"/>
      <point x="384" y="53"/>
      <point x="431" y="-15"/>
    </contour>
    <contour>
      <point x="518" y="75" type="curve" smooth="yes"/>
      <point x="495" y="75"/>
      <point x="489" y="96"/>
      <point x="489" y="179" type="curve" smooth="yes"/>
      <point x="489" y="260"/>
      <point x="495" y="281"/>
      <point x="518" y="281" type="curve" smooth="yes"/>
      <point x="541" y="281"/>
      <point x="547" y="260"/>
      <point x="547" y="179" type="curve" smooth="yes"/>
      <point x="547" y="96"/>
      <point x="541" y="75"/>
    </contour>
  </outline>
</glyph>
<glyph name="ampersand" format="2">
  <advance width="542"/>
  <unicode hex="0026"/>
  <outline>
    <contour>
      <point x="235" y="-14" type="curve" smooth="yes"/>
      <point x="287" y="-14"/>
      <point x="341" y="10"/>
      <point x="381" y="54" type="curve"/>
      <point x="392" y="37"/>
      <point x="401" y="19"/>
      <point x="408" y="0" type="curve"/>
      <point x="538" y="0" type="line"/>
      <point x="514" y="61"/>
      <point x="487" y="114"/>
      <point x="461" y="155" type="curve"/>
      <point x="489" y="215"/>
      <point x="501" y="288"/>
      <point x="506" y="363" type="curve"/>
      <point x="400" y="377" type="line"/>
      <point x="397" y="334"/>
      <point x="392" y="293"/>
      <point x="384" y="256" type="curve"/>
      <point x="298" y="364" type="line"/>
      <point x="367" y="421"/>
      <point x="400" y="484"/>
      <point x="400" y="555" type="curve" smooth="yes"/>
      <point x="400" y="654"/>
      <point x="345" y="707"/>
      <point x="244" y="707" type="curve" smooth="yes"/>
      <point x="141" y="707"/>
      <point x="79" y="644"/>
      <point x="79" y="540" type="curve" smooth="yes"/>
      <point x="79" y="481"/>
      <point x="93" y="440"/>
      <point x="133" y="383" type="curve"/>
      <point x="53" y="312"/>
      <point x="28" y="251"/>
      <point x="28" y="173" type="curve" smooth="yes"/>
      <point x="28" y="61"/>
      <point x="111" y="-14"/>
    </contour>
    <contour>
      <point x="241" y="101" type="curve" smooth="yes"/>
      <point x="197" y="101"/>
      <point x="156" y="129"/>
      <point x="156" y="189" type="curve" smooth="yes"/>
      <point x="156" y="229"/>
      <point x="168" y="267"/>
      <point x="196" y="301" type="curve"/>
      <point x="322" y="138" type="line"/>
      <point x="299" y="113"/>
      <point x="271" y="101"/>
    </contour>
    <contour>
      <point x="235" y="445" type="curve"/>
      <point x="206" y="486"/>
      <point x="194" y="515"/>
      <point x="194" y="542" type="curve" smooth="yes"/>
      <point x="194" y="588"/>
      <point x="210" y="607"/>
      <point x="238" y="607" type="curve" smooth="yes"/>
      <point x="265" y="607"/>
      <point x="285" y="588"/>
      <point x="285" y="552" type="curve" smooth="yes"/>
      <point x="285" y="509"/>
      <point x="272" y="480"/>
    </contour>
  </outline>
</glyph>
<glyph name="quotesingle" format="2">
  <advance width="329.2"/>
  <unicode hex="0027"/>
  <outline>
    <contour>
      <point x="128" y="471" type="curve"/>
      <point x="200" y="471" type="line"/>
      <point x="217" y="528"/>
      <point x="236" y="652"/>
      <point x="236" y="688" type="curve" smooth="yes"/>
      <point x="236" y="760" type="line"/>
      <point x="93" y="760" type="line"/>
      <point x="93" y="689" type="line" smooth="yes"/>
      <point x="93" y="624"/>
      <point x="114" y="518"/>
    </contour>
  </outline>
</glyph>
<glyph name="parenleft" format="2">
  <advance width="311.8"/>
  <unicode hex="0028"/>
  <outline>
    <contour>
      <point x="206" y="-187" type="curve"/>
      <point x="310" y="-127" type="line"/>
      <point x="246" y="-48"/>
      <point x="202" y="109"/>
      <point x="202" y="299" type="curve" smooth="yes"/>
      <point x="202" y="491"/>
      <point x="251" y="658"/>
      <point x="310" y="725" type="curve"/>
      <point x="206" y="785" type="line"/>
      <point x="149" y="712"/>
      <point x="69" y="521"/>
      <point x="69" y="299" type="curve" smooth="yes"/>
      <point x="69" y="76"/>
      <point x="149" y="-114"/>
    </contour>
  </outline>
</glyph>
<glyph name="parenright" format="2">
  <advance width="313"/>
  <unicode hex="0029"/>
  <outline>
    <contour>
      <point x="103" y="-187" type="line"/>
      <point x="180" y="-86"/>
      <point x="244" y="100"/>
      <point x="244" y="299" type="curve"/>
      <point x="244" y="498"/>
      <point x="180" y="684"/>
      <point x="103" y="785" type="curve"/>
      <point x="3" y="725" type="line"/>
      <point x="60" y="625"/>
      <point x="111" y="481"/>
      <point x="111" y="299" type="curve"/>
      <point x="111" y="117"/>
      <point x="60" y="-27"/>
      <point x="3" y="-127" type="curve"/>
    </contour>
  </outline>
</glyph>
<glyph name="asterisk" format="2">
  <advance width="401"/>
  <unicode hex="002A"/>
  <outline>
    <contour>
      <point x="158" y="378" type="line"/>
      <point x="169" y="393"/>
      <point x="179" y="413"/>
      <point x="202" y="504" type="curve"/>
      <point x="225" y="414"/>
      <point x="235" y="394"/>
      <point x="245" y="379" type="curve"/>
      <point x="347" y="453" type="line"/>
      <point x="337" y="468"/>
      <point x="321" y="484"/>
      <point x="241" y="534" type="curve"/>
      <point x="334" y="528"/>
      <point x="356" y="531"/>
      <point x="373" y="537" type="curve"/>
      <point x="334" y="657" type="line"/>
      <point x="317" y="651"/>
      <point x="297" y="641"/>
      <point x="225" y="582" type="curve"/>
      <point x="259" y="667"/>
      <point x="263" y="688"/>
      <point x="263" y="707" type="curve"/>
      <point x="137" y="707" type="line"/>
      <point x="137" y="688"/>
      <point x="141" y="667"/>
      <point x="175" y="580" type="curve"/>
      <point x="104" y="639"/>
      <point x="85" y="649"/>
      <point x="67" y="655" type="curve"/>
      <point x="28" y="535" type="line"/>
      <point x="46" y="529"/>
      <point x="67" y="526"/>
      <point x="161" y="532" type="curve"/>
      <point x="82" y="483"/>
      <point x="67" y="467"/>
      <point x="56" y="452" type="curve"/>
    </contour>
  </outline>
</glyph>
<glyph name="plus" format="2">
  <advance width="434"/>
  <unicode hex="002B"/>
  <outline>
    <contour>
      <point x="160" y="121" type="line"/>
      <point x="274" y="121" type="line"/>
      <point x="274" y="246" type="line"/>
      <point x="394" y="246" type="line"/>
      <point x="394" y="356" type="line"/>
      <point x="274" y="356" type="line"/>
      <point x="274" y="481" type="line"/>
      <point x="160" y="481" type="line"/>
      <point x="160" y="356" type="line"/>
      <point x="40" y="356" type="line"/>
      <point x="40" y="246" type="line"/>
      <point x="160" y="246" type="line"/>
    </contour>
  </outline>
</glyph>
<glyph name="comma" format="2">
  <advance width="254"/>
  <unicode hex="002C"/>
  <outline>
    <contour>
      <point x="133" y="-157" type="line"/>
      <point x="181" y="-74"/>
      <point x="207" y="19"/>
      <point x="207" y="102" type="curve" smooth="yes"/>
      <point x="207" y="115"/>
      <point x="207" y="124"/>
      <point x="205" y="147" type="curve"/>
      <point x="69" y="147" type="line"/>
      <point x="70" y="135"/>
      <point x="72" y="100"/>
      <point x="72" y="83" type="curve" smooth="yes"/>
      <point x="72" y="21"/>
      <point x="61" y="-56"/>
      <point x="33" y="-129" type="curve"/>
    </contour>
  </outline>
</glyph>
<glyph name="hyphen" format="2">
  <advance width="273"/>
  <unicode hex="002D"/>
  <outline>
    <contour>
      <point x="25" y="242" type="line"/>
      <point x="248" y="242" type="line"/>
      <point x="248" y="366" type="line"/>
      <point x="25" y="366" type="line"/>
    </contour>
  </outline>
</glyph>
<glyph name="period" format="2">
  <advance width="268.85"/>
  <unicode hex="002E"/>
  <outline>
    <contour>
      <point x="134" y="-21" type="curve" smooth="yes"/>
      <point x="192" y="-21"/>
      <point x="228" y="22"/>
      <point x="228" y="69" type="curve" smooth="yes"/>
      <point x="228" y="117"/>
      <point x="192" y="161"/>
      <point x="134" y="161" type="curve" smooth="yes"/>
      <point x="77" y="161"/>
      <point x="42" y="117"/>
      <point x="42" y="69" type="curve" smooth="yes"/>
      <point x="42" y="22"/>
      <point x="77" y="-21"/>
    </contour>
  </outline>
</glyph>
<glyph name="slash" format="2">
  <advance width="314"/>
  <unicode hex="002F"/>
  <outline>
    <contour>
      <point x="-27" y="-185" type="line"/>
      <point x="98" y="-185" type="line"/>
      <point x="341" y="783" type="line"/>
      <point x="216" y="783" type="line"/>
    </contour>
  </outline>
</glyph>
<glyph name="zero" format="2">
  <advance width="434"/>
  <unicode hex="0030"/>
  <outline>
    <contour>
      <point x="217" y="-14" type="curve" smooth="yes"/>
      <point x="348.5925925925926" y="-14.0"/>
      <point x="404.0" y="92.99999999999997"/>
      <point x="404" y="347" type="curve"/>
      <point x="404.0" y="601.0"/>
      <point x="348.5925925925926" y="707.0"/>
      <point x="217" y="707" type="curve" smooth="yes"/>
      <point x="83.42857142857142" y="707.0"/>
      <point x="30.0" y="604.0"/>
      <point x="30" y="347" type="curve"/>
      <point x="30.0" y="89.0"/>
      <point x="83.42857142857142" y="-14.0"/>
    </contour>
    <contour>
      <point x="217" y="105" type="curve" smooth="yes"/>
      <point x="182.6" y="105.0"/>
      <point x="174.0" y="150.375"/>
      <point x="174" y="347" type="curve"/>
      <point x="174.0" y="542.623430962343"/>
      <point x="182.6" y="588.0"/>
      <point x="217" y="588" type="curve" smooth="yes"/>
      <point x="251.4" y="588.0"/>
      <point x="260.0" y="542.623430962343"/>
      <point x="260" y="347" type="curve"/>
      <point x="260.0" y="150.375"/>
      <point x="251.4" y="105.0"/>
    </contour>
  </outline>
</glyph>
<glyph name="one" format="2">
  <advance width="434"/>
  <unicode hex="0031"/>
  <outline>
    <contour>
      <point x="183" y="0" type="line"/>
      <point x="321" y="0" type="line"/>
      <point x="321" y="693" type="line"/>
      <point x="223" y="693" type="line"/>
      <point x="182" y="637"/>
      <point x="119" y="586"/>
      <point x="55" y="553" type="curve"/>
      <point x="105" y="451" type="line"/>
      <point x="127" y="459"/>
      <point x="157" y="475"/>
      <point x="183" y="492" type="curve"/>
    </contour>
  </outline>
</glyph>
<glyph name="two" format="2">
  <advance width="434"/>
  <unicode hex="0032"/>
  <outline>
    <contour>
      <point x="42" y="0" type="curve"/>
      <point x="398" y="0" type="line"/>
      <point x="398" y="114" type="line"/>
      <point x="197" y="114" type="line"/>
      <point x="207" y="177"/>
      <point x="227" y="217"/>
      <point x="284" y="298" type="curve" smooth="yes"/>
      <point x="348" y="389"/>
      <point x="391" y="454"/>
      <point x="391" y="537" type="curve"/>
      <point x="391" y="638"/>
      <point x="322" y="707"/>
      <point x="211" y="707" type="curve"/>
      <point x="139" y="707"/>
      <point x="77" y="684"/>
      <point x="30" y="645" type="curve"/>
      <point x="92" y="550" type="line"/>
      <point x="120" y="574"/>
      <point x="146" y="588"/>
      <point x="180" y="588" type="curve" smooth="yes"/>
      <point x="219" y="588"/>
      <point x="247" y="571"/>
      <point x="247" y="520" type="curve" smooth="yes"/>
      <point x="247" y="463"/>
      <point x="210" y="410"/>
      <point x="152" y="327" type="curve" smooth="yes"/>
      <point x="94" y="244"/>
      <point x="42" y="146"/>
      <point x="42" y="19" type="curve"/>
      <point x="42.0" y="12.673"/>
      <point x="42.0" y="6.327"/>
    </contour>
  </outline>
</glyph>
<glyph name="three" format="2">
  <advance width="434"/>
  <unicode hex="0033"/>
  <outline>
    <contour>
      <point x="175" y="-14" type="curve"/>
      <point x="311" y="-14"/>
      <point x="396" y="69"/>
      <point x="396" y="201" type="curve"/>
      <point x="396" y="282"/>
      <point x="369" y="330"/>
      <point x="298" y="368" type="curve"/>
      <point x="358" y="400"/>
      <point x="387" y="457"/>
      <point x="387" y="534" type="curve" smooth="yes"/>
      <point x="387" y="641"/>
      <point x="311" y="707"/>
      <point x="199" y="707" type="curve"/>
      <point x="132" y="707"/>
      <point x="75" y="691"/>
      <point x="35" y="661" type="curve"/>
      <point x="84" y="564" type="line"/>
      <point x="113" y="581"/>
      <point x="136" y="588"/>
      <point x="162" y="588" type="curve"/>
      <point x="216" y="588"/>
      <point x="243" y="557"/>
      <point x="243" y="507" type="curve"/>
      <point x="243" y="454"/>
      <point x="209" y="420"/>
      <point x="155" y="420" type="curve" smooth="yes"/>
      <point x="103" y="420" type="line"/>
      <point x="103" y="307" type="line"/>
      <point x="152" y="307" type="line" smooth="yes"/>
      <point x="219" y="307"/>
      <point x="252" y="274"/>
      <point x="252" y="205" type="curve" smooth="yes"/>
      <point x="252" y="139"/>
      <point x="221" y="105"/>
      <point x="159" y="105" type="curve"/>
      <point x="123" y="105"/>
      <point x="86" y="115"/>
      <point x="61" y="132" type="curve"/>
      <point x="27" y="20" type="line"/>
      <point x="61" y="-2"/>
      <point x="113" y="-14"/>
    </contour>
  </outline>
</glyph>
<glyph name="five" format="2">
  <advance width="434"/>
  <unicode hex="0035"/>
  <outline>
    <contour>
      <point x="176" y="-14" type="curve"/>
      <point x="309" y="-14"/>
      <point x="393" y="90"/>
      <point x="393" y="216" type="curve"/>
      <point x="393" y="329"/>
      <point x="331" y="409"/>
      <point x="195" y="436" type="curve"/>
      <point x="199" y="481"/>
      <point x="202" y="528"/>
      <point x="203" y="579" type="curve"/>
      <point x="374" y="579" type="line"/>
      <point x="374" y="693" type="line"/>
      <point x="87" y="693" type="line"/>
      <point x="88" y="605"/>
      <point x="77" y="434"/>
      <point x="66" y="335" type="curve"/>
      <point x="207" y="328"/>
      <point x="249" y="284"/>
      <point x="249" y="215" type="curve"/>
      <point x="249" y="139"/>
      <point x="217" y="105"/>
      <point x="157" y="105" type="curve"/>
      <point x="122" y="105"/>
      <point x="94" y="114"/>
      <point x="70" y="129" type="curve"/>
      <point x="36" y="17" type="line"/>
      <point x="70" y="-3"/>
      <point x="118" y="-14"/>
    </contour>
  </outline>
</glyph>
<glyph name="equal" format="2">
  <advance width="430"/>
  <unicode hex="003D"/>
  <outline>
    <contour>
      <point x="38" y="341" type="line"/>
      <point x="392" y="341" type="line"/>
      <point x="392" y="454" type="line"/>
      <point x="38" y="454" type="line"/>
    </contour>
    <contour>
      <point x="38" y="144" type="line"/>
      <point x="392" y="144" type="line"/>
      <point x="392" y="257" type="line"/>
      <point x="38" y="257" type="line"/>
    </contour>
  </outline>
</glyph>
<glyph name="question" format="2">
  <advance width="380"/>
  <unicode hex="003F"/>
  <outline>
    <contour>
      <point x="98" y="221" type="curve"/>
      <point x="223" y="221" type="line"/>
      <point x="222" y="228"/>
      <point x="222" y="241"/>
      <point x="222" y="242" type="curve"/>
      <point x="222.0" y="364"/>
      <point x="357.0" y="400.0"/>
      <point x="357" y="541" type="curve"/>
      <point x="357.0" y="630.0"/>
      <point x="288" y="707"/>
      <point x="177" y="707" type="curve" smooth="yes"/>
      <point x="110" y="707"/>
      <point x="58" y="688"/>
      <point x="13" y="655" type="curve"/>
      <point x="59" y="552" type="line"/>
      <point x="97" y="580"/>
      <point x="123" y="588.0"/>
      <point x="151" y="588" type="curve" smooth="yes"/>
      <point x="191.0" y="588.0"/>
      <point x="212.0" y="566"/>
      <point x="212" y="526" type="curve"/>
      <point x="212.0" y="430"/>
      <point x="95.0" y="400"/>
      <point x="95" y="262" type="curve" smooth="yes"/>
      <point x="95" y="250"/>
      <point x="96" y="234"/>
    </contour>
    <contour>
      <point x="158" y="-14" type="curve" smooth="yes"/>
      <point x="213" y="-14.0"/>
      <point x="247.0" y="28"/>
      <point x="247" y="74" type="curve" smooth="yes"/>
      <point x="247.0" y="121"/>
      <point x="213.0" y="164.0"/>
      <point x="158" y="164" type="curve" smooth="yes"/>
      <point x="104.0" y="164.0"/>
      <point x="71.0" y="121"/>
      <point x="71" y="74" type="curve" smooth="yes"/>
      <point x="71.0" y="28"/>
      <point x="104" y="-14.0"/>
    </contour>
  </outline>
</glyph>
<glyph name="at" format="2">
  <advance width="855"/>
  <unicode hex="0040"/>
  <outline>
    <contour>
      <point x="431" y="-161" type="curve" smooth="yes"/>
      <point x="497" y="-161"/>
      <point x="565" y="-151"/>
      <point x="590" y="-135" type="curve"/>
      <point x="574" y="-42" type="line"/>
      <point x="544" y="-53"/>
      <point x="489" y="-64"/>
      <point x="432" y="-64" type="curve" smooth="yes"/>
      <point x="256" y="-64"/>
      <point x="163" y="56"/>
      <point x="163" y="273" type="curve" smooth="yes"/>
      <point x="163" y="488"/>
      <point x="275" y="618"/>
      <point x="434" y="618" type="curve" smooth="yes"/>
      <point x="618" y="618"/>
      <point x="694" y="504"/>
      <point x="694" y="334" type="curve" smooth="yes"/>
      <point x="694" y="150"/>
      <point x="664" y="123"/>
      <point x="636" y="123" type="curve" smooth="yes"/>
      <point x="602" y="123"/>
      <point x="594" y="138"/>
      <point x="594" y="181" type="curve"/>
      <point x="594" y="488" type="line"/>
      <point x="563" y="501"/>
      <point x="511" y="517"/>
      <point x="445" y="517" type="curve" smooth="yes"/>
      <point x="317" y="517"/>
      <point x="241" y="421"/>
      <point x="241" y="275" type="curve" smooth="yes"/>
      <point x="241" y="119"/>
      <point x="303" y="31"/>
      <point x="418" y="31" type="curve" smooth="yes"/>
      <point x="452" y="31"/>
      <point x="484" y="39"/>
      <point x="506" y="63" type="curve"/>
      <point x="534" y="36"/>
      <point x="574" y="26"/>
      <point x="622" y="26" type="curve" smooth="yes"/>
      <point x="744" y="26"/>
      <point x="805" y="134"/>
      <point x="805" y="327" type="curve" smooth="yes"/>
      <point x="805" y="577"/>
      <point x="662" y="716"/>
      <point x="432" y="716" type="curve" smooth="yes"/>
      <point x="232" y="716"/>
      <point x="50" y="567"/>
      <point x="50" y="273" type="curve" smooth="yes"/>
      <point x="50" y="-33"/>
      <point x="211" y="-161"/>
    </contour>
    <contour>
      <point x="439" y="137" type="curve" smooth="yes"/>
      <point x="375" y="137"/>
      <point x="372" y="202"/>
      <point x="372" y="274" type="curve" smooth="yes"/>
      <point x="372" y="367"/>
      <point x="390" y="412"/>
      <point x="445" y="412" type="curve" smooth="yes"/>
      <point x="449" y="412"/>
      <point x="458" y="412"/>
      <point x="467" y="409" type="curve"/>
      <point x="467" y="202" type="line"/>
      <point x="467" y="181"/>
      <point x="467" y="163"/>
      <point x="470" y="146" type="curve"/>
      <point x="467" y="141"/>
      <point x="447" y="137"/>
    </contour>
  </outline>
</glyph>
<glyph name="A" format="2">
  <advance width="540"/>
  <unicode hex="0041"/>
  <anchor x="284" y="0" name="bottom"/>
  <anchor x="502" y="10" name="ogonek"/>
  <anchor x="284" y="693" name="top"/>
  <outline>
    <contour>
      <point x="19" y="0" type="curve"/>
      <point x="162" y="0" type="line"/>
      <point x="168" y="44"/>
      <point x="176" y="93"/>
      <point x="186" y="146" type="curve"/>
      <point x="350" y="146" type="line"/>
      <point x="359" y="92"/>
      <point x="367" y="42"/>
      <point x="373" y="0" type="curve"/>
      <point x="521" y="0" type="line"/>
      <point x="477" y="220"/>
      <point x="414" y="456"/>
      <point x="341" y="693" type="curve"/>
      <point x="199" y="693" type="line"/>
      <point x="126" y="456"/>
      <point x="63" y="220"/>
    </contour>
    <contour>
      <point x="208" y="261" type="line"/>
      <point x="226" y="354"/>
      <point x="248" y="451"/>
      <point x="269" y="539" type="curve"/>
      <point x="290" y="448"/>
      <point x="310" y="352"/>
      <point x="328" y="261" type="curve"/>
    </contour>
  </outline>
</glyph>
<glyph name="B" format="2">
  <advance width="538"/>
  <unicode hex="0042"/>
  <anchor x="269" y="0" name="bottom"/>
  <anchor x="269" y="347" name="center"/>
  <anchor x="269" y="693" name="top"/>
  <outline>
    <contour>
      <point x="236" y="-10" type="curve" smooth="yes"/>
      <point x="404" y="-10"/>
      <point x="502" y="66"/>
      <point x="502" y="198" type="curve"/>
      <point x="502" y="280"/>
      <point x="459" y="342"/>
      <point x="385" y="368" type="curve"/>
      <point x="448" y="396"/>
      <point x="480" y="445"/>
      <point x="480" y="514" type="curve" smooth="yes"/>
      <point x="480" y="635"/>
      <point x="394" y="703"/>
      <point x="239" y="703" type="curve" smooth="yes"/>
      <point x="192" y="703"/>
      <point x="141" y="697"/>
      <point x="75" y="683" type="curve"/>
      <point x="75" y="7" type="line"/>
      <point x="131" y="-4"/>
      <point x="188" y="-10"/>
    </contour>
    <contour>
      <point x="251" y="105" type="curve" smooth="yes"/>
      <point x="242" y="105"/>
      <point x="224" y="107"/>
      <point x="217" y="108" type="curve"/>
      <point x="217" y="303" type="line"/>
      <point x="259" y="303" type="line" smooth="yes"/>
      <point x="321" y="303"/>
      <point x="354" y="268"/>
      <point x="354" y="203" type="curve"/>
      <point x="354.0" y="138.65656565656565"/>
      <point x="318.0" y="105.0"/>
    </contour>
    <contour>
      <point x="217" y="415" type="line"/>
      <point x="217" y="586" type="line"/>
      <point x="229" y="587"/>
      <point x="238" y="588"/>
      <point x="251" y="588" type="curve"/>
      <point x="308" y="588"/>
      <point x="332" y="562"/>
      <point x="332" y="501" type="curve"/>
      <point x="332" y="442"/>
      <point x="302" y="415"/>
      <point x="239" y="415" type="curve" smooth="yes"/>
    </contour>
  </outline>
</glyph>
<glyph name="C" format="2">
  <advance width="487"/>
  <unicode hex="0043"/>
  <anchor x="242" y="0" name="bottom"/>
  <anchor x="242" y="693" name="top"/>
  <outline>
    <contour>
      <point x="320.0" y="-14" type="curve"/>
      <point x="385.0" y="-14.0"/>
      <point x="439.0" y="-2.0"/>
      <point x="477" y="21" type="curve"/>
      <point x="440" y="135" type="line"/>
      <point x="410.0" y="118.0"/>
      <point x="377.0" y="110.0"/>
      <point x="336.0" y="110" type="curve"/>
      <point x="233" y="110"/>
      <point x="195" y="174"/>
      <point x="195.0" y="348" type="curve" smooth="yes"/>
      <point x="195" y="522"/>
      <point x="226" y="583"/>
      <point x="315.0" y="583" type="curve"/>
      <point x="359.0" y="583.0"/>
      <point x="395.0" y="573.0"/>
      <point x="424" y="553" type="curve"/>
      <point x="465" y="672" type="line"/>
      <point x="428.0" y="694.0"/>
      <point x="373.0" y="707.0"/>
      <point x="316.0" y="707" type="curve"/>
      <point x="135" y="707"/>
      <point x="45" y="588"/>
      <point x="45.0" y="348" type="curve" smooth="yes"/>
      <point x="45" y="110"/>
      <point x="139" y="-14"/>
    </contour>
  </outline>
</glyph>
<glyph name="D" format="2">
  <advance width="585"/>
  <unicode hex="0044"/>
  <anchor x="295" y="0" name="bottom"/>
  <anchor x="295" y="347" name="center"/>
  <anchor x="295" y="693" name="top"/>
  <outline>
    <contour>
      <point x="248" y="-10" type="curve"/>
      <point x="433" y="-10.0"/>
      <point x="540.0" y="119.36414565826331"/>
      <point x="540" y="347" type="curve" smooth="yes"/>
      <point x="540" y="585"/>
      <point x="443" y="703"/>
      <point x="248" y="703" type="curve"/>
      <point x="183" y="703"/>
      <point x="130" y="697"/>
      <point x="75" y="682" type="curve"/>
      <point x="75" y="11" type="line"/>
      <point x="130" y="-4"/>
      <point x="183" y="-10"/>
    </contour>
    <contour>
      <point x="261" y="112" type="curve"/>
      <point x="244" y="112"/>
      <point x="230" y="113"/>
      <point x="217" y="116" type="curve"/>
      <point x="217" y="577" type="line"/>
      <point x="230" y="580"/>
      <point x="244" y="581"/>
      <point x="261" y="581" type="curve"/>
      <point x="350" y="581"/>
      <point x="390" y="509"/>
      <point x="390" y="347" type="curve" smooth="yes"/>
      <point x="390" y="191"/>
      <point x="347" y="112"/>
    </contour>
  </outline>
</glyph>
<glyph name="E" format="2">
  <advance width="482"/>
  <unicode hex="0045"/>
  <anchor x="241" y="0" name="bottom"/>
  <anchor x="435" y="10" name="ogonek"/>
  <anchor x="241" y="693" name="top"/>
  <anchor x="18" y="693" name="topleft"/>
  <outline>
    <contour>
      <point x="75" y="0" type="line"/>
      <point x="446" y="0" type="line"/>
      <point x="446" y="119" type="line"/>
      <point x="217" y="119" type="line"/>
      <point x="217" y="306" type="line"/>
      <point x="409" y="306" type="line"/>
      <point x="409" y="421" type="line"/>
      <point x="217" y="421" type="line"/>
      <point x="217" y="574" type="line"/>
      <point x="425" y="574" type="line"/>
      <point x="425" y="693" type="line"/>
      <point x="75" y="693" type="line"/>
    </contour>
  </outline>
</glyph>
<glyph name="F" format="2">
  <advance width="457.825"/>
  <unicode hex="0046"/>
  <anchor x="228" y="0" name="bottom"/>
  <anchor x="228" y="693" name="top"/>
  <outline>
    <contour>
      <point x="77" y="0" type="line"/>
      <point x="219" y="0" type="line"/>
      <point x="219" y="301" type="line"/>
      <point x="407" y="301" type="line"/>
      <point x="407" y="418" type="line"/>
      <point x="219" y="418" type="line"/>
      <point x="219" y="574" type="line"/>
      <point x="432" y="574" type="line"/>
      <point x="432" y="693" type="line"/>
      <point x="77" y="693" type="line"/>
    </contour>
  </outline>
</glyph>
<glyph name="G" format="2">
  <advance width="542"/>
  <unicode hex="0047"/>
  <anchor x="273" y="0" name="bottom"/>
  <anchor x="273" y="693" name="top"/>
  <outline>
    <contour>
      <point x="319" y="-14" type="curve"/>
      <point x="416" y="-14"/>
      <point x="479" y="10"/>
      <point x="483" y="14" type="curve"/>
      <point x="483" y="366" type="line"/>
      <point x="341" y="366" type="line"/>
      <point x="341" y="111" type="line"/>
      <point x="335" y="110"/>
      <point x="330" y="110"/>
      <point x="325" y="110" type="curve"/>
      <point x="230" y="110"/>
      <point x="195" y="174"/>
      <point x="195" y="348" type="curve" smooth="yes"/>
      <point x="195" y="522"/>
      <point x="229" y="583"/>
      <point x="326" y="583" type="curve"/>
      <point x="370" y="583"/>
      <point x="407" y="573"/>
      <point x="436" y="553" type="curve"/>
      <point x="477" y="672" type="line"/>
      <point x="440" y="694"/>
      <point x="384" y="707"/>
      <point x="327" y="707" type="curve"/>
      <point x="139" y="707"/>
      <point x="45" y="588"/>
      <point x="45" y="348" type="curve" smooth="yes"/>
      <point x="45" y="110"/>
      <point x="138" y="-14"/>
    </contour>
  </outline>
</glyph>
<glyph name="H" format="2">
  <advance width="592"/>
  <unicode hex="0048"/>
  <anchor x="296" y="0" name="bottom"/>
  <anchor x="296" y="347" name="center"/>
  <anchor x="296" y="693" name="top"/>
  <anchor x="18" y="693" name="topleft"/>
  <outline>
    <contour>
      <point x="75" y="0" type="line"/>
      <point x="217" y="0" type="line"/>
      <point x="217" y="300" type="line"/>
      <point x="375" y="300" type="line"/>
      <point x="375" y="0" type="line"/>
      <point x="517" y="0" type="line"/>
      <point x="517" y="693" type="line"/>
      <point x="375" y="693" type="line"/>
      <point x="375" y="420" type="line"/>
      <point x="217" y="420" type="line"/>
      <point x="217" y="693" type="line"/>
      <point x="75" y="693" type="line"/>
    </contour>
  </outline>
</glyph>
<glyph name="I" format="2">
  <advance width="292"/>
  <unicode hex="0049"/>
  <anchor x="145" y="0" name="bottom"/>
  <anchor x="263" y="10" name="ogonek"/>
  <anchor x="145" y="693" name="top"/>
  <anchor x="18" y="693" name="topleft"/>
  <outline>
    <contour>
      <point x="75" y="0" type="line"/>
      <point x="217" y="0" type="line"/>
      <point x="217" y="693" type="line"/>
      <point x="75" y="693" type="line"/>
    </contour>
  </outline>
</glyph>
<glyph name="J" format="2">
  <advance width="417"/>
  <unicode hex="004A"/>
  <anchor x="209" y="0" name="bottom"/>
  <anchor x="209" y="693" name="top"/>
  <outline>
    <contour>
      <point x="152" y="-14" type="curve" smooth="yes"/>
      <point x="285.0" y="-14.0"/>
      <point x="349" y="56.349999999999994"/>
      <point x="349" y="196" type="curve" smooth="yes"/>
      <point x="349" y="693" type="line"/>
      <point x="207" y="693" type="line"/>
      <point x="207" y="201" type="line" smooth="yes"/>
      <point x="207" y="136"/>
      <point x="183" y="110"/>
      <point x="145" y="110" type="curve"/>
      <point x="112" y="110"/>
      <point x="78.0" y="122.0"/>
      <point x="51" y="142" type="curve"/>
      <point x="5" y="31" type="line"/>
      <point x="34" y="4"/>
      <point x="93" y="-14"/>
    </contour>
  </outline>
</glyph>
<glyph name="K" format="2">
  <advance width="537"/>
  <unicode hex="004B"/>
  <anchor x="283" y="0" name="bottom"/>
  <anchor x="283" y="693" name="top"/>
  <outline>
    <contour>
      <point x="75" y="0" type="line"/>
      <point x="217" y="0" type="line"/>
      <point x="217" y="296" type="line"/>
      <point x="280" y="233"/>
      <point x="348" y="110"/>
      <point x="381" y="0" type="curve"/>
      <point x="532" y="0" type="line"/>
      <point x="484" y="134"/>
      <point x="410" y="271"/>
      <point x="339" y="359" type="curve"/>
      <point x="403" y="469"/>
      <point x="469" y="598"/>
      <point x="510" y="693" type="curve"/>
      <point x="368" y="693" type="line"/>
      <point x="334" y="611"/>
      <point x="273" y="489"/>
      <point x="217" y="395" type="curve"/>
      <point x="217" y="693" type="line"/>
      <point x="75" y="693" type="line"/>
    </contour>
  </outline>
</glyph>
<glyph name="L" format="2">
  <advance width="445"/>
  <unicode hex="004C"/>
  <anchor x="222" y="0" name="bottom"/>
  <anchor x="222" y="347" name="center"/>
  <anchor x="222" y="693" name="top"/>
  <anchor x="425" y="693" name="topright"/>
  <outline>
    <contour>
      <point x="75" y="0" type="line"/>
      <point x="428" y="0" type="line"/>
      <point x="428" y="119" type="line"/>
      <point x="217" y="119" type="line"/>
      <point x="217" y="693" type="line"/>
      <point x="75" y="693" type="line"/>
    </contour>
  </outline>
</glyph>
<glyph name="M" format="2">
  <advance width="727"/>
  <unicode hex="004D"/>
  <anchor x="362" y="0" name="bottom"/>
  <anchor x="362" y="693" name="top"/>
  <outline>
    <contour>
      <point x="55" y="0" type="curve"/>
      <point x="190" y="0" type="line"/>
      <point x="191" y="120"/>
      <point x="194" y="304"/>
      <point x="204" y="467" type="curve"/>
      <point x="244" y="338"/>
      <point x="278" y="209"/>
      <point x="308" y="89" type="curve"/>
      <point x="419" y="89" type="line"/>
      <point x="449" y="209"/>
      <point x="483" y="338"/>
      <point x="523" y="467" type="curve"/>
      <point x="533" y="304"/>
      <point x="536" y="120"/>
      <point x="537" y="0" type="curve"/>
      <point x="672" y="0" type="line"/>
      <point x="667" y="223"/>
      <point x="648" y="506"/>
      <point x="633" y="693" type="curve"/>
      <point x="493" y="693" type="line"/>
      <point x="458" y="601"/>
      <point x="403" y="428"/>
      <point x="363" y="286" type="curve"/>
      <point x="323" y="428"/>
      <point x="269" y="602"/>
      <point x="234" y="693" type="curve"/>
      <point x="94" y="693" type="line"/>
      <point x="79" y="506"/>
      <point x="60" y="223"/>
    </contour>
  </outline>
</glyph>
<glyph name="N" format="2">
  <advance width="601"/>
  <unicode hex="004E"/>
  <anchor x="297" y="0" name="bottom"/>
  <anchor x="297" y="693" name="top"/>
  <outline>
    <contour>
      <point x="75" y="0" type="line"/>
      <point x="208" y="0" type="line"/>
      <point x="208" y="429" type="line"/>
      <point x="298" y="262"/>
      <point x="372" y="107"/>
      <point x="412" y="0" type="curve"/>
      <point x="526" y="0" type="line"/>
      <point x="526" y="693" type="line"/>
      <point x="393" y="693" type="line"/>
      <point x="393" y="310" type="line"/>
      <point x="336" y="437"/>
      <point x="260" y="575"/>
      <point x="190" y="693" type="curve"/>
      <point x="75" y="693" type="line"/>
    </contour>
  </outline>
</glyph>
<glyph name="O" format="2">
  <advance width="610"/>
  <unicode hex="004F"/>
  <anchor x="305" y="0" name="bottom"/>
  <anchor x="305" y="347" name="center"/>
  <anchor x="557" y="10" name="ogonek"/>
  <anchor x="305" y="693" name="top"/>
  <anchor x="10" y="693" name="topleft"/>
  <anchor x="598" y="693" name="topright"/>
  <outline>
    <contour>
      <point x="305" y="-14" type="curve" smooth="yes"/>
      <point x="470" y="-14"/>
      <point x="565" y="117"/>
      <point x="565" y="346" type="curve" smooth="yes"/>
      <point x="565" y="576"/>
      <point x="471" y="707"/>
      <point x="305" y="707" type="curve" smooth="yes"/>
      <point x="140" y="707"/>
      <point x="45" y="576"/>
      <point x="45" y="348" type="curve" smooth="yes"/>
      <point x="45" y="118"/>
      <point x="140" y="-14"/>
    </contour>
    <contour>
      <point x="305" y="110" type="curve" smooth="yes"/>
      <point x="229.375" y="110.0"/>
      <point x="195.0" y="184.0"/>
      <point x="195" y="348" type="curve" smooth="yes"/>
      <point x="195.0" y="511.0"/>
      <point x="228.39285714285717" y="583.0"/>
      <point x="305" y="583" type="curve" smooth="yes"/>
      <point x="381.60714285714283" y="583.0"/>
      <point x="415.0" y="511.0"/>
      <point x="415" y="346" type="curve" smooth="yes"/>
      <point x="415.0" y="182.0"/>
      <point x="381.60714285714283" y="110.0"/>
    </contour>
  </outline>
</glyph>
<glyph name="P" format="2">
  <advance width="511"/>
  <unicode hex="0050"/>
  <anchor x="254" y="0" name="bottom"/>
  <anchor x="254" y="693" name="top"/>
  <outline>
    <contour>
      <point x="75" y="0" type="line"/>
      <point x="217" y="0" type="line"/>
      <point x="217" y="239" type="line"/>
      <point x="244" y="239" type="line" smooth="yes"/>
      <point x="393" y="239"/>
      <point x="489" y="331"/>
      <point x="489" y="472" type="curve" smooth="yes"/>
      <point x="489" y="619"/>
      <point x="398" y="703"/>
      <point x="239" y="703" type="curve"/>
      <point x="183" y="703"/>
      <point x="133" y="697"/>
      <point x="75" y="683" type="curve"/>
    </contour>
    <contour>
      <point x="217" y="359" type="line"/>
      <point x="217" y="577" type="line"/>
      <point x="224" y="580"/>
      <point x="236" y="581"/>
      <point x="245" y="581" type="curve" smooth="yes"/>
      <point x="310" y="581"/>
      <point x="341" y="546"/>
      <point x="341" y="472" type="curve" smooth="yes"/>
      <point x="341" y="393"/>
      <point x="311" y="359"/>
      <point x="242" y="359" type="curve" smooth="yes"/>
    </contour>
  </outline>
</glyph>
<glyph name="Q" format="2">
  <advance width="610"/>
  <unicode hex="0051"/>
  <anchor x="315" y="0" name="bottom"/>
  <anchor x="315" y="693" name="top"/>
  <outline>
    <contour>
      <point x="517" y="-188" type="curve"/>
      <point x="548" y="-82" type="line"/>
      <point x="444" y="-66"/>
      <point x="406" y="-44"/>
      <point x="392" y="0" type="curve"/>
      <point x="503" y="40"/>
      <point x="565" y="161"/>
      <point x="565" y="346" type="curve" smooth="yes"/>
      <point x="565" y="576"/>
      <point x="471" y="707"/>
      <point x="305" y="707" type="curve" smooth="yes"/>
      <point x="140" y="707"/>
      <point x="45" y="576"/>
      <point x="45" y="348" type="curve" smooth="yes"/>
      <point x="45" y="141"/>
      <point x="122" y="13"/>
      <point x="258" y="-10" type="curve"/>
      <point x="288" y="-120"/>
      <point x="345" y="-170"/>
    </contour>
    <contour>
      <point x="305" y="110" type="curve" smooth="yes"/>
      <point x="229" y="110"/>
      <point x="195" y="184"/>
      <point x="195" y="348" type="curve" smooth="yes"/>
      <point x="195" y="511"/>
      <point x="228" y="583"/>
      <point x="305" y="583" type="curve" smooth="yes"/>
      <point x="382" y="583"/>
      <point x="415" y="511"/>
      <point x="415" y="346" type="curve" smooth="yes"/>
      <point x="415" y="182"/>
      <point x="382" y="110"/>
    </contour>
  </outline>
</glyph>
<glyph name="R" format="2">
  <advance width="542"/>
  <unicode hex="0052"/>
  <anchor x="272" y="0" name="bottom"/>
  <anchor x="272" y="693" name="top"/>
  <outline>
    <contour>
      <point x="75" y="0" type="line"/>
      <point x="217" y="0" type="line"/>
      <point x="217" y="255" type="line"/>
      <point x="235" y="255" type="line"/>
      <point x="248" y="255"/>
      <point x="266" y="255"/>
      <point x="272" y="255" type="curve"/>
      <point x="311" y="192"/>
      <point x="351" y="97"/>
      <point x="381" y="0" type="curve"/>
      <point x="523" y="0" type="line"/>
      <point x="498" y="97"/>
      <point x="452" y="204"/>
      <point x="399" y="292" type="curve"/>
      <point x="458" y="343"/>
      <point x="487" y="405"/>
      <point x="487" y="479" type="curve" smooth="yes"/>
      <point x="487.0" y="627.0"/>
      <point x="401" y="703"/>
      <point x="239" y="703" type="curve"/>
      <point x="176.0" y="703.0"/>
      <point x="125.16199404239705" y="695.0421184510233"/>
      <point x="75" y="682" type="curve"/>
    </contour>
    <contour>
      <point x="217" y="369" type="line"/>
      <point x="217" y="577" type="line"/>
      <point x="224" y="580"/>
      <point x="235" y="581"/>
      <point x="245" y="581" type="curve"/>
      <point x="308" y="581"/>
      <point x="339.0" y="547.0"/>
      <point x="339" y="479" type="curve"/>
      <point x="339" y="406"/>
      <point x="306" y="369"/>
      <point x="241" y="369" type="curve"/>
    </contour>
  </outline>
</glyph>
<glyph name="S" format="2">
  <advance width="428.475"/>
  <unicode hex="0053"/>
  <anchor x="215" y="0" name="bottom"/>
  <anchor x="215" y="693" name="top"/>
  <outline>
    <contour>
      <point x="191" y="-14" type="curve" smooth="yes"/>
      <point x="329" y="-14"/>
      <point x="416" y="68"/>
      <point x="416" y="191" type="curve" smooth="yes"/>
      <point x="416" y="312"/>
      <point x="332" y="370"/>
      <point x="263" y="418" type="curve" smooth="yes"/>
      <point x="214" y="452"/>
      <point x="172" y="480"/>
      <point x="172" y="523" type="curve" smooth="yes"/>
      <point x="172" y="555"/>
      <point x="192" y="594"/>
      <point x="246" y="594" type="curve" smooth="yes"/>
      <point x="282" y="594"/>
      <point x="322" y="583"/>
      <point x="351" y="563" type="curve"/>
      <point x="394" y="668" type="line"/>
      <point x="347" y="696"/>
      <point x="295" y="709"/>
      <point x="240" y="709" type="curve" smooth="yes"/>
      <point x="111" y="709"/>
      <point x="30" y="624"/>
      <point x="30" y="509" type="curve" smooth="yes"/>
      <point x="30" y="406"/>
      <point x="99" y="357"/>
      <point x="163" y="312" type="curve" smooth="yes"/>
      <point x="217" y="274"/>
      <point x="266" y="239"/>
      <point x="266" y="177" type="curve" smooth="yes"/>
      <point x="266" y="127"/>
      <point x="234" y="102"/>
      <point x="185" y="102" type="curve" smooth="yes"/>
      <point x="149" y="102"/>
      <point x="103" y="120"/>
      <point x="68" y="147" type="curve"/>
      <point x="25" y="34" type="line"/>
      <point x="64" y="5"/>
      <point x="132" y="-14"/>
    </contour>
  </outline>
</glyph>
<glyph name="T" format="2">
  <advance width="452"/>
  <unicode hex="0054"/>
  <anchor x="225" y="0" name="bottom"/>
  <anchor x="225" y="347" name="center"/>
  <anchor x="225" y="693" name="top"/>
  <outline>
    <contour>
      <point x="155" y="0" type="line"/>
      <point x="297" y="0" type="line"/>
      <point x="297" y="574" type="line"/>
      <point x="442" y="574" type="line"/>
      <point x="442" y="693" type="line"/>
      <point x="10" y="693" type="line"/>
      <point x="10" y="574" type="line"/>
      <point x="155" y="574" type="line"/>
    </contour>
  </outline>
</glyph>
<glyph name="U" format="2">
  <advance width="568"/>
  <unicode hex="0055"/>
  <anchor x="285" y="0" name="bottom"/>
  <anchor x="514" y="10" name="ogonek"/>
  <anchor x="285" y="693" name="top"/>
  <anchor x="553" y="693" name="topright"/>
  <outline>
    <contour>
      <point x="284" y="-14" type="curve" smooth="yes"/>
      <point x="428" y="-14"/>
      <point x="501.0" y="67.0"/>
      <point x="501" y="211" type="curve" smooth="yes"/>
      <point x="501" y="693" type="line"/>
      <point x="359" y="693" type="line"/>
      <point x="359" y="222" type="line" smooth="yes"/>
      <point x="359" y="143"/>
      <point x="337" y="110"/>
      <point x="284" y="110" type="curve" smooth="yes"/>
      <point x="231" y="110"/>
      <point x="209" y="143"/>
      <point x="209" y="222" type="curve" smooth="yes"/>
      <point x="209" y="693" type="line"/>
      <point x="67" y="693" type="line"/>
      <point x="67" y="211" type="line" smooth="yes"/>
      <point x="67.0" y="67.0"/>
      <point x="140.0" y="-14"/>
    </contour>
  </outline>
</glyph>
<glyph name="V" format="2">
  <advance width="534"/>
  <unicode hex="0056"/>
  <anchor x="269" y="0" name="bottom"/>
  <anchor x="269" y="693" name="top"/>
  <outline>
    <contour>
      <point x="196" y="0" type="curve"/>
      <point x="338" y="0" type="line"/>
      <point x="411" y="237"/>
      <point x="471" y="473"/>
      <point x="515" y="693" type="curve"/>
      <point x="372" y="693" type="line"/>
      <point x="352" y="546"/>
      <point x="310" y="334"/>
      <point x="268" y="159" type="curve"/>
      <point x="225" y="347"/>
      <point x="185" y="557"/>
      <point x="167" y="693" type="curve"/>
      <point x="19" y="693" type="line"/>
      <point x="63" y="473"/>
      <point x="123" y="237"/>
    </contour>
  </outline>
</glyph>
<glyph name="W" format="2">
  <advance width="741"/>
  <unicode hex="0057"/>
  <anchor x="395" y="0" name="bottom"/>
  <anchor x="395" y="693" name="top"/>
  <outline>
    <contour>
      <point x="141" y="0" type="curve"/>
      <point x="276" y="0" type="line"/>
      <point x="304.0" y="101.0"/>
      <point x="342.0" y="272.0"/>
      <point x="369" y="411" type="curve"/>
      <point x="396.0" y="272.0"/>
      <point x="434.0" y="101.0"/>
      <point x="462" y="0" type="curve"/>
      <point x="600" y="0" type="line"/>
      <point x="646" y="195"/>
      <point x="699" y="547"/>
      <point x="716" y="693" type="curve"/>
      <point x="578" y="693" type="line"/>
      <point x="569.9985212600251" y="578.978927955357"/>
      <point x="549.0207914792759" y="392.1440002453552"/>
      <point x="522" y="205" type="curve"/>
      <point x="494.0" y="331.0"/>
      <point x="463.0" y="484.0"/>
      <point x="439" y="618" type="curve"/>
      <point x="305" y="618" type="line"/>
      <point x="281.0" y="484.0"/>
      <point x="250.0" y="331.0"/>
      <point x="222" y="205" type="curve"/>
      <point x="194.97920852072411" y="392.1440002453552"/>
      <point x="174.00147873997494" y="578.978927955357"/>
      <point x="166" y="693" type="curve"/>
      <point x="25" y="693" type="line"/>
      <point x="42" y="547"/>
      <point x="95" y="195"/>
    </contour>
  </outline>
</glyph>
<glyph name="X" format="2">
  <advance width="502"/>
  <unicode hex="0058"/>
  <anchor x="251" y="0" name="bottom"/>
  <anchor x="251" y="693" name="top"/>
  <outline>
    <contour>
      <point x="12" y="0" type="curve"/>
      <point x="154" y="0" type="line"/>
      <point x="178" y="81"/>
      <point x="203" y="147"/>
      <point x="249" y="254" type="curve"/>
      <point x="295" y="147"/>
      <point x="320" y="81"/>
      <point x="344" y="0" type="curve"/>
      <point x="490" y="0" type="line"/>
      <point x="459" y="96"/>
      <point x="416" y="205"/>
      <point x="344" y="364" type="curve"/>
      <point x="479" y="693" type="line"/>
      <point x="332" y="693" type="line"/>
      <point x="254" y="451" type="line"/>
      <point x="174" y="693" type="line"/>
      <point x="23" y="693" type="line"/>
      <point x="158" y="358" type="line"/>
      <point x="86" y="201"/>
      <point x="42" y="94"/>
    </contour>
  </outline>
</glyph>
<glyph name="Z" format="2">
  <advance width="447"/>
  <unicode hex="005A"/>
  <anchor x="228" y="0" name="bottom"/>
  <anchor x="228" y="347" name="center"/>
  <anchor x="228" y="693" name="top"/>
  <outline>
    <contour>
      <point x="23" y="0" type="line"/>
      <point x="421" y="0" type="line"/>
      <point x="421" y="119" type="line"/>
      <point x="180" y="119" type="line"/>
      <point x="236" y="252"/>
      <point x="324" y="424"/>
      <point x="414" y="572" type="curve"/>
      <point x="414" y="693" type="line"/>
      <point x="38" y="693" type="line"/>
      <point x="38" y="574" type="line"/>
      <point x="271" y="574" type="line"/>
      <point x="184" y="426"/>
      <point x="97" y="254"/>
      <point x="23" y="87" type="curve"/>
    </contour>
  </outline>
</glyph>
<glyph name="bracketleft" format="2">
  <advance width="317.85"/>
  <unicode hex="005B"/>
  <outline>
    <contour>
      <point x="87" y="-185" type="line"/>
      <point x="312" y="-185" type="line"/>
      <point x="312" y="-84" type="line"/>
      <point x="216" y="-84" type="line"/>
      <point x="216" y="681" type="line"/>
      <point x="312" y="681" type="line"/>
      <point x="312" y="783" type="line"/>
      <point x="87" y="783" type="line"/>
    </contour>
  </outline>
</glyph>
<glyph name="backslash" format="2">
  <advance width="317"/>
  <unicode hex="005C"/>
  <outline>
    <contour>
      <point x="222" y="-185" type="line"/>
      <point x="347" y="-185" type="line"/>
      <point x="104" y="783" type="line"/>
      <point x="-21" y="783" type="line"/>
    </contour>
  </outline>
</glyph>
<glyph name="bracketright" format="2">
  <advance width="305"/>
  <unicode hex="005D"/>
  <outline>
    <contour>
      <point x="4" y="-185" type="line"/>
      <point x="229" y="-185" type="line"/>
      <point x="229" y="783" type="line"/>
      <point x="4" y="783" type="line"/>
      <point x="4" y="681" type="line"/>
      <point x="103" y="681" type="line"/>
      <point x="103" y="-84" type="line"/>
      <point x="4" y="-84" type="line"/>
    </contour>
  </outline>
</glyph>
<glyph name="asciicircum" format="2">
  <advance width="434"/>
  <unicode hex="005E"/>
  <outline>
    <contour>
      <point x="122" y="295" type="line"/>
      <point x="217" y="545" type="line"/>
      <point x="313" y="295" type="line"/>
      <point x="424" y="337" type="line"/>
      <point x="275" y="693" type="line"/>
      <point x="159" y="693" type="line"/>
      <point x="10" y="337" type="line"/>
    </contour>
  </outline>
</glyph>
<glyph name="underscore" format="2">
  <advance width="370"/>
  <unicode hex="005F"/>
  <outline>
    <contour>
      <point x="0" y="-185" type="line"/>
      <point x="370" y="-185" type="line"/>
      <point x="370" y="-68" type="line"/>
      <point x="0" y="-68" type="line"/>
    </contour>
  </outline>
</glyph>
<glyph name="grave" format="2">
  <advance width="314"/>
  <unicode hex="0060"/>
  <outline>
    <contour>
      <point x="172" y="578" type="line"/>
      <point x="240" y="639" type="line"/>
      <point x="128" y="792" type="line"/>
      <point x="37" y="708" type="line"/>
    </contour>
  </outline>
</glyph>
<glyph name="a" format="2">
  <advance width="445"/>
  <unicode hex="0061"/>
  <anchor x="221" y="0" name="bottom"/>
  <anchor x="400" y="10" name="ogonek"/>
  <anchor x="221" y="527" name="top"/>
  <outline>
    <contour>
      <point x="227" y="-10" type="curve" smooth="yes"/>
      <point x="278" y="-10.0"/>
      <point x="339" y="-3"/>
      <point x="395" y="13" type="curve"/>
      <point x="395" y="339" type="line" smooth="yes"/>
      <point x="395" y="483.6990291262136"/>
      <point x="314.0" y="546.0"/>
      <point x="197" y="546" type="curve" smooth="yes"/>
      <point x="156" y="546.0"/>
      <point x="106" y="536"/>
      <point x="75" y="525" type="curve"/>
      <point x="94" y="415" type="line"/>
      <point x="124" y="425"/>
      <point x="149" y="429"/>
      <point x="172" y="429" type="curve" smooth="yes"/>
      <point x="233.0" y="429.0"/>
      <point x="261" y="406.962962962963"/>
      <point x="261" y="344" type="curve" smooth="yes"/>
      <point x="261" y="320" type="line"/>
      <point x="245.87481801417042" y="321.8906477482287"/>
      <point x="225.69230769230768" y="323.0"/>
      <point x="210" y="323" type="curve"/>
      <point x="108" y="323"/>
      <point x="40" y="265"/>
      <point x="40" y="159" type="curve" smooth="yes"/>
      <point x="40" y="50"/>
      <point x="106.44670050761421" y="-10.0"/>
    </contour>
    <contour>
      <point x="233" y="97" type="curve"/>
      <point x="196.33333333333337" y="97.0"/>
      <point x="178.0" y="116.0"/>
      <point x="178" y="158" type="curve" smooth="yes"/>
      <point x="178" y="201"/>
      <point x="194.75862068965515" y="223.0"/>
      <point x="232" y="223" type="curve"/>
      <point x="242.77142857142857" y="223.0"/>
      <point x="252.57089449049326" y="221.528731652852"/>
      <point x="261" y="219" type="curve"/>
      <point x="261" y="100" type="line"/>
      <point x="255.43643368178033" y="98.41040962336584"/>
      <point x="245" y="97"/>
    </contour>
  </outline>
</glyph>
<glyph name="b" format="2">
  <advance width="485"/>
  <unicode hex="0062"/>
  <anchor x="237" y="0" name="bottom"/>
  <anchor x="237" y="263" name="center"/>
  <anchor x="237" y="527" name="top"/>
  <outline>
    <contour>
      <point x="230" y="-10" type="curve"/>
      <point x="370.0" y="-10.0"/>
      <point x="445.0" y="84.0"/>
      <point x="445" y="257" type="curve" smooth="yes"/>
      <point x="445.0" y="448.0"/>
      <point x="384.0" y="542.0"/>
      <point x="259" y="542" type="curve"/>
      <point x="238" y="542"/>
      <point x="215" y="538"/>
      <point x="198" y="530" type="curve"/>
      <point x="198" y="776" type="line"/>
      <point x="60" y="754" type="line"/>
      <point x="60" y="11" type="line"/>
      <point x="117" y="-3"/>
      <point x="170" y="-10"/>
    </contour>
    <contour>
      <point x="227" y="107" type="curve"/>
      <point x="216.0" y="107.0"/>
      <point x="207" y="108"/>
      <point x="198" y="110" type="curve"/>
      <point x="198" y="418" type="line"/>
      <point x="207" y="423"/>
      <point x="220" y="425"/>
      <point x="233" y="425" type="curve"/>
      <point x="280" y="425"/>
      <point x="301" y="392"/>
      <point x="301" y="257" type="curve" smooth="yes"/>
      <point x="301" y="133"/>
      <point x="279" y="107"/>
    </contour>
  </outline>
</glyph>
<glyph name="c" format="2">
  <advance width="383"/>
  <unicode hex="0063"/>
  <anchor x="188" y="0" name="bottom"/>
  <anchor x="188" y="527" name="top"/>
  <outline>
    <contour>
      <point x="251" y="-14" type="curve" smooth="yes"/>
      <point x="300" y="-14"/>
      <point x="335" y="-8"/>
      <point x="363" y="5" type="curve"/>
      <point x="345" y="118" type="line"/>
      <point x="328.0" y="110.0"/>
      <point x="312.0" y="106.0"/>
      <point x="286" y="106" type="curve"/>
      <point x="230.4387755102041" y="106.0"/>
      <point x="187.0" y="145.24528301886792"/>
      <point x="187" y="266" type="curve" smooth="yes"/>
      <point x="187.0" y="387.76100628930817"/>
      <point x="219.37209302325581" y="426.0"/>
      <point x="274" y="426" type="curve"/>
      <point x="296.0" y="426.0"/>
      <point x="316.0" y="420.0"/>
      <point x="336" y="408" type="curve"/>
      <point x="363" y="522" type="line"/>
      <point x="330" y="538"/>
      <point x="295" y="546"/>
      <point x="253" y="546" type="curve" smooth="yes"/>
      <point x="122.0" y="546.0"/>
      <point x="43.0" y="441.0"/>
      <point x="43" y="266" type="curve" smooth="yes"/>
      <point x="43.0" y="84.0"/>
      <point x="118.0" y="-14.0"/>
    </contour>
  </outline>
</glyph>
<glyph name="d" format="2">
  <advance width="493.8"/>
  <unicode hex="0064"/>
  <anchor x="247" y="0" name="bottom"/>
  <anchor x="247" y="263" name="center"/>
  <anchor x="247" y="776" name="top"/>
  <anchor x="474" y="776" name="topright"/>
  <outline>
    <contour>
      <point x="263" y="-21" type="curve" smooth="yes"/>
      <point x="346" y="-21"/>
      <point x="398" y="0"/>
      <point x="423" y="7" type="curve"/>
      <point x="423" y="776" type="line"/>
      <point x="286" y="754" type="line"/>
      <point x="286" y="543" type="line"/>
      <point x="295" y="528"/>
      <point x="281" y="543"/>
      <point x="232" y="543" type="curve" smooth="yes"/>
      <point x="91" y="543"/>
      <point x="40" y="418"/>
      <point x="40" y="264" type="curve" smooth="yes"/>
      <point x="40" y="73"/>
      <point x="117" y="-21"/>
    </contour>
    <contour>
      <point x="245" y="100" type="curve" smooth="yes"/>
      <point x="230" y="100"/>
      <point x="185" y="136"/>
      <point x="185" y="264" type="curve" smooth="yes"/>
      <point x="185" y="356"/>
      <point x="179" y="422"/>
      <point x="250" y="422" type="curve" smooth="yes"/>
      <point x="276" y="422"/>
      <point x="298" y="406"/>
      <point x="286" y="423" type="curve"/>
      <point x="286" y="102" type="line"/>
      <point x="286" y="105"/>
      <point x="286" y="100"/>
    </contour>
  </outline>
</glyph>
<glyph name="e" format="2">
  <advance width="451"/>
  <unicode hex="0065"/>
  <anchor x="222" y="0" name="bottom"/>
  <anchor x="401" y="10" name="ogonek"/>
  <anchor x="222" y="527" name="top"/>
  <outline>
    <contour>
      <point x="262" y="-14" type="curve" smooth="yes"/>
      <point x="312.1818181818182" y="-14.0"/>
      <point x="356.4113801245653" y="-7.2573296537825485"/>
      <point x="394" y="11" type="curve"/>
      <point x="378" y="119" type="line"/>
      <point x="356" y="109"/>
      <point x="322" y="106.0"/>
      <point x="287" y="106" type="curve" smooth="yes"/>
      <point x="219.0" y="106.0"/>
      <point x="182.97347744700878" y="145.90962381536792"/>
      <point x="182" y="216" type="curve"/>
      <point x="414" y="216" type="line"/>
      <point x="415" y="234"/>
      <point x="416.0" y="252.0"/>
      <point x="416" y="273" type="curve"/>
      <point x="416.0" y="440.0"/>
      <point x="354" y="546"/>
      <point x="237" y="546" type="curve" smooth="yes"/>
      <point x="116" y="546"/>
      <point x="40.0" y="440.0"/>
      <point x="40" y="259" type="curve" smooth="yes"/>
      <point x="40" y="85"/>
      <point x="121" y="-14"/>
    </contour>
    <contour>
      <point x="182" y="313" type="line"/>
      <point x="184" y="399"/>
      <point x="198.32" y="431.0"/>
      <point x="230" y="431" type="curve"/>
      <point x="262" y="431"/>
      <point x="278.0" y="401.0"/>
      <point x="280" y="313" type="curve"/>
    </contour>
  </outline>
</glyph>
<glyph name="f" format="2">
  <advance width="336.15"/>
  <unicode hex="0066"/>
  <anchor x="168" y="0" name="bottom"/>
  <anchor x="168" y="776" name="top"/>
  <outline>
    <contour>
      <point x="71" y="0" type="line"/>
      <point x="209" y="0" type="line"/>
      <point x="209" y="419" type="line"/>
      <point x="331" y="419" type="line"/>
      <point x="331" y="532" type="line"/>
      <point x="209" y="532" type="line"/>
      <point x="209" y="588" type="line" smooth="yes"/>
      <point x="209" y="613"/>
      <point x="205" y="659"/>
      <point x="262" y="659" type="curve" smooth="yes"/>
      <point x="314" y="659"/>
      <point x="325" y="649"/>
      <point x="327" y="647" type="curve"/>
      <point x="353" y="757" type="line"/>
      <point x="349" y="763"/>
      <point x="318" y="776"/>
      <point x="249" y="776" type="curve" smooth="yes"/>
      <point x="127" y="776"/>
      <point x="71" y="697"/>
      <point x="71" y="588" type="curve" smooth="yes"/>
    </contour>
  </outline>
</glyph>
<glyph name="g" format="2">
  <advance width="497"/>
  <unicode hex="0067"/>
  <anchor x="245" y="-185" name="bottom"/>
  <anchor x="245" y="527" name="top"/>
  <outline>
    <contour>
      <point x="227" y="-188" type="curve" smooth="yes"/>
      <point x="367" y="-188"/>
      <point x="428.0" y="-93"/>
      <point x="428" y="48" type="curve" smooth="yes"/>
      <point x="428" y="521" type="line"/>
      <point x="369" y="535"/>
      <point x="316" y="542"/>
      <point x="258" y="542" type="curve"/>
      <point x="118" y="542"/>
      <point x="43" y="453"/>
      <point x="43" y="288" type="curve" smooth="yes"/>
      <point x="43.0" y="108.0"/>
      <point x="103.375" y="20.0"/>
      <point x="227" y="20" type="curve"/>
      <point x="248.76363636363635" y="20.0"/>
      <point x="270.9517480113478" y="23.03611671122249"/>
      <point x="290" y="32" type="curve"/>
      <point x="290" y="15" type="line"/>
      <point x="290" y="-38"/>
      <point x="258" y="-71"/>
      <point x="205" y="-72" type="curve"/>
      <point x="170" y="-72"/>
      <point x="135" y="-64"/>
      <point x="101" y="-48" type="curve"/>
      <point x="76" y="-163" type="line"/>
      <point x="116" y="-180"/>
      <point x="165" y="-188"/>
    </contour>
    <contour>
      <point x="255" y="137" type="curve"/>
      <point x="206" y="137"/>
      <point x="187" y="168"/>
      <point x="187" y="288" type="curve" smooth="yes"/>
      <point x="187" y="397"/>
      <point x="215" y="425"/>
      <point x="256" y="425" type="curve"/>
      <point x="271" y="425"/>
      <point x="280" y="424"/>
      <point x="290" y="421" type="curve"/>
      <point x="290" y="144" type="line"/>
      <point x="282" y="139"/>
      <point x="271" y="137"/>
    </contour>
  </outline>
</glyph>
<glyph name="h" format="2">
  <advance width="483"/>
  <unicode hex="0068"/>
  <anchor x="242" y="0" name="bottom"/>
  <anchor x="242" y="388" name="center"/>
  <anchor x="242" y="776" name="top"/>
  <outline>
    <contour>
      <point x="60" y="0" type="line"/>
      <point x="198" y="0" type="line"/>
      <point x="198" y="421" type="line"/>
      <point x="207" y="424"/>
      <point x="216" y="425"/>
      <point x="225" y="425" type="curve" smooth="yes"/>
      <point x="277" y="425"/>
      <point x="295" y="394"/>
      <point x="295" y="307" type="curve" smooth="yes"/>
      <point x="295" y="0" type="line"/>
      <point x="433" y="0" type="line"/>
      <point x="433" y="313" type="line" smooth="yes"/>
      <point x="433" y="454"/>
      <point x="362" y="542"/>
      <point x="249" y="542" type="curve"/>
      <point x="230" y="542"/>
      <point x="213" y="540"/>
      <point x="198" y="535" type="curve"/>
      <point x="198" y="776" type="line"/>
      <point x="60" y="754" type="line"/>
    </contour>
  </outline>
</glyph>
<glyph name="i" format="2">
  <advance width="258"/>
  <unicode hex="0069"/>
  <anchor x="130" y="0" name="bottom"/>
  <outline>
    <contour>
      <point x="60" y="0" type="line"/>
      <point x="198" y="0" type="line"/>
      <point x="198" y="532" type="line"/>
      <point x="60" y="532" type="line"/>
    </contour>
    <contour>
      <point x="129" y="596" type="curve" smooth="yes"/>
      <point x="173" y="596.0"/>
      <point x="211.0" y="629.0"/>
      <point x="211" y="680" type="curve" smooth="yes"/>
      <point x="211.0" y="731.0"/>
      <point x="173" y="764.0"/>
      <point x="129" y="764" type="curve" smooth="yes"/>
      <point x="85" y="764"/>
      <point x="47" y="731"/>
      <point x="47" y="680" type="curve" smooth="yes"/>
      <point x="47" y="629"/>
      <point x="85" y="596"/>
    </contour>
  </outline>
</glyph>
<glyph name="j" format="2">
  <advance width="258"/>
  <unicode hex="006A"/>
  <outline>
    <contour>
      <point x="32" y="-188" type="curve" smooth="yes"/>
      <point x="145.94082840236686" y="-188.0"/>
      <point x="198" y="-124.0"/>
      <point x="198" y="-18" type="curve" smooth="yes"/>
      <point x="198" y="532" type="line"/>
      <point x="60" y="532" type="line"/>
      <point x="60" y="-18" type="line" smooth="yes"/>
      <point x="60" y="-54.0"/>
      <point x="48.81818181818181" y="-68.0"/>
      <point x="19" y="-68" type="curve"/>
      <point x="6" y="-68"/>
      <point x="-5" y="-66"/>
      <point x="-18" y="-62" type="curve"/>
      <point x="-37" y="-175" type="line"/>
      <point x="-15" y="-183"/>
      <point x="9" y="-188"/>
    </contour>
    <contour>
      <point x="129" y="596" type="curve" smooth="yes"/>
      <point x="176" y="596"/>
      <point x="211" y="632"/>
      <point x="211" y="680" type="curve" smooth="yes"/>
      <point x="211" y="728"/>
      <point x="176" y="764"/>
      <point x="129" y="764" type="curve" smooth="yes"/>
      <point x="82" y="764"/>
      <point x="47" y="728"/>
      <point x="47" y="680" type="curve" smooth="yes"/>
      <point x="47" y="632"/>
      <point x="82" y="596"/>
    </contour>
  </outline>
</glyph>
<glyph name="k" format="2">
  <advance width="458"/>
  <unicode hex="006B"/>
  <anchor x="242" y="0" name="bottom"/>
  <anchor x="242" y="776" name="top"/>
  <outline>
    <contour>
      <point x="69" y="0" type="line"/>
      <point x="207" y="0" type="line"/>
      <point x="207" y="234" type="line"/>
      <point x="250" y="177"/>
      <point x="287.0902209357868" y="83.65552006335949"/>
      <point x="309" y="0" type="curve"/>
      <point x="455" y="0" type="line"/>
      <point x="425" y="104"/>
      <point x="368" y="217"/>
      <point x="315" y="282" type="curve"/>
      <point x="358" y="352"/>
      <point x="413.3626186695468" y="451.79384087117"/>
      <point x="450" y="532" type="curve"/>
      <point x="304" y="532" type="line"/>
      <point x="281.2031901901138" y="473.5212270094224"/>
      <point x="238" y="376"/>
      <point x="207" y="317" type="curve"/>
      <point x="207" y="776" type="line"/>
      <point x="69" y="754" type="line"/>
    </contour>
  </outline>
</glyph>
<glyph name="l" format="2">
  <advance width="270"/>
  <unicode hex="006C"/>
  <anchor x="128" y="0" name="bottom"/>
  <anchor x="128" y="388" name="center"/>
  <anchor x="128" y="776" name="top"/>
  <anchor x="249" y="776" name="topright"/>
  <outline>
    <contour>
      <point x="242" y="-14" type="curve"/>
      <point x="258" y="98" type="line"/>
      <point x="209.0" y="101.0"/>
      <point x="193" y="117.0"/>
      <point x="193" y="160" type="curve" smooth="yes"/>
      <point x="193" y="776" type="line"/>
      <point x="55" y="754" type="line"/>
      <point x="55" y="158" type="line" smooth="yes"/>
      <point x="55" y="44"/>
      <point x="116" y="-10.0"/>
    </contour>
  </outline>
</glyph>
<glyph name="m" format="2">
  <advance width="708"/>
  <unicode hex="006D"/>
  <anchor x="371" y="0" name="bottom"/>
  <anchor x="371" y="527" name="top"/>
  <outline>
    <contour>
      <point x="60" y="0" type="line"/>
      <point x="198" y="0" type="line"/>
      <point x="198" y="422" type="line"/>
      <point x="208" y="424"/>
      <point x="217" y="425"/>
      <point x="225" y="425" type="curve" smooth="yes"/>
      <point x="277" y="425"/>
      <point x="290" y="402"/>
      <point x="290" y="307" type="curve" smooth="yes"/>
      <point x="290" y="0" type="line"/>
      <point x="428" y="0" type="line"/>
      <point x="428" y="313" type="line" smooth="yes"/>
      <point x="428" y="351"/>
      <point x="424" y="384"/>
      <point x="416" y="413" type="curve"/>
      <point x="431" y="421"/>
      <point x="443" y="425"/>
      <point x="458" y="425" type="curve"/>
      <point x="505" y="425"/>
      <point x="520" y="397"/>
      <point x="520" y="307" type="curve" smooth="yes"/>
      <point x="520" y="0" type="line"/>
      <point x="658" y="0" type="line"/>
      <point x="658" y="313" type="line" smooth="yes"/>
      <point x="658" y="467"/>
      <point x="598" y="542"/>
      <point x="474" y="542" type="curve"/>
      <point x="432" y="542"/>
      <point x="393" y="529"/>
      <point x="358" y="505" type="curve"/>
      <point x="326" y="530"/>
      <point x="283" y="542"/>
      <point x="229" y="542" type="curve" smooth="yes"/>
      <point x="170" y="542"/>
      <point x="116" y="535"/>
      <point x="60" y="521" type="curve"/>
    </contour>
  </outline>
</glyph>
<glyph name="n" format="2">
  <advance width="483"/>
  <unicode hex="006E"/>
  <anchor x="243" y="0" name="bottom"/>
  <anchor x="243" y="527" name="top"/>
  <outline>
    <contour>
      <point x="60" y="0" type="line"/>
      <point x="198" y="0" type="line"/>
      <point x="198" y="422" type="line"/>
      <point x="208" y="424"/>
      <point x="217" y="425"/>
      <point x="225" y="425" type="curve" smooth="yes"/>
      <point x="277" y="425"/>
      <point x="295" y="394"/>
      <point x="295" y="307" type="curve" smooth="yes"/>
      <point x="295" y="0" type="line"/>
      <point x="433" y="0" type="line"/>
      <point x="433" y="313" type="line" smooth="yes"/>
      <point x="433" y="467"/>
      <point x="366" y="542"/>
      <point x="229" y="542" type="curve" smooth="yes"/>
      <point x="170" y="542"/>
      <point x="116" y="535"/>
      <point x="60" y="521" type="curve"/>
    </contour>
  </outline>
</glyph>
<glyph name="o" format="2">
  <advance width="480"/>
  <unicode hex="006F"/>
  <anchor x="240" y="0" name="bottom"/>
  <anchor x="240" y="263" name="center"/>
  <anchor x="430" y="10" name="ogonek"/>
  <anchor x="240" y="527" name="top"/>
  <anchor x="457" y="527" name="topright"/>
  <outline>
    <contour>
      <point x="240" y="-14" type="curve" smooth="yes"/>
      <point x="367" y="-14"/>
      <point x="440" y="88"/>
      <point x="440" y="266" type="curve" smooth="yes"/>
      <point x="440" y="444"/>
      <point x="367" y="546"/>
      <point x="240" y="546" type="curve" smooth="yes"/>
      <point x="113" y="546"/>
      <point x="40" y="444"/>
      <point x="40" y="266" type="curve" smooth="yes"/>
      <point x="40" y="88"/>
      <point x="113" y="-14"/>
    </contour>
    <contour>
      <point x="240" y="105" type="curve" smooth="yes"/>
      <point x="200" y="105"/>
      <point x="184" y="150"/>
      <point x="184" y="266" type="curve" smooth="yes"/>
      <point x="184" y="382"/>
      <point x="200" y="427"/>
      <point x="240" y="427" type="curve" smooth="yes"/>
      <point x="280" y="427"/>
      <point x="296" y="382"/>
      <point x="296" y="266" type="curve" smooth="yes"/>
      <point x="296" y="149"/>
      <point x="281" y="105"/>
    </contour>
  </outline>
</glyph>
<glyph name="p" format="2">
  <advance width="485"/>
  <unicode hex="0070"/>
  <anchor x="247" y="0" name="bottom"/>
  <anchor x="247" y="527" name="top"/>
  <outline>
    <contour>
      <point x="60" y="-185" type="line"/>
      <point x="198" y="-185" type="line"/>
      <point x="198" y="2" type="line"/>
      <point x="215" y="-6"/>
      <point x="238" y="-10"/>
      <point x="259" y="-10" type="curve"/>
      <point x="384.0" y="-10.0"/>
      <point x="445.0" y="84.0"/>
      <point x="445" y="275" type="curve" smooth="yes"/>
      <point x="445.0" y="448.0"/>
      <point x="370.0" y="542.0"/>
      <point x="230" y="542" type="curve"/>
      <point x="170" y="542"/>
      <point x="117" y="535"/>
      <point x="60" y="521" type="curve"/>
    </contour>
    <contour>
      <point x="233" y="107" type="curve"/>
      <point x="220" y="107"/>
      <point x="207" y="109"/>
      <point x="198" y="114" type="curve"/>
      <point x="198" y="422" type="line"/>
      <point x="207" y="424"/>
      <point x="216.0" y="425.0"/>
      <point x="227" y="425" type="curve"/>
      <point x="279" y="425"/>
      <point x="301" y="399"/>
      <point x="301" y="275" type="curve" smooth="yes"/>
      <point x="301" y="140"/>
      <point x="280" y="107"/>
    </contour>
  </outline>
</glyph>
<glyph name="q" format="2">
  <advance width="492.125"/>
  <unicode hex="0071"/>
  <anchor x="247" y="0" name="bottom"/>
  <anchor x="247" y="527" name="top"/>
  <outline>
    <contour>
      <point x="284" y="-185" type="line"/>
      <point x="422" y="-185" type="line"/>
      <point x="422" y="516" type="line"/>
      <point x="388" y="529"/>
      <point x="345" y="545"/>
      <point x="244" y="545" type="curve" smooth="yes"/>
      <point x="129" y="545"/>
      <point x="40" y="438"/>
      <point x="40" y="265" type="curve" smooth="yes"/>
      <point x="40" y="100"/>
      <point x="101" y="-21"/>
      <point x="246" y="-21" type="curve" smooth="yes"/>
      <point x="252" y="-21"/>
      <point x="271" y="-24"/>
      <point x="284" y="-23" type="curve"/>
    </contour>
    <contour>
      <point x="270" y="100" type="curve" smooth="yes"/>
      <point x="188" y="100"/>
      <point x="185" y="174"/>
      <point x="185" y="266" type="curve" smooth="yes"/>
      <point x="185" y="387"/>
      <point x="219" y="423"/>
      <point x="250" y="423" type="curve" smooth="yes"/>
      <point x="291" y="423"/>
      <point x="284" y="426"/>
      <point x="284" y="425" type="curve"/>
      <point x="284" y="102" type="line"/>
      <point x="281" y="106"/>
      <point x="276" y="100"/>
    </contour>
  </outline>
</glyph>
<glyph name="r" format="2">
  <advance width="363"/>
  <unicode hex="0072"/>
  <anchor x="179" y="0" name="bottom"/>
  <anchor x="179" y="527" name="top"/>
  <outline>
    <contour>
      <point x="69" y="0" type="line"/>
      <point x="207" y="0" type="line"/>
      <point x="207" y="417" type="line"/>
      <point x="223" y="423"/>
      <point x="242.0" y="425.0"/>
      <point x="267" y="425" type="curve"/>
      <point x="289.0" y="425.0"/>
      <point x="311" y="421"/>
      <point x="331" y="414" type="curve"/>
      <point x="356" y="527" type="line"/>
      <point x="334" y="536"/>
      <point x="293" y="542"/>
      <point x="250" y="542" type="curve"/>
      <point x="184" y="542"/>
      <point x="109" y="527"/>
      <point x="69" y="507" type="curve"/>
    </contour>
  </outline>
</glyph>
<glyph name="s" format="2">
  <advance width="364"/>
  <unicode hex="0073"/>
  <anchor x="186" y="0" name="bottom"/>
  <anchor x="186" y="527" name="top"/>
  <outline>
    <contour>
      <point x="159" y="-14" type="curve" smooth="yes"/>
      <point x="269.0" y="-14.0"/>
      <point x="342" y="52"/>
      <point x="342" y="154" type="curve" smooth="yes"/>
      <point x="342" y="219"/>
      <point x="307.0" y="267.0"/>
      <point x="248" y="307" type="curve" smooth="yes"/>
      <point x="189.0" y="347.0"/>
      <point x="169.0" y="361.0"/>
      <point x="169" y="393" type="curve"/>
      <point x="169.0" y="420.3333333333333"/>
      <point x="188.0" y="434.0"/>
      <point x="224" y="434" type="curve" smooth="yes"/>
      <point x="248" y="434.0"/>
      <point x="272" y="430"/>
      <point x="302" y="418" type="curve"/>
      <point x="324" y="524" type="line"/>
      <point x="306" y="533"/>
      <point x="263" y="546.0"/>
      <point x="212" y="546" type="curve" smooth="yes"/>
      <point x="105.0" y="546.0"/>
      <point x="35.0" y="475"/>
      <point x="35" y="379" type="curve" smooth="yes"/>
      <point x="35.0" y="310.0"/>
      <point x="61" y="270"/>
      <point x="123" y="231" type="curve" smooth="yes"/>
      <point x="185" y="192.0"/>
      <point x="204.0" y="175.0"/>
      <point x="204" y="142" type="curve"/>
      <point x="204.0" y="116.0"/>
      <point x="188" y="98"/>
      <point x="147" y="98" type="curve"/>
      <point x="120" y="98"/>
      <point x="84" y="108"/>
      <point x="56" y="124" type="curve"/>
      <point x="30" y="17" type="line"/>
      <point x="54" y="3"/>
      <point x="104" y="-14"/>
    </contour>
  </outline>
</glyph>
<glyph name="t" format="2">
  <advance width="363"/>
  <unicode hex="0074"/>
  <anchor x="175" y="0" name="bottom"/>
  <anchor x="175" y="263" name="center"/>
  <anchor x="175" y="527" name="top"/>
  <anchor x="330" y="776" name="topright"/>
  <outline>
    <contour>
      <point x="230" y="-14" type="curve" smooth="yes"/>
      <point x="268" y="-14"/>
      <point x="315" y="-2"/>
      <point x="338" y="15" type="curve"/>
      <point x="317" y="121" type="line"/>
      <point x="298.29101975750115" y="110.16848512276384"/>
      <point x="281.0" y="106.0"/>
      <point x="257" y="106" type="curve"/>
      <point x="220" y="106"/>
      <point x="201" y="131.0"/>
      <point x="201" y="192" type="curve" smooth="yes"/>
      <point x="201" y="419" type="line"/>
      <point x="328" y="419" type="line"/>
      <point x="328" y="532" type="line"/>
      <point x="201" y="532" type="line"/>
      <point x="201" y="681" type="line"/>
      <point x="63" y="659" type="line"/>
      <point x="63" y="200" type="line" smooth="yes"/>
      <point x="63.0" y="59"/>
      <point x="112" y="-14"/>
    </contour>
  </outline>
</glyph>
<glyph name="u" format="2">
  <advance width="505"/>
  <unicode hex="0075"/>
  <anchor x="252" y="0" name="bottom"/>
  <anchor x="458" y="10" name="ogonek"/>
  <anchor x="252" y="527" name="top"/>
  <anchor x="490" y="527" name="topright"/>
  <outline>
    <contour>
      <point x="267" y="-10" type="curve" smooth="yes"/>
      <point x="326" y="-10"/>
      <point x="380" y="-3"/>
      <point x="436" y="11" type="curve"/>
      <point x="436" y="532" type="line"/>
      <point x="298" y="532" type="line"/>
      <point x="298" y="110" type="line"/>
      <point x="288" y="108"/>
      <point x="279" y="107"/>
      <point x="271" y="107" type="curve" smooth="yes"/>
      <point x="219" y="107"/>
      <point x="201" y="138"/>
      <point x="201" y="225" type="curve" smooth="yes"/>
      <point x="201" y="532" type="line"/>
      <point x="63" y="532" type="line"/>
      <point x="63" y="219" type="line" smooth="yes"/>
      <point x="63" y="65"/>
      <point x="130" y="-10"/>
    </contour>
  </outline>
</glyph>
<glyph name="v" format="2">
  <advance width="426"/>
  <unicode hex="0076"/>
  <anchor x="215" y="0" name="bottom"/>
  <anchor x="215" y="527" name="top"/>
  <outline>
    <contour>
      <point x="143" y="0" type="curve"/>
      <point x="283" y="0" type="line"/>
      <point x="326.0" y="140.0"/>
      <point x="378.0" y="324.0"/>
      <point x="419" y="532" type="curve"/>
      <point x="278" y="532" type="line"/>
      <point x="266" y="430"/>
      <point x="239" y="278"/>
      <point x="215" y="172" type="curve"/>
      <point x="192" y="278"/>
      <point x="165" y="431"/>
      <point x="152" y="532" type="curve"/>
      <point x="7" y="532" type="line"/>
      <point x="48.0" y="324.0"/>
      <point x="100.0" y="139.99999999999997"/>
    </contour>
  </outline>
</glyph>
<glyph name="w" format="2">
  <advance width="593"/>
  <unicode hex="0077"/>
  <anchor x="291" y="0" name="bottom"/>
  <anchor x="291" y="527" name="top"/>
  <outline>
    <contour>
      <point x="104" y="0" type="curve"/>
      <point x="233" y="0" type="line"/>
      <point x="256" y="92"/>
      <point x="278" y="190"/>
      <point x="295" y="308" type="curve"/>
      <point x="313" y="190"/>
      <point x="335" y="92"/>
      <point x="358" y="0" type="curve"/>
      <point x="489" y="0" type="line"/>
      <point x="516" y="106"/>
      <point x="557" y="344"/>
      <point x="581" y="532" type="curve"/>
      <point x="445" y="532" type="line"/>
      <point x="438" y="424"/>
      <point x="422" y="286"/>
      <point x="405" y="165" type="curve"/>
      <point x="385" y="286"/>
      <point x="368" y="426"/>
      <point x="362" y="532" type="curve"/>
      <point x="238" y="532" type="line"/>
      <point x="231" y="426"/>
      <point x="213" y="284"/>
      <point x="188" y="163" type="curve"/>
      <point x="171" y="284"/>
      <point x="159" y="423"/>
      <point x="154" y="532" type="curve"/>
      <point x="12" y="532" type="line"/>
      <point x="36" y="344"/>
      <point x="77" y="106"/>
    </contour>
  </outline>
</glyph>
<glyph name="x" format="2">
  <advance width="423"/>
  <unicode hex="0078"/>
  <anchor x="207" y="0" name="bottom"/>
  <anchor x="207" y="527" name="top"/>
  <outline>
    <contour>
      <point x="10" y="0" type="curve"/>
      <point x="146" y="0" type="line"/>
      <point x="161" y="56"/>
      <point x="178" y="102"/>
      <point x="208" y="167" type="curve"/>
      <point x="239" y="99"/>
      <point x="256" y="52"/>
      <point x="270" y="0" type="curve"/>
      <point x="413" y="0" type="line"/>
      <point x="382" y="85"/>
      <point x="353" y="154"/>
      <point x="299" y="265" type="curve"/>
      <point x="411" y="532" type="line"/>
      <point x="274" y="532" type="line"/>
      <point x="216" y="362" type="line"/>
      <point x="155" y="532" type="line"/>
      <point x="12" y="532" type="line"/>
      <point x="124" y="265" type="line"/>
      <point x="70" y="154"/>
      <point x="41" y="85"/>
    </contour>
  </outline>
</glyph>
<glyph name="y" format="2">
  <advance width="426"/>
  <unicode hex="0079"/>
  <anchor x="218" y="0" name="bottom"/>
  <anchor x="218" y="527" name="top"/>
  <outline>
    <contour>
      <point x="79" y="-188" type="curve" smooth="yes"/>
      <point x="185" y="-188"/>
      <point x="233" y="-147"/>
      <point x="283" y="0" type="curve" smooth="yes"/>
      <point x="333" y="147"/>
      <point x="378" y="333"/>
      <point x="419" y="532" type="curve"/>
      <point x="278" y="532" type="line"/>
      <point x="267" y="428"/>
      <point x="243" y="285"/>
      <point x="216" y="163" type="curve"/>
      <point x="188" y="286"/>
      <point x="163" y="430"/>
      <point x="152" y="532" type="curve"/>
      <point x="7" y="532" type="line"/>
      <point x="40" y="368"/>
      <point x="86" y="195"/>
      <point x="147" y="3" type="curve"/>
      <point x="132.18696484974487" y="-53.28953357096953"/>
      <point x="104.0" y="-71.0"/>
      <point x="74" y="-71" type="curve" smooth="yes"/>
      <point x="56.0" y="-71.0"/>
      <point x="35" y="-68"/>
      <point x="19" y="-60" type="curve"/>
      <point x="-3" y="-169" type="line"/>
      <point x="10" y="-179"/>
      <point x="41" y="-188"/>
    </contour>
  </outline>
</glyph>
<glyph name="z" format="2">
  <advance width="361"/>
  <unicode hex="007A"/>
  <anchor x="184" y="0" name="bottom"/>
  <anchor x="184" y="263" name="center"/>
  <anchor x="184" y="527" name="top"/>
  <outline>
    <contour>
      <point x="27" y="0" type="line"/>
      <point x="339" y="0" type="line"/>
      <point x="339" y="113" type="line"/>
      <point x="173" y="113" type="line"/>
      <point x="225" y="230"/>
      <point x="288" y="355"/>
      <point x="331" y="426" type="curve"/>
      <point x="331" y="532" type="line"/>
      <point x="39" y="532" type="line"/>
      <point x="39" y="419" type="line"/>
      <point x="184" y="419" type="line"/>
      <point x="126" y="314"/>
      <point x="63" y="183"/>
      <point x="27" y="94" type="curve"/>
    </contour>
  </outline>
</glyph>
<glyph name="braceleft" format="2">
  <advance width="282"/>
  <unicode hex="007B"/>
  <outline>
    <contour>
      <point x="277.0" y="-184" type="curve" smooth="yes"/>
      <point x="277.0" y="-184" type="line"/>
      <point x="277.0" y="-77" type="line"/>
      <point x="277.0" y="-77" type="line"/>
      <point x="231" y="-77"/>
      <point x="212.0" y="-53"/>
      <point x="212" y="-17" type="curve" smooth="yes"/>
      <point x="212" y="149" type="line" smooth="yes"/>
      <point x="212" y="222"/>
      <point x="190" y="269"/>
      <point x="142" y="299" type="curve"/>
      <point x="190" y="329"/>
      <point x="212" y="377"/>
      <point x="212" y="450" type="curve" smooth="yes"/>
      <point x="212" y="616" type="line" smooth="yes"/>
      <point x="212" y="654"/>
      <point x="229" y="676.0"/>
      <point x="277.0" y="676" type="curve" smooth="yes"/>
      <point x="277.0" y="676" type="line"/>
      <point x="277.0" y="783" type="line"/>
      <point x="277.0" y="783" type="line"/>
      <point x="144.0" y="783"/>
      <point x="86" y="732"/>
      <point x="86" y="618" type="curve" smooth="yes"/>
      <point x="86" y="470" type="line"/>
      <point x="86" y="394"/>
      <point x="67" y="357"/>
      <point x="25" y="353" type="curve"/>
      <point x="25" y="246" type="line"/>
      <point x="66" y="242"/>
      <point x="86" y="204"/>
      <point x="86" y="128" type="curve" smooth="yes"/>
      <point x="86" y="-19" type="line" smooth="yes"/>
      <point x="86" y="-133"/>
      <point x="144.0" y="-184"/>
    </contour>
  </outline>
</glyph>
<glyph name="bar" format="2">
  <advance width="299.15"/>
  <unicode hex="007C"/>
  <outline>
    <contour>
      <point x="87" y="-185" type="line"/>
      <point x="212" y="-185" type="line"/>
      <point x="212" y="783" type="line"/>
      <point x="87" y="783" type="line"/>
    </contour>
  </outline>
</glyph>
<glyph name="braceright" format="2">
  <advance width="292"/>
  <unicode hex="007D"/>
  <outline>
    <contour>
      <point x="7.0" y="-184.0" type="line"/>
      <point x="7.0" y="-184.0" type="line"/>
      <point x="140.0" y="-184.0"/>
      <point x="198.0" y="-133.0"/>
      <point x="198.0" y="-19.0" type="curve" smooth="yes"/>
      <point x="198.0" y="128.0" type="line" smooth="yes"/>
      <point x="198.0" y="204.0"/>
      <point x="218.0" y="242.0"/>
      <point x="259.0" y="246.0" type="curve"/>
      <point x="259.0" y="353.0" type="line"/>
      <point x="217.0" y="357.0"/>
      <point x="198.0" y="394.0"/>
      <point x="198.0" y="470.0" type="curve"/>
      <point x="198.0" y="618.0" type="line" smooth="yes"/>
      <point x="198.0" y="732.0"/>
      <point x="140.0" y="783.0"/>
      <point x="7.0" y="783.0" type="curve"/>
      <point x="7.0" y="783.0" type="line"/>
      <point x="7.0" y="676.0" type="line"/>
      <point x="7.0" y="676.0" type="line" smooth="yes"/>
      <point x="55.0" y="676.0"/>
      <point x="72.0" y="654.0"/>
      <point x="72.0" y="616.0" type="curve" smooth="yes"/>
      <point x="72.0" y="450.0" type="line" smooth="yes"/>
      <point x="72.0" y="377.0"/>
      <point x="94.0" y="329.0"/>
      <point x="142.0" y="299.0" type="curve"/>
      <point x="94.0" y="269.0"/>
      <point x="72.0" y="222.0"/>
      <point x="72.0" y="149.0" type="curve" smooth="yes"/>
      <point x="72.0" y="-17.0" type="line" smooth="yes"/>
      <point x="72.0" y="-53.0"/>
      <point x="53.0" y="-77.0"/>
      <point x="7.0" y="-77.0" type="curve"/>
      <point x="7.0" y="-77.0" type="line"/>
    </contour>
  </outline>
</glyph>
<glyph name="asciitilde" format="2">
  <advance width="434"/>
  <unicode hex="007E"/>
  <outline>
    <contour>
      <point x="289" y="207" type="curve"/>
      <point x="370" y="207"/>
      <point x="402" y="278"/>
      <point x="422" y="371" type="curve"/>
      <point x="333" y="398" type="line"/>
      <point x="321" y="340"/>
      <point x="306" y="330"/>
      <point x="286" y="330" type="curve"/>
      <point x="249.58278145695365" y="330.0"/>
      <point x="208.49668874172187" y="398.0"/>
      <point x="145" y="398" type="curve"/>
      <point x="64" y="398"/>
      <point x="32" y="327"/>
      <point x="12" y="234" type="curve"/>
      <point x="101" y="207" type="line"/>
      <point x="113" y="265"/>
      <point x="128" y="275"/>
      <point x="149" y="275" type="curve" smooth="yes"/>
      <point x="185.40000000000003" y="275.0"/>
      <point x="227.39999999999998" y="207.0"/>
    </contour>
  </outline>
</glyph>
<glyph name="brokenbar" format="2">
  <advance width="299.15"/>
  <unicode hex="00A6"/>
  <outline>
    <contour>
      <point x="87" y="388" type="line"/>
      <point x="212" y="388" type="line"/>
      <point x="212" y="783" type="line"/>
      <point x="87" y="783" type="line"/>
    </contour>
    <contour>
      <point x="87" y="-185" type="line"/>
      <point x="212" y="-185" type="line"/>
      <point x="212" y="213" type="line"/>
      <point x="87" y="213" type="line"/>
    </contour>
  </outline>
</glyph>
<glyph name="dieresis" format="2">
  <advance width="406"/>
  <unicode hex="00A8"/>
  <outline>
    <contour>
      <point x="297" y="605" type="curve" smooth="yes"/>
      <point x="336" y="605"/>
      <point x="371" y="633"/>
      <point x="371" y="678" type="curve" smooth="yes"/>
      <point x="371" y="722"/>
      <point x="336" y="751"/>
      <point x="297" y="751" type="curve" smooth="yes"/>
      <point x="257" y="751"/>
      <point x="222" y="722"/>
      <point x="222" y="678" type="curve" smooth="yes"/>
      <point x="222" y="633"/>
      <point x="257" y="605"/>
    </contour>
    <contour>
      <point x="109" y="605" type="curve" smooth="yes"/>
      <point x="148" y="605"/>
      <point x="183" y="633"/>
      <point x="183" y="678" type="curve" smooth="yes"/>
      <point x="183" y="722"/>
      <point x="148" y="751"/>
      <point x="109" y="751" type="curve" smooth="yes"/>
      <point x="69" y="751"/>
      <point x="35" y="722"/>
      <point x="35" y="678" type="curve" smooth="yes"/>
      <point x="35" y="633"/>
      <point x="69" y="605"/>
    </contour>
  </outline>
</glyph>
<glyph name="copyright" format="2">
  <advance width="686"/>
  <unicode hex="00A9"/>
  <outline>
    <contour>
      <point x="343" y="-15.0" type="curve" smooth="yes"/>
      <point x="528" y="-15"/>
      <point x="646" y="127"/>
      <point x="646" y="348" type="curve"/>
      <point x="646" y="569"/>
      <point x="528" y="710"/>
      <point x="343" y="710" type="curve"/>
      <point x="158" y="710"/>
      <point x="40" y="569"/>
      <point x="40" y="348" type="curve" smooth="yes"/>
      <point x="40" y="127"/>
      <point x="158" y="-15"/>
    </contour>
    <contour>
      <point x="357" y="154" type="curve"/>
      <point x="393" y="154"/>
      <point x="432" y="163"/>
      <point x="457" y="181" type="curve"/>
      <point x="434" y="264" type="line"/>
      <point x="414" y="250"/>
      <point x="395" y="245"/>
      <point x="372" y="245" type="curve"/>
      <point x="326" y="245"/>
      <point x="306" y="279"/>
      <point x="306" y="352" type="curve" smooth="yes"/>
      <point x="306" y="419"/>
      <point x="326" y="454"/>
      <point x="372" y="454" type="curve"/>
      <point x="394" y="454"/>
      <point x="412" y="447"/>
      <point x="427" y="436" type="curve"/>
      <point x="453" y="519" type="line"/>
      <point x="429" y="534"/>
      <point x="390" y="544"/>
      <point x="355" y="544" type="curve" smooth="yes"/>
      <point x="261" y="544"/>
      <point x="202" y="467"/>
      <point x="202" y="349" type="curve" smooth="yes"/>
      <point x="202" y="232"/>
      <point x="256" y="155"/>
    </contour>
    <contour>
      <point x="343" y="73" type="curve" smooth="yes"/>
      <point x="215" y="73"/>
      <point x="133" y="180"/>
      <point x="133" y="348" type="curve"/>
      <point x="133" y="515"/>
      <point x="215" y="622"/>
      <point x="343" y="622" type="curve" smooth="yes"/>
      <point x="471" y="622"/>
      <point x="553" y="515"/>
      <point x="553" y="348" type="curve"/>
      <point x="553" y="180"/>
      <point x="471" y="73"/>
    </contour>
  </outline>
</glyph>
<glyph name="logicalnot" format="2">
  <advance width="434"/>
  <unicode hex="00AC"/>
  <outline>
    <contour>
      <point x="280" y="126" type="line"/>
      <point x="394" y="126" type="line"/>
      <point x="394" y="406" type="line"/>
      <point x="40" y="406" type="line"/>
      <point x="40" y="296" type="line"/>
      <point x="280" y="296" type="line"/>
    </contour>
  </outline>
</glyph>
<glyph name="macron" format="2">
  <advance width="316"/>
  <unicode hex="00AF"/>
  <outline>
    <contour>
      <point x="33" y="625" type="line"/>
      <point x="283" y="625" type="line"/>
      <point x="283" y="728" type="line"/>
      <point x="33" y="728" type="line"/>
    </contour>
  </outline>
</glyph>
<glyph name="degree" format="2">
  <advance width="307"/>
  <unicode hex="00B0"/>
  <outline>
    <contour>
      <point x="153" y="496" type="curve" smooth="yes"/>
      <point x="214" y="496"/>
      <point x="292" y="543"/>
      <point x="292" y="630" type="curve" smooth="yes"/>
      <point x="292" y="723"/>
      <point x="216" y="764"/>
      <point x="153" y="764" type="curve" smooth="yes"/>
      <point x="93" y="764"/>
      <point x="15" y="718"/>
      <point x="15" y="630" type="curve" smooth="yes"/>
      <point x="15" y="538"/>
      <point x="91" y="496"/>
    </contour>
    <contour>
      <point x="153" y="583" type="curve" smooth="yes"/>
      <point x="131" y="583"/>
      <point x="107" y="597"/>
      <point x="107" y="630" type="curve" smooth="yes"/>
      <point x="107" y="663"/>
      <point x="131" y="678"/>
      <point x="153" y="678" type="curve" smooth="yes"/>
      <point x="175" y="678"/>
      <point x="200" y="663"/>
      <point x="200" y="630" type="curve" smooth="yes"/>
      <point x="200" y="597"/>
      <point x="175" y="583"/>
    </contour>
  </outline>
</glyph>
<glyph name="twosuperior" format="2">
  <advance width="290"/>
  <unicode hex="00B2"/>
  <outline>
    <contour>
      <point x="29" y="298" type="curve"/>
      <point x="265" y="298" type="line"/>
      <point x="265" y="388" type="line"/>
      <point x="149" y="388" type="line"/>
      <point x="161" y="411"/>
      <point x="171" y="426"/>
      <point x="202" y="463" type="curve" smooth="yes"/>
      <point x="233" y="500"/>
      <point x="264" y="533"/>
      <point x="264" y="587" type="curve"/>
      <point x="264" y="651"/>
      <point x="223" y="700"/>
      <point x="140" y="700" type="curve" smooth="yes"/>
      <point x="101" y="700"/>
      <point x="57" y="685"/>
      <point x="21" y="657" type="curve"/>
      <point x="66" y="585" type="line"/>
      <point x="88" y="603"/>
      <point x="105" y="610"/>
      <point x="124" y="610" type="curve"/>
      <point x="149" y="610"/>
      <point x="159" y="595"/>
      <point x="159" y="576" type="curve"/>
      <point x="159" y="556"/>
      <point x="146" y="534"/>
      <point x="104" y="483" type="curve" smooth="yes"/>
      <point x="62" y="432"/>
      <point x="28" y="372.0"/>
      <point x="28" y="312" type="curve" smooth="yes"/>
      <point x="28.0" y="307"/>
      <point x="28" y="302"/>
    </contour>
  </outline>
</glyph>
<glyph name="acute" format="2">
  <advance width="314"/>
  <unicode hex="00B4"/>
  <outline>
    <contour>
      <point x="162" y="578" type="line"/>
      <point x="295" y="707" type="line"/>
      <point x="204" y="785" type="line"/>
      <point x="94" y="639" type="line"/>
    </contour>
  </outline>
</glyph>
<glyph name="paragraph" format="2">
  <advance width="585"/>
  <unicode hex="00B6"/>
  <outline>
    <contour>
      <point x="205" y="-185" type="line"/>
      <point x="327" y="-185" type="line"/>
      <point x="327" y="590" type="line"/>
      <point x="347" y="590"/>
      <point x="374" y="588"/>
      <point x="389" y="586" type="curve"/>
      <point x="389" y="-185" type="line"/>
      <point x="510" y="-185" type="line"/>
      <point x="510" y="675" type="line"/>
      <point x="453" y="691"/>
      <point x="374" y="701"/>
      <point x="302" y="701" type="curve" smooth="yes"/>
      <point x="132" y="701"/>
      <point x="39" y="622"/>
      <point x="39" y="478" type="curve" smooth="yes"/>
      <point x="39" y="352"/>
      <point x="92" y="283"/>
      <point x="205" y="260" type="curve"/>
    </contour>
  </outline>
</glyph>
<glyph name="ordmasculine" format="2">
  <advance width="376"/>
  <unicode hex="00BA"/>
  <outline>
    <contour>
      <point x="188" y="317" type="curve" smooth="yes"/>
      <point x="281" y="317"/>
      <point x="346" y="381"/>
      <point x="346" y="513" type="curve" smooth="yes"/>
      <point x="346" y="650"/>
      <point x="281" y="712"/>
      <point x="188" y="712" type="curve" smooth="yes"/>
      <point x="95" y="712"/>
      <point x="30" y="650"/>
      <point x="30" y="513" type="curve" smooth="yes"/>
      <point x="30" y="380"/>
      <point x="95" y="317"/>
    </contour>
    <contour>
      <point x="188" y="409" type="curve" smooth="yes"/>
      <point x="151" y="409"/>
      <point x="132" y="442"/>
      <point x="132" y="513" type="curve" smooth="yes"/>
      <point x="132" y="589"/>
      <point x="152" y="620"/>
      <point x="188" y="620" type="curve" smooth="yes"/>
      <point x="225" y="620"/>
      <point x="243" y="589"/>
      <point x="243" y="513" type="curve" smooth="yes"/>
      <point x="243" y="442"/>
      <point x="225" y="409"/>
    </contour>
  </outline>
</glyph>
<glyph name="Aring" format="2">
  <advance width="540"/>
  <unicode hex="00C5"/>
  <outline>
    <contour>
      <point x="19" y="0" type="curve"/>
      <point x="162" y="0" type="line"/>
      <point x="168" y="44"/>
      <point x="176" y="93"/>
      <point x="186" y="146" type="curve"/>
      <point x="350" y="146" type="line"/>
      <point x="359" y="92"/>
      <point x="367" y="42"/>
      <point x="373" y="0" type="curve"/>
      <point x="521" y="0" type="line"/>
      <point x="478" y="215"/>
      <point x="417" y="445"/>
      <point x="346" y="677" type="curve"/>
      <point x="360" y="693"/>
      <point x="368" y="715"/>
      <point x="368" y="740" type="curve" smooth="yes"/>
      <point x="368" y="795"/>
      <point x="325" y="837"/>
      <point x="268" y="837" type="curve" smooth="yes"/>
      <point x="213" y="837"/>
      <point x="171" y="795"/>
      <point x="171" y="740" type="curve" smooth="yes"/>
      <point x="171" y="715"/>
      <point x="179" y="693"/>
      <point x="194" y="676" type="curve"/>
      <point x="123" y="445"/>
      <point x="62" y="215"/>
    </contour>
    <contour>
      <point x="208" y="261" type="line"/>
      <point x="226" y="354"/>
      <point x="248" y="451"/>
      <point x="269" y="539" type="curve"/>
      <point x="290" y="448"/>
      <point x="310" y="352"/>
      <point x="328" y="261" type="curve"/>
    </contour>
    <contour>
      <point x="270" y="701" type="curve" smooth="yes"/>
      <point x="246" y="701"/>
      <point x="231" y="716"/>
      <point x="231" y="740" type="curve" smooth="yes"/>
      <point x="231" y="764"/>
      <point x="246" y="779"/>
      <point x="270" y="779" type="curve" smooth="yes"/>
      <point x="295" y="779"/>
      <point x="310" y="764"/>
      <point x="310" y="740" type="curve" smooth="yes"/>
      <point x="310" y="716"/>
      <point x="295" y="701"/>
    </contour>
  </outline>
</glyph>
<glyph name="Ccedilla" format="2">
  <advance width="494"/>
  <unicode hex="00C7"/>
  <outline>
    <contour>
      <point x="256" y="-192" type="curve" smooth="yes"/>
      <point x="354" y="-192"/>
      <point x="373" y="-140"/>
      <point x="373" y="-107" type="curve" smooth="yes"/>
      <point x="373" y="-68"/>
      <point x="354" y="-52"/>
      <point x="322" y="-40" type="curve"/>
      <point x="323" y="-37"/>
      <point x="322" y="-30"/>
      <point x="326" y="-25" type="curve"/>
      <point x="307" y="-23"/>
      <point x="304" y="-23"/>
      <point x="298" y="-23" type="curve"/>
      <point x="434" y="-23"/>
      <point x="495" y="22"/>
      <point x="482" y="27" type="curve"/>
      <point x="442" y="144" type="line"/>
      <point x="433" y="129"/>
      <point x="408" y="101"/>
      <point x="312" y="101" type="curve" smooth="yes"/>
      <point x="209" y="101"/>
      <point x="202" y="187"/>
      <point x="202" y="360" type="curve" smooth="yes"/>
      <point x="202" y="524"/>
      <point x="200" y="593"/>
      <point x="314" y="593" type="curve" smooth="yes"/>
      <point x="382" y="593"/>
      <point x="405" y="561"/>
      <point x="427" y="545" type="curve"/>
      <point x="469" y="669" type="line"/>
      <point x="469" y="671"/>
      <point x="402" y="717"/>
      <point x="290" y="717" type="curve" smooth="yes"/>
      <point x="190" y="717"/>
      <point x="49" y="655"/>
      <point x="49" y="357" type="curve" smooth="yes"/>
      <point x="49" y="111"/>
      <point x="134" y="10"/>
      <point x="244" y="-17" type="curve"/>
      <point x="233" y="-40"/>
      <point x="220" y="-69"/>
      <point x="219" y="-87" type="curve"/>
      <point x="241" y="-95"/>
      <point x="254" y="-96"/>
      <point x="254" y="-100" type="curve" smooth="yes"/>
      <point x="254" y="-107"/>
      <point x="244" y="-107"/>
      <point x="242" y="-107" type="curve" smooth="yes"/>
      <point x="208" y="-107"/>
      <point x="198" y="-103"/>
      <point x="185" y="-98" type="curve"/>
      <point x="170" y="-178" type="line"/>
      <point x="182" y="-184"/>
      <point x="228" y="-192"/>
    </contour>
  </outline>
</glyph>
<glyph name="Eth" format="2">
  <advance width="612.85"/>
  <unicode hex="00D0"/>
  <outline>
    <contour>
      <point x="255" y="-10" type="curve" smooth="yes"/>
      <point x="419" y="-10"/>
      <point x="565" y="68"/>
      <point x="565" y="347" type="curve" smooth="yes"/>
      <point x="565" y="626"/>
      <point x="416" y="704"/>
      <point x="270" y="704" type="curve" smooth="yes"/>
      <point x="224" y="704"/>
      <point x="171" y="697"/>
      <point x="96" y="681" type="curve"/>
      <point x="96" y="398" type="line"/>
      <point x="5" y="398" type="line"/>
      <point x="5" y="297" type="line"/>
      <point x="96" y="297" type="line"/>
      <point x="96" y="11" type="line"/>
      <point x="159" y="-6"/>
      <point x="210" y="-10"/>
    </contour>
    <contour>
      <point x="271" y="112" type="curve" smooth="yes"/>
      <point x="214" y="112"/>
      <point x="220" y="118"/>
      <point x="238" y="114" type="curve"/>
      <point x="238" y="297" type="line"/>
      <point x="323" y="297" type="line"/>
      <point x="323" y="398" type="line"/>
      <point x="238" y="398" type="line"/>
      <point x="238" y="582" type="line"/>
      <point x="220" y="578"/>
      <point x="200" y="582"/>
      <point x="287" y="582" type="curve" smooth="yes"/>
      <point x="389" y="582"/>
      <point x="412" y="502"/>
      <point x="412" y="347" type="curve" smooth="yes"/>
      <point x="412" y="182"/>
      <point x="387" y="112"/>
    </contour>
  </outline>
</glyph>
<glyph name="multiply" format="2">
  <advance width="434"/>
  <unicode hex="00D7"/>
  <outline>
    <contour>
      <point x="113" y="120" type="line"/>
      <point x="217" y="224" type="line"/>
      <point x="321" y="120" type="line"/>
      <point x="401" y="200" type="line"/>
      <point x="297" y="304" type="line"/>
      <point x="401" y="409" type="line"/>
      <point x="321" y="489" type="line"/>
      <point x="217" y="385" type="line"/>
      <point x="113" y="489" type="line"/>
      <point x="33" y="409" type="line"/>
      <point x="137" y="304" type="line"/>
      <point x="33" y="200" type="line"/>
    </contour>
  </outline>
</glyph>
<glyph name="germandbls" format="2">
  <advance width="530"/>
  <unicode hex="00DF"/>
  <anchor x="265" y="0" name="bottom"/>
  <anchor x="265" y="776" name="top"/>
  <outline>
    <contour>
      <point x="329" y="-12" type="curve"/>
      <point x="440" y="-12"/>
      <point x="502" y="66"/>
      <point x="502" y="160" type="curve"/>
      <point x="502" y="218"/>
      <point x="479" y="259"/>
      <point x="436" y="310" type="curve" smooth="yes"/>
      <point x="393" y="360.0"/>
      <point x="376" y="380"/>
      <point x="376" y="417" type="curve"/>
      <point x="376" y="442"/>
      <point x="394" y="473"/>
      <point x="414" y="505" type="curve" smooth="yes"/>
      <point x="434.0" y="537.0"/>
      <point x="448" y="568"/>
      <point x="448" y="622" type="curve" smooth="yes"/>
      <point x="448" y="705"/>
      <point x="386" y="776"/>
      <point x="270" y="776" type="curve"/>
      <point x="138" y="776"/>
      <point x="69" y="707"/>
      <point x="69" y="567" type="curve" smooth="yes"/>
      <point x="69" y="0" type="line"/>
      <point x="207" y="0" type="line"/>
      <point x="207" y="574" type="line" smooth="yes"/>
      <point x="207" y="629"/>
      <point x="226" y="659"/>
      <point x="265" y="659" type="curve"/>
      <point x="297" y="659"/>
      <point x="319" y="640"/>
      <point x="319" y="600" type="curve"/>
      <point x="319" y="566"/>
      <point x="311" y="543"/>
      <point x="286" y="500" type="curve" smooth="yes"/>
      <point x="261" y="457"/>
      <point x="248" y="430"/>
      <point x="248" y="395" type="curve"/>
      <point x="248" y="355"/>
      <point x="266" y="321"/>
      <point x="310" y="274" type="curve" smooth="yes"/>
      <point x="357" y="224"/>
      <point x="364" y="199"/>
      <point x="364" y="168" type="curve"/>
      <point x="364" y="123"/>
      <point x="344" y="98"/>
      <point x="308" y="98" type="curve"/>
      <point x="294" y="98"/>
      <point x="280" y="101"/>
      <point x="267" y="107" type="curve"/>
      <point x="246" y="3" type="line"/>
      <point x="276" y="-7"/>
      <point x="295" y="-12"/>
    </contour>
  </outline>
</glyph>
<glyph name="eth" format="2">
  <advance width="482.775"/>
  <unicode hex="00F0"/>
  <anchor x="241" y="0" name="bottom"/>
  <anchor x="241" y="776" name="top"/>
  <outline>
    <contour>
      <point x="230" y="-21" type="curve" smooth="yes"/>
      <point x="464" y="-21"/>
      <point x="439" y="226"/>
      <point x="439" y="278" type="curve" smooth="yes"/>
      <point x="439" y="394"/>
      <point x="416" y="509"/>
      <point x="379" y="604" type="curve"/>
      <point x="466" y="644" type="line"/>
      <point x="429" y="730" type="line"/>
      <point x="331" y="685" type="line"/>
      <point x="313" y="718"/>
      <point x="292" y="749"/>
      <point x="273" y="775" type="curve"/>
      <point x="179" y="707" type="line"/>
      <point x="189" y="684"/>
      <point x="204" y="658"/>
      <point x="215" y="635" type="curve"/>
      <point x="166" y="611" type="line"/>
      <point x="203" y="525" type="line"/>
      <point x="260" y="552" type="line"/>
      <point x="261" y="522"/>
      <point x="268" y="500"/>
      <point x="270" y="507" type="curve"/>
      <point x="281" y="478"/>
      <point x="272" y="496"/>
      <point x="235" y="496" type="curve" smooth="yes"/>
      <point x="130" y="496"/>
      <point x="44" y="427"/>
      <point x="44" y="243" type="curve" smooth="yes"/>
      <point x="44" y="98"/>
      <point x="100" y="-21"/>
    </contour>
    <contour>
      <point x="231" y="99" type="curve" smooth="yes"/>
      <point x="193" y="99"/>
      <point x="188" y="153"/>
      <point x="188" y="241" type="curve" smooth="yes"/>
      <point x="188" y="314"/>
      <point x="184" y="382"/>
      <point x="243" y="382" type="curve" smooth="yes"/>
      <point x="261" y="382"/>
      <point x="274" y="384"/>
      <point x="290" y="381" type="curve"/>
      <point x="294" y="339"/>
      <point x="296" y="294"/>
      <point x="296" y="282" type="curve" smooth="yes"/>
      <point x="296" y="247"/>
      <point x="337" y="99"/>
    </contour>
  </outline>
</glyph>
<glyph name="divide" format="2">
  <advance width="430"/>
  <unicode hex="00F7"/>
  <outline>
    <contour>
      <point x="38" y="243" type="line"/>
      <point x="392" y="243" type="line"/>
      <point x="392" y="356" type="line"/>
      <point x="38" y="356" type="line"/>
    </contour>
    <contour>
      <point x="216" y="61" type="curve" smooth="yes"/>
      <point x="260" y="61"/>
      <point x="295" y="95"/>
      <point x="295" y="136" type="curve" smooth="yes"/>
      <point x="295" y="179"/>
      <point x="260" y="214"/>
      <point x="216" y="214" type="curve" smooth="yes"/>
      <point x="174" y="214"/>
      <point x="140" y="179"/>
      <point x="140" y="136" type="curve" smooth="yes"/>
      <point x="140" y="95"/>
      <point x="174" y="61"/>
    </contour>
    <contour>
      <point x="216" y="387" type="curve" smooth="yes"/>
      <point x="260" y="387"/>
      <point x="295" y="420"/>
      <point x="295" y="463" type="curve" smooth="yes"/>
      <point x="295" y="504"/>
      <point x="260" y="539"/>
      <point x="216" y="539" type="curve" smooth="yes"/>
      <point x="174" y="539"/>
      <point x="140" y="504"/>
      <point x="140" y="463" type="curve" smooth="yes"/>
      <point x="140" y="420"/>
      <point x="174" y="387"/>
    </contour>
  </outline>
</glyph>
<glyph name="oslash" format="2">
  <advance width="486"/>
  <unicode hex="00F8"/>
  <anchor x="243" y="527" name="top"/>
  <outline>
    <contour>
      <point x="121" y="-39" type="line"/>
      <point x="149" y="10" type="line"/>
      <point x="176" y="-6"/>
      <point x="207" y="-14"/>
      <point x="243" y="-14" type="curve" smooth="yes"/>
      <point x="370" y="-14"/>
      <point x="443" y="88"/>
      <point x="443" y="266" type="curve" smooth="yes"/>
      <point x="443" y="342"/>
      <point x="430" y="405"/>
      <point x="404" y="451" type="curve"/>
      <point x="443" y="518" type="line"/>
      <point x="367" y="570" type="line"/>
      <point x="338" y="521" type="line"/>
      <point x="311" y="538"/>
      <point x="279" y="546"/>
      <point x="243" y="546" type="curve" smooth="yes"/>
      <point x="116" y="546"/>
      <point x="43" y="444"/>
      <point x="43" y="266" type="curve" smooth="yes"/>
      <point x="43" y="190"/>
      <point x="56" y="127"/>
      <point x="82" y="81" type="curve"/>
      <point x="43" y="14" type="line"/>
    </contour>
    <contour>
      <point x="243" y="95" type="curve" smooth="yes"/>
      <point x="225" y="95"/>
      <point x="211" y="102"/>
      <point x="201" y="118" type="curve"/>
      <point x="308" y="304" type="line"/>
      <point x="309" y="292"/>
      <point x="309" y="280"/>
      <point x="309" y="266" type="curve" smooth="yes"/>
      <point x="309" y="142"/>
      <point x="291" y="95"/>
    </contour>
    <contour>
      <point x="178" y="232" type="line"/>
      <point x="177" y="242"/>
      <point x="177" y="254"/>
      <point x="177" y="266" type="curve" smooth="yes"/>
      <point x="177" y="389"/>
      <point x="196" y="437"/>
      <point x="243" y="437" type="curve" smooth="yes"/>
      <point x="261" y="437"/>
      <point x="274" y="430"/>
      <point x="285" y="415" type="curve"/>
    </contour>
  </outline>
</glyph>
<glyph name="thorn" format="2">
  <advance width="492.125"/>
  <unicode hex="00FE"/>
  <anchor x="247" y="0" name="bottom"/>
  <anchor x="247" y="527" name="top"/>
  <outline>
    <contour>
      <point x="70" y="-183" type="line"/>
      <point x="208" y="-183" type="line"/>
      <point x="208" y="-18" type="line"/>
      <point x="202" y="-4"/>
      <point x="215" y="-21"/>
      <point x="265" y="-21" type="curve" smooth="yes"/>
      <point x="405" y="-21"/>
      <point x="452" y="85"/>
      <point x="452" y="252" type="curve" smooth="yes"/>
      <point x="452" y="447"/>
      <point x="360" y="541"/>
      <point x="220" y="541" type="curve" smooth="yes"/>
      <point x="228" y="541"/>
      <point x="242" y="562"/>
      <point x="208" y="574" type="curve"/>
      <point x="208" y="776" type="line"/>
      <point x="70" y="754" type="line"/>
    </contour>
    <contour>
      <point x="243" y="100" type="curve" smooth="yes"/>
      <point x="213" y="100"/>
      <point x="206" y="116"/>
      <point x="208" y="106" type="curve"/>
      <point x="208" y="463" type="line"/>
      <point x="198" y="435"/>
      <point x="201" y="420"/>
      <point x="197" y="420" type="curve" smooth="yes"/>
      <point x="259" y="420"/>
      <point x="307" y="394"/>
      <point x="307" y="253" type="curve" smooth="yes"/>
      <point x="307" y="159"/>
      <point x="314" y="100"/>
    </contour>
  </outline>
</glyph>
<glyph name="Aogonek" format="2">
  <advance width="540"/>
  <unicode hex="0104"/>
  <outline>
    <contour>
      <point x="456" y="-208" type="curve" smooth="yes"/>
      <point x="485" y="-208"/>
      <point x="518" y="-204"/>
      <point x="545" y="-193" type="curve"/>
      <point x="536" y="-100" type="line"/>
      <point x="517" y="-107"/>
      <point x="504" y="-108"/>
      <point x="492" y="-108" type="curve" smooth="yes"/>
      <point x="468" y="-108"/>
      <point x="456" y="-97"/>
      <point x="456" y="-75" type="curve"/>
      <point x="456" y="-55"/>
      <point x="470" y="-33"/>
      <point x="521" y="0" type="curve"/>
      <point x="477" y="220"/>
      <point x="414" y="456"/>
      <point x="341" y="693" type="curve"/>
      <point x="199" y="693" type="line"/>
      <point x="126" y="456"/>
      <point x="63" y="220"/>
      <point x="19" y="0" type="curve"/>
      <point x="162" y="0" type="line"/>
      <point x="168" y="44"/>
      <point x="176" y="93"/>
      <point x="186" y="146" type="curve"/>
      <point x="350" y="146" type="line"/>
      <point x="359" y="92"/>
      <point x="367" y="42"/>
      <point x="373" y="0" type="curve"/>
      <point x="409" y="0" type="line"/>
      <point x="366" y="-34"/>
      <point x="340" y="-69"/>
      <point x="340" y="-113" type="curve" smooth="yes"/>
      <point x="340" y="-172"/>
      <point x="386" y="-208"/>
    </contour>
    <contour>
      <point x="208" y="261" type="line"/>
      <point x="226" y="354"/>
      <point x="248" y="451"/>
      <point x="269" y="539" type="curve"/>
      <point x="290" y="448"/>
      <point x="310" y="352"/>
      <point x="328" y="261" type="curve"/>
    </contour>
  </outline>
</glyph>
<glyph name="eogonek" format="2">
  <advance width="462"/>
  <unicode hex="0119"/>
  <anchor x="231" y="527" name="top"/>
  <outline>
    <contour>
      <point x="312" y="-208" type="curve" smooth="yes"/>
      <point x="341" y="-208"/>
      <point x="374" y="-204"/>
      <point x="401" y="-193" type="curve"/>
      <point x="392" y="-100" type="line"/>
      <point x="373" y="-107"/>
      <point x="360" y="-108"/>
      <point x="348" y="-108" type="curve" smooth="yes"/>
      <point x="324" y="-108"/>
      <point x="312" y="-97"/>
      <point x="312" y="-75" type="curve"/>
      <point x="312" y="-53"/>
      <point x="329" y="-29"/>
      <point x="397" y="11" type="curve"/>
      <point x="381" y="119" type="line"/>
      <point x="359" y="109"/>
      <point x="325" y="106"/>
      <point x="290" y="106" type="curve" smooth="yes"/>
      <point x="222" y="106"/>
      <point x="186" y="145"/>
      <point x="185" y="215" type="curve"/>
      <point x="417" y="215" type="line"/>
      <point x="418" y="233"/>
      <point x="419" y="251"/>
      <point x="419" y="272" type="curve"/>
      <point x="419" y="439"/>
      <point x="357" y="546"/>
      <point x="238" y="546" type="curve" smooth="yes"/>
      <point x="119" y="546"/>
      <point x="43" y="440"/>
      <point x="43" y="259" type="curve" smooth="yes"/>
      <point x="43" y="93"/>
      <point x="117" y="-14"/>
      <point x="250" y="-14" type="curve" smooth="yes"/>
      <point x="251" y="-14"/>
      <point x="252" y="-14"/>
      <point x="253" y="-14" type="curve"/>
      <point x="219" y="-44"/>
      <point x="196" y="-75"/>
      <point x="196" y="-113" type="curve" smooth="yes"/>
      <point x="196" y="-172"/>
      <point x="242" y="-208"/>
    </contour>
    <contour>
      <point x="184" y="312" type="line"/>
      <point x="186" y="400"/>
      <point x="200" y="435"/>
      <point x="234" y="435" type="curve"/>
      <point x="268" y="435"/>
      <point x="285" y="402"/>
      <point x="287" y="312" type="curve"/>
    </contour>
  </outline>
</glyph>
<glyph name="Hbar" format="2">
  <advance width="608"/>
  <unicode hex="0126"/>
  <outline>
    <contour>
      <point x="83" y="0" type="line"/>
      <point x="225" y="0" type="line"/>
      <point x="225" y="290" type="line"/>
      <point x="383" y="290" type="line"/>
      <point x="383" y="0" type="line"/>
      <point x="525" y="0" type="line"/>
      <point x="525" y="508" type="line"/>
      <point x="588" y="508" type="line"/>
      <point x="588" y="607" type="line"/>
      <point x="525" y="607" type="line"/>
      <point x="525" y="693" type="line"/>
      <point x="383" y="693" type="line"/>
      <point x="383" y="607" type="line"/>
      <point x="225" y="607" type="line"/>
      <point x="225" y="693" type="line"/>
      <point x="83" y="693" type="line"/>
      <point x="83" y="607" type="line"/>
      <point x="20" y="607" type="line"/>
      <point x="20" y="508" type="line"/>
      <point x="83" y="508" type="line"/>
    </contour>
    <contour>
      <point x="225" y="410" type="line"/>
      <point x="225" y="508" type="line"/>
      <point x="383" y="508" type="line"/>
      <point x="383" y="410" type="line"/>
    </contour>
  </outline>
</glyph>
<glyph name="Iogonek" format="2">
  <advance width="298"/>
  <unicode hex="012E"/>
  <outline>
    <contour>
      <point x="154" y="-208" type="curve" smooth="yes"/>
      <point x="183" y="-208"/>
      <point x="216" y="-204"/>
      <point x="243" y="-193" type="curve"/>
      <point x="234" y="-100" type="line"/>
      <point x="215" y="-107"/>
      <point x="202" y="-108"/>
      <point x="190" y="-108" type="curve" smooth="yes"/>
      <point x="166" y="-108"/>
      <point x="154" y="-97"/>
      <point x="154" y="-75" type="curve"/>
      <point x="154" y="-55"/>
      <point x="168" y="-33"/>
      <point x="220" y="0" type="curve"/>
      <point x="220" y="693" type="line"/>
      <point x="78" y="693" type="line"/>
      <point x="78" y="0" type="line"/>
      <point x="107" y="0" type="line"/>
      <point x="64" y="-34"/>
      <point x="38" y="-69"/>
      <point x="38" y="-113" type="curve" smooth="yes"/>
      <point x="38" y="-172"/>
      <point x="84" y="-208"/>
    </contour>
  </outline>
</glyph>
<glyph name="iogonek" format="2">
  <advance width="270.475"/>
  <unicode hex="012F"/>
  <outline>
    <contour>
      <point x="117" y="-187" type="curve" smooth="yes"/>
      <point x="148" y="-187"/>
      <point x="185" y="-178"/>
      <point x="196" y="-173" type="curve"/>
      <point x="188" y="-80" type="line"/>
      <point x="179" y="-86"/>
      <point x="160" y="-88"/>
      <point x="143" y="-88" type="curve" smooth="yes"/>
      <point x="134" y="-88"/>
      <point x="114" y="-87"/>
      <point x="114" y="-68" type="curve" smooth="yes"/>
      <point x="114" y="-30"/>
      <point x="167" y="-10"/>
      <point x="204" y="0" type="curve"/>
      <point x="204" y="532" type="line"/>
      <point x="66" y="532" type="line"/>
      <point x="66" y="11" type="line"/>
      <point x="66" y="11" type="line"/>
      <point x="46" y="6"/>
      <point x="-18" y="-35"/>
      <point x="-18" y="-106" type="curve" smooth="yes"/>
      <point x="-18" y="-153"/>
      <point x="19" y="-187"/>
    </contour>
    <contour>
      <point x="134" y="596" type="curve" smooth="yes"/>
      <point x="179" y="596"/>
      <point x="217" y="629"/>
      <point x="217" y="680" type="curve" smooth="yes"/>
      <point x="217" y="731"/>
      <point x="179" y="764"/>
      <point x="134" y="764" type="curve" smooth="yes"/>
      <point x="90" y="764"/>
      <point x="52" y="731"/>
      <point x="52" y="680" type="curve" smooth="yes"/>
      <point x="52" y="629"/>
      <point x="90" y="596"/>
    </contour>
  </outline>
</glyph>
<glyph name="dotlessi" format="2">
  <advance width="276"/>
  <unicode hex="0131"/>
  <anchor x="139" y="0" name="bottom"/>
  <anchor x="246" y="10" name="ogonek"/>
  <anchor x="139" y="527" name="top"/>
  <outline>
    <contour>
      <point x="69" y="0" type="line"/>
      <point x="207" y="0" type="line"/>
      <point x="207" y="532" type="line"/>
      <point x="69" y="532" type="line"/>
    </contour>
  </outline>
</glyph>
<glyph name="Lslash" format="2">
  <advance width="472"/>
  <unicode hex="0141"/>
  <outline>
    <contour>
      <point x="95" y="0" type="line"/>
      <point x="448" y="0" type="line"/>
      <point x="448" y="119" type="line"/>
      <point x="237" y="119" type="line"/>
      <point x="237" y="337" type="line"/>
      <point x="377" y="414" type="line"/>
      <point x="331" y="502" type="line"/>
      <point x="237" y="451" type="line"/>
      <point x="237" y="693" type="line"/>
      <point x="95" y="693" type="line"/>
      <point x="95" y="373" type="line"/>
      <point x="6" y="325" type="line"/>
      <point x="55" y="237" type="line"/>
      <point x="95" y="259" type="line"/>
    </contour>
  </outline>
</glyph>
<glyph name="lslash" format="2">
  <advance width="332"/>
  <unicode hex="0142"/>
  <outline>
    <contour>
      <point x="276" y="-14" type="curve"/>
      <point x="292" y="98" type="line"/>
      <point x="243" y="101"/>
      <point x="227" y="117"/>
      <point x="227" y="160" type="curve" smooth="yes"/>
      <point x="227" y="385" type="line"/>
      <point x="340" y="445" type="line"/>
      <point x="295" y="535" type="line"/>
      <point x="227" y="499" type="line"/>
      <point x="227" y="776" type="line"/>
      <point x="89" y="754" type="line"/>
      <point x="89" y="425" type="line"/>
      <point x="-5" y="375" type="line"/>
      <point x="40" y="285" type="line"/>
      <point x="89" y="311" type="line"/>
      <point x="89" y="158" type="line" smooth="yes"/>
      <point x="89" y="44"/>
      <point x="150" y="-10"/>
    </contour>
  </outline>
</glyph>
<glyph name="Eng" format="2">
  <advance width="607"/>
  <unicode hex="014A"/>
  <anchor x="299" y="0" name="bottom"/>
  <anchor x="299" y="693" name="top"/>
  <outline>
    <contour>
      <point x="78" y="0" type="line"/>
      <point x="211" y="0" type="line"/>
      <point x="211" y="429" type="line"/>
      <point x="288" y="286"/>
      <point x="354" y="151"/>
      <point x="396" y="48" type="curve"/>
      <point x="396" y="-18" type="line" smooth="yes"/>
      <point x="396" y="-54"/>
      <point x="386" y="-68"/>
      <point x="360" y="-68" type="curve"/>
      <point x="346" y="-68"/>
      <point x="336" y="-68"/>
      <point x="322" y="-63" type="curve"/>
      <point x="303" y="-176" type="line"/>
      <point x="325" y="-185"/>
      <point x="349" y="-188"/>
      <point x="373" y="-188" type="curve" smooth="yes"/>
      <point x="481" y="-188"/>
      <point x="529" y="-124"/>
      <point x="529" y="-18" type="curve" smooth="yes"/>
      <point x="529" y="693" type="line"/>
      <point x="396" y="693" type="line"/>
      <point x="396" y="310" type="line"/>
      <point x="339" y="437"/>
      <point x="263" y="575"/>
      <point x="193" y="693" type="curve"/>
      <point x="78" y="693" type="line"/>
    </contour>
  </outline>
</glyph>
<glyph name="OE" format="2">
  <advance width="767.725"/>
  <unicode hex="0152"/>
  <anchor x="383" y="0" name="bottom"/>
  <anchor x="383" y="693" name="top"/>
  <outline>
    <contour>
      <point x="374" y="0" type="curve" smooth="yes"/>
      <point x="355" y="0"/>
      <point x="397" y="1"/>
      <point x="407" y="0" type="curve"/>
      <point x="741" y="0" type="line"/>
      <point x="741" y="119" type="line"/>
      <point x="516" y="119" type="line"/>
      <point x="516" y="306" type="line"/>
      <point x="706" y="306" type="line"/>
      <point x="706" y="421" type="line"/>
      <point x="516" y="421" type="line"/>
      <point x="516" y="574" type="line"/>
      <point x="727" y="574" type="line"/>
      <point x="727" y="693" type="line"/>
      <point x="416" y="693" type="line"/>
      <point x="378" y="696"/>
      <point x="375" y="694"/>
      <point x="373" y="694" type="curve" smooth="yes"/>
      <point x="185" y="694"/>
      <point x="54" y="606"/>
      <point x="54" y="347" type="curve" smooth="yes"/>
      <point x="54" y="128"/>
      <point x="150" y="0"/>
    </contour>
    <contour>
      <point x="359" y="122" type="curve" smooth="yes"/>
      <point x="218" y="122"/>
      <point x="207" y="212"/>
      <point x="207" y="347" type="curve" smooth="yes"/>
      <point x="207" y="542"/>
      <point x="280" y="572"/>
      <point x="357" y="572" type="curve" smooth="yes"/>
      <point x="407" y="572"/>
      <point x="393" y="566"/>
      <point x="374" y="577" type="curve"/>
      <point x="374" y="114" type="line"/>
      <point x="420" y="128"/>
      <point x="417" y="122"/>
    </contour>
  </outline>
</glyph>
<glyph name="Scedilla" format="2">
  <advance width="428.475"/>
  <unicode hex="015E"/>
  <outline>
    <contour>
      <point x="163" y="-192" type="curve" smooth="yes"/>
      <point x="261" y="-192"/>
      <point x="280" y="-140"/>
      <point x="280" y="-107" type="curve" smooth="yes"/>
      <point x="280" y="-68"/>
      <point x="261" y="-52"/>
      <point x="229" y="-40" type="curve"/>
      <point x="228" y="-34"/>
      <point x="232" y="-28"/>
      <point x="237" y="-19" type="curve"/>
      <point x="344" y="-2"/>
      <point x="416" y="74"/>
      <point x="416" y="173" type="curve" smooth="yes"/>
      <point x="416" y="356"/>
      <point x="276" y="381"/>
      <point x="250" y="410" type="curve" smooth="yes"/>
      <point x="262" y="421"/>
      <point x="172" y="439"/>
      <point x="172" y="527" type="curve" smooth="yes"/>
      <point x="172" y="585"/>
      <point x="225" y="599"/>
      <point x="248" y="599" type="curve" smooth="yes"/>
      <point x="295" y="599"/>
      <point x="330" y="583"/>
      <point x="350" y="560" type="curve"/>
      <point x="394" y="675" type="line"/>
      <point x="371" y="692"/>
      <point x="320" y="717"/>
      <point x="240" y="717" type="curve" smooth="yes"/>
      <point x="123" y="717"/>
      <point x="30" y="635"/>
      <point x="30" y="513" type="curve" smooth="yes"/>
      <point x="30" y="376"/>
      <point x="134" y="338"/>
      <point x="155" y="310" type="curve" smooth="yes"/>
      <point x="143" y="295"/>
      <point x="266" y="290"/>
      <point x="266" y="165" type="curve" smooth="yes"/>
      <point x="266" y="117"/>
      <point x="228" y="95"/>
      <point x="197" y="95" type="curve" smooth="yes"/>
      <point x="92" y="95"/>
      <point x="63" y="135"/>
      <point x="68" y="132" type="curve"/>
      <point x="25" y="15" type="line"/>
      <point x="14" y="20"/>
      <point x="61" y="-17"/>
      <point x="148" y="-22" type="curve"/>
      <point x="136" y="-44"/>
      <point x="126" y="-71"/>
      <point x="126" y="-87" type="curve"/>
      <point x="147" y="-95"/>
      <point x="161" y="-96"/>
      <point x="161" y="-100" type="curve" smooth="yes"/>
      <point x="161" y="-107"/>
      <point x="151" y="-107"/>
      <point x="149" y="-107" type="curve" smooth="yes"/>
      <point x="114" y="-107"/>
      <point x="104" y="-103"/>
      <point x="91" y="-98" type="curve"/>
      <point x="76" y="-178" type="line"/>
      <point x="88" y="-184"/>
      <point x="134" y="-192"/>
    </contour>
  </outline>
</glyph>
<glyph name="uni0162" format="2">
  <advance width="451.125"/>
  <unicode hex="0162"/>
  <outline>
    <contour>
      <point x="191" y="-192" type="curve" smooth="yes"/>
      <point x="290" y="-192"/>
      <point x="309" y="-140"/>
      <point x="309" y="-107" type="curve" smooth="yes"/>
      <point x="309" y="-70"/>
      <point x="290" y="-54"/>
      <point x="259" y="-40" type="curve"/>
      <point x="261" y="-31"/>
      <point x="267" y="-13"/>
      <point x="275" y="0" type="curve"/>
      <point x="297" y="0" type="line"/>
      <point x="297" y="574" type="line"/>
      <point x="444" y="574" type="line"/>
      <point x="444" y="693" type="line"/>
      <point x="7" y="693" type="line"/>
      <point x="7" y="574" type="line"/>
      <point x="155" y="574" type="line"/>
      <point x="155" y="0" type="line"/>
      <point x="185" y="0" type="line"/>
      <point x="173" y="-25"/>
      <point x="158" y="-61"/>
      <point x="154" y="-87" type="curve"/>
      <point x="176" y="-95"/>
      <point x="190" y="-96"/>
      <point x="190" y="-100" type="curve" smooth="yes"/>
      <point x="190" y="-107"/>
      <point x="180" y="-107"/>
      <point x="177" y="-107" type="curve" smooth="yes"/>
      <point x="143" y="-107"/>
      <point x="133" y="-103"/>
      <point x="120" y="-98" type="curve"/>
      <point x="105" y="-178" type="line"/>
      <point x="117" y="-184"/>
      <point x="163" y="-192"/>
    </contour>
  </outline>
</glyph>
<glyph name="uni0180" format="2">
  <advance width="492.125"/>
  <unicode hex="0180"/>
  <outline>
    <contour>
      <point x="261" y="-21" type="curve" smooth="yes"/>
      <point x="361" y="-21"/>
      <point x="452" y="73"/>
      <point x="452" y="257" type="curve" smooth="yes"/>
      <point x="452" y="431"/>
      <point x="396" y="543"/>
      <point x="257" y="543" type="curve" smooth="yes"/>
      <point x="216" y="543"/>
      <point x="214" y="534"/>
      <point x="208" y="539" type="curve"/>
      <point x="208" y="587" type="line"/>
      <point x="305" y="587" type="line"/>
      <point x="305" y="690" type="line"/>
      <point x="208" y="690" type="line"/>
      <point x="208" y="776" type="line"/>
      <point x="70" y="754" type="line"/>
      <point x="70" y="690" type="line"/>
      <point x="18" y="690" type="line"/>
      <point x="18" y="587" type="line"/>
      <point x="70" y="587" type="line"/>
      <point x="70" y="12" type="line"/>
      <point x="107" y="-4"/>
      <point x="137" y="-21"/>
    </contour>
    <contour>
      <point x="254" y="100" type="curve" smooth="yes"/>
      <point x="202" y="100"/>
      <point x="201" y="107"/>
      <point x="208" y="107" type="curve"/>
      <point x="208" y="418" type="line"/>
      <point x="213" y="414"/>
      <point x="221" y="422"/>
      <point x="235" y="422" type="curve" smooth="yes"/>
      <point x="309" y="422"/>
      <point x="307" y="371"/>
      <point x="307" y="257" type="curve" smooth="yes"/>
      <point x="307" y="136"/>
      <point x="268" y="100"/>
    </contour>
  </outline>
</glyph>
<glyph name="uni0181" format="2">
  <advance width="648"/>
  <unicode hex="0181"/>
  <outline>
    <contour>
      <point x="343" y="-10" type="curve" smooth="yes"/>
      <point x="511" y="-10"/>
      <point x="609" y="66"/>
      <point x="609" y="198" type="curve"/>
      <point x="609" y="280"/>
      <point x="566" y="342"/>
      <point x="492" y="368" type="curve"/>
      <point x="555" y="396"/>
      <point x="587" y="445"/>
      <point x="587" y="514" type="curve" smooth="yes"/>
      <point x="587" y="635"/>
      <point x="500" y="703"/>
      <point x="318" y="703" type="curve"/>
      <point x="52" y="703"/>
      <point x="5" y="614"/>
      <point x="5" y="529" type="curve" smooth="yes"/>
      <point x="5" y="506"/>
      <point x="8" y="482"/>
      <point x="12" y="461" type="curve"/>
      <point x="120" y="475" type="line"/>
      <point x="117" y="489"/>
      <point x="115" y="501"/>
      <point x="115" y="513" type="curve" smooth="yes"/>
      <point x="115" y="550"/>
      <point x="132" y="575"/>
      <point x="182" y="582" type="curve"/>
      <point x="182" y="7" type="line"/>
      <point x="238" y="-4"/>
      <point x="295" y="-10"/>
    </contour>
    <contour>
      <point x="358" y="105" type="curve" smooth="yes"/>
      <point x="349" y="105"/>
      <point x="331" y="107"/>
      <point x="324" y="108" type="curve"/>
      <point x="324" y="303" type="line"/>
      <point x="366" y="303" type="line" smooth="yes"/>
      <point x="428" y="303"/>
      <point x="461" y="268"/>
      <point x="461" y="203" type="curve"/>
      <point x="461" y="139"/>
      <point x="425" y="105"/>
    </contour>
    <contour>
      <point x="324" y="415" type="line"/>
      <point x="324" y="586" type="line"/>
      <point x="336" y="587"/>
      <point x="345" y="588"/>
      <point x="358" y="588" type="curve"/>
      <point x="415" y="588"/>
      <point x="439" y="562"/>
      <point x="439" y="501" type="curve"/>
      <point x="439" y="442"/>
      <point x="409" y="415"/>
      <point x="346" y="415" type="curve" smooth="yes"/>
    </contour>
  </outline>
</glyph>
<glyph name="uni0183" format="2">
  <advance width="497"/>
  <unicode hex="0183"/>
  <outline>
    <contour>
      <point x="239" y="-10" type="curve"/>
      <point x="379" y="-10"/>
      <point x="454" y="84"/>
      <point x="454" y="257" type="curve" smooth="yes"/>
      <point x="454" y="448"/>
      <point x="393" y="542"/>
      <point x="268" y="542" type="curve"/>
      <point x="247" y="542"/>
      <point x="224" y="538"/>
      <point x="207" y="530" type="curve"/>
      <point x="207" y="657" type="line"/>
      <point x="391" y="657" type="line"/>
      <point x="391" y="770" type="line"/>
      <point x="69" y="770" type="line"/>
      <point x="69" y="11" type="line"/>
      <point x="126" y="-3"/>
      <point x="179" y="-10"/>
    </contour>
    <contour>
      <point x="236" y="107" type="curve"/>
      <point x="225" y="107"/>
      <point x="216" y="108"/>
      <point x="207" y="110" type="curve"/>
      <point x="207" y="418" type="line"/>
      <point x="216" y="423"/>
      <point x="229" y="425"/>
      <point x="242" y="425" type="curve"/>
      <point x="289" y="425"/>
      <point x="310" y="392"/>
      <point x="310" y="257" type="curve" smooth="yes"/>
      <point x="310" y="133"/>
      <point x="288" y="107"/>
    </contour>
  </outline>
</glyph>
<glyph name="uni0185" format="2">
  <advance width="517"/>
  <unicode hex="0185"/>
  <outline>
    <contour>
      <point x="228" y="-10" type="curve" smooth="yes"/>
      <point x="390" y="-10"/>
      <point x="484" y="74"/>
      <point x="484" y="218" type="curve" smooth="yes"/>
      <point x="484" y="366"/>
      <point x="400" y="447"/>
      <point x="248" y="447" type="curve"/>
      <point x="235" y="447"/>
      <point x="219" y="446"/>
      <point x="208" y="445" type="curve"/>
      <point x="208" y="703" type="line"/>
      <point x="138" y="684"/>
      <point x="72" y="656"/>
      <point x="-3" y="614" type="curve"/>
      <point x="70" y="526" type="line"/>
      <point x="70" y="9" type="line"/>
      <point x="126" y="-4"/>
      <point x="177" y="-10"/>
    </contour>
    <contour>
      <point x="231" y="109" type="curve" smooth="yes"/>
      <point x="223" y="109"/>
      <point x="216" y="110"/>
      <point x="208" y="111" type="curve"/>
      <point x="208" y="326" type="line"/>
      <point x="217" y="328"/>
      <point x="228" y="328"/>
      <point x="237" y="328" type="curve"/>
      <point x="313" y="328"/>
      <point x="340" y="295"/>
      <point x="340" y="214" type="curve" smooth="yes"/>
      <point x="340" y="134"/>
      <point x="302" y="109"/>
    </contour>
  </outline>
</glyph>
<glyph name="uni0187" format="2">
  <advance width="531.2"/>
  <unicode hex="0187"/>
  <anchor x="266" y="0" name="bottom"/>
  <anchor x="266" y="693" name="top"/>
  <outline>
    <contour>
      <point x="295" y="-23" type="curve" smooth="yes"/>
      <point x="432" y="-23"/>
      <point x="494" y="22"/>
      <point x="481" y="27" type="curve"/>
      <point x="441" y="144" type="line"/>
      <point x="432" y="129"/>
      <point x="407" y="101"/>
      <point x="311" y="101" type="curve" smooth="yes"/>
      <point x="208" y="101"/>
      <point x="201" y="183"/>
      <point x="201" y="350" type="curve" smooth="yes"/>
      <point x="201" y="521"/>
      <point x="200" y="593"/>
      <point x="318" y="593" type="curve" smooth="yes"/>
      <point x="384" y="593"/>
      <point x="454" y="552"/>
      <point x="445" y="556" type="curve"/>
      <point x="451" y="580" type="line" smooth="yes"/>
      <point x="451" y="602"/>
      <point x="449" y="688"/>
      <point x="516" y="688" type="curve" smooth="yes"/>
      <point x="540" y="688"/>
      <point x="561" y="682"/>
      <point x="570" y="674" type="curve"/>
      <point x="585" y="774" type="line"/>
      <point x="572" y="783"/>
      <point x="541" y="791"/>
      <point x="510" y="791" type="curve" smooth="yes"/>
      <point x="430" y="791"/>
      <point x="384" y="759"/>
      <point x="370" y="701" type="curve"/>
      <point x="363" y="702"/>
      <point x="334" y="717"/>
      <point x="294" y="717" type="curve" smooth="yes"/>
      <point x="186" y="717"/>
      <point x="48" y="652"/>
      <point x="48" y="347" type="curve" smooth="yes"/>
      <point x="48" y="69"/>
      <point x="163" y="-23"/>
    </contour>
  </outline>
</glyph>
<glyph name="uni018B" format="2">
  <advance width="514.4"/>
  <unicode hex="018B"/>
  <anchor x="258" y="0" name="bottom"/>
  <anchor x="258" y="693" name="top"/>
  <outline>
    <contour>
      <point x="276" y="-9" type="curve" smooth="yes"/>
      <point x="322" y="-9"/>
      <point x="373" y="-8"/>
      <point x="437" y="3" type="curve"/>
      <point x="437" y="693" type="line"/>
      <point x="99" y="693" type="line"/>
      <point x="99" y="572" type="line"/>
      <point x="295" y="572" type="line"/>
      <point x="295" y="454" type="line"/>
      <point x="306" y="454" type="line" smooth="yes"/>
      <point x="124" y="454"/>
      <point x="29" y="363"/>
      <point x="29" y="224" type="curve" smooth="yes"/>
      <point x="29" y="59"/>
      <point x="129" y="-9"/>
    </contour>
    <contour>
      <point x="268" y="112" type="curve" smooth="yes"/>
      <point x="268" y="112"/>
      <point x="178" y="104"/>
      <point x="178" y="217" type="curve" smooth="yes"/>
      <point x="178" y="340"/>
      <point x="281" y="335"/>
      <point x="349" y="335" type="curve" smooth="yes"/>
      <point x="295" y="335" type="line"/>
      <point x="295" y="105" type="line"/>
      <point x="300" y="113"/>
      <point x="293" y="112"/>
    </contour>
  </outline>
</glyph>
<glyph name="uni018C" format="2">
  <advance width="490"/>
  <unicode hex="018C"/>
  <anchor x="245" y="0" name="bottom"/>
  <anchor x="245" y="527" name="top"/>
  <outline>
    <contour>
      <point x="251" y="-10" type="curve"/>
      <point x="311" y="-10"/>
      <point x="364" y="-3"/>
      <point x="421" y="11" type="curve"/>
      <point x="421" y="770" type="line"/>
      <point x="99" y="770" type="line"/>
      <point x="99" y="657" type="line"/>
      <point x="283" y="657" type="line"/>
      <point x="283" y="530" type="line"/>
      <point x="266" y="538"/>
      <point x="243" y="542"/>
      <point x="222" y="542" type="curve"/>
      <point x="97" y="542"/>
      <point x="36" y="448"/>
      <point x="36" y="257" type="curve" smooth="yes"/>
      <point x="36" y="84"/>
      <point x="111" y="-10"/>
    </contour>
    <contour>
      <point x="254" y="107" type="curve"/>
      <point x="202" y="107"/>
      <point x="180" y="133"/>
      <point x="180" y="257" type="curve" smooth="yes"/>
      <point x="180" y="392"/>
      <point x="201" y="425"/>
      <point x="248" y="425" type="curve"/>
      <point x="261" y="425"/>
      <point x="274" y="423"/>
      <point x="283" y="418" type="curve"/>
      <point x="283" y="110" type="line"/>
      <point x="274" y="108"/>
      <point x="265" y="107"/>
    </contour>
  </outline>
</glyph>
<glyph name="uni018D" format="2">
  <advance width="479"/>
  <unicode hex="018D"/>
  <outline>
    <contour>
      <point x="233" y="-187" type="curve" smooth="yes"/>
      <point x="356" y="-187"/>
      <point x="420" y="-134"/>
      <point x="420" y="-52" type="curve" smooth="yes"/>
      <point x="420" y="13"/>
      <point x="384" y="39"/>
      <point x="334" y="76" type="curve"/>
      <point x="395" y="129"/>
      <point x="441" y="206.0"/>
      <point x="441" y="308.0" type="curve" smooth="yes"/>
      <point x="441" y="448.0"/>
      <point x="365" y="544"/>
      <point x="241" y="543" type="curve" smooth="yes"/>
      <point x="117" y="542"/>
      <point x="38" y="443.0"/>
      <point x="38" y="308.0" type="curve" smooth="yes"/>
      <point x="38" y="166.0"/>
      <point x="115" y="84"/>
      <point x="197" y="34" type="curve" smooth="yes"/>
      <point x="263" y="-9"/>
      <point x="286" y="-22"/>
      <point x="286" y="-46" type="curve" smooth="yes"/>
      <point x="286" y="-71"/>
      <point x="257" y="-77"/>
      <point x="228" y="-77" type="curve" smooth="yes"/>
      <point x="194" y="-77"/>
      <point x="146" y="-69"/>
      <point x="97" y="-52" type="curve"/>
      <point x="74" y="-160" type="line"/>
      <point x="121" y="-180"/>
      <point x="176" y="-187"/>
    </contour>
    <contour>
      <point x="242" y="143" type="curve"/>
      <point x="191" y="188"/>
      <point x="178" y="240"/>
      <point x="178" y="308.0" type="curve" smooth="yes"/>
      <point x="178" y="388"/>
      <point x="203" y="424"/>
      <point x="241" y="424" type="curve" smooth="yes"/>
      <point x="279.0" y="424.0"/>
      <point x="301" y="385"/>
      <point x="301" y="308.0" type="curve" smooth="yes"/>
      <point x="301" y="231"/>
      <point x="281" y="179"/>
    </contour>
  </outline>
</glyph>
<glyph name="uni0190" format="2">
  <advance width="472"/>
  <unicode hex="0190"/>
  <anchor x="236" y="0" name="bottom"/>
  <anchor x="236" y="693" name="top"/>
  <outline>
    <contour>
      <point x="279.4209950578782" y="-15.0" type="curve" smooth="yes"/>
      <point x="338" y="-15"/>
      <point x="399" y="0"/>
      <point x="447.4280801993581" y="26.873021285369965" type="curve"/>
      <point x="414.3509201221873" y="134.4147852379433" type="line"/>
      <point x="376" y="115"/>
      <point x="333" y="105"/>
      <point x="292" y="105" type="curve" smooth="yes"/>
      <point x="225" y="105"/>
      <point x="185" y="142"/>
      <point x="185" y="202" type="curve"/>
      <point x="185" y="268"/>
      <point x="230" y="306"/>
      <point x="307.92695129180095" y="305.7157273585202" type="curve" smooth="yes"/>
      <point x="370.6493964461426" y="305.7157273585202" type="line"/>
      <point x="371" y="420" type="line"/>
      <point x="312" y="420" type="line" smooth="yes"/>
      <point x="236" y="420"/>
      <point x="204" y="447"/>
      <point x="204" y="509" type="curve" smooth="yes"/>
      <point x="204" y="555"/>
      <point x="237" y="588"/>
      <point x="285" y="588" type="curve"/>
      <point x="328" y="588"/>
      <point x="366" y="575"/>
      <point x="396.9543101093255" y="549.4019097556258" type="curve"/>
      <point x="435.97227519292716" y="660.4022249678454" type="line"/>
      <point x="388" y="693"/>
      <point x="335" y="708"/>
      <point x="266.82642131752453" y="708.0" type="curve" smooth="yes"/>
      <point x="145" y="708"/>
      <point x="61" y="630"/>
      <point x="61" y="515" type="curve" smooth="yes"/>
      <point x="61" y="454"/>
      <point x="93" y="399"/>
      <point x="146" y="370" type="curve"/>
      <point x="76" y="333"/>
      <point x="39" y="275"/>
      <point x="39" y="201" type="curve" smooth="yes"/>
      <point x="39" y="64"/>
      <point x="127" y="-15"/>
    </contour>
  </outline>
</glyph>
<glyph name="uni0191" format="2">
  <advance width="457.825"/>
  <unicode hex="0191"/>
  <outline>
    <contour>
      <point x="40" y="-183" type="curve" smooth="yes"/>
      <point x="196" y="-183"/>
      <point x="219" y="-90"/>
      <point x="219" y="36" type="curve"/>
      <point x="219" y="301" type="line"/>
      <point x="407" y="301" type="line"/>
      <point x="407" y="418" type="line"/>
      <point x="219" y="418" type="line"/>
      <point x="219" y="574" type="line"/>
      <point x="432" y="574" type="line"/>
      <point x="432" y="693" type="line"/>
      <point x="77" y="693" type="line"/>
      <point x="77" y="31" type="line" smooth="yes"/>
      <point x="77" y="-44"/>
      <point x="60" y="-63"/>
      <point x="21" y="-63" type="curve" smooth="yes"/>
      <point x="8" y="-63"/>
      <point x="-5" y="-59"/>
      <point x="-9" y="-58" type="curve"/>
      <point x="-23" y="-171" type="line"/>
      <point x="-10" y="-176"/>
      <point x="20" y="-183"/>
    </contour>
  </outline>
</glyph>
<glyph name="uni0197" format="2">
  <advance width="316"/>
  <unicode hex="0197"/>
  <outline>
    <contour>
      <point x="87" y="0" type="line"/>
      <point x="229" y="0" type="line"/>
      <point x="229" y="313" type="line"/>
      <point x="314" y="313" type="line"/>
      <point x="314" y="412" type="line"/>
      <point x="229" y="412" type="line"/>
      <point x="229" y="693" type="line"/>
      <point x="87" y="693" type="line"/>
      <point x="87" y="412" type="line"/>
      <point x="2" y="412" type="line"/>
      <point x="2" y="313" type="line"/>
      <point x="87" y="313" type="line"/>
    </contour>
  </outline>
</glyph>
<glyph name="uni019A" format="2">
  <advance width="294.925"/>
  <unicode hex="019A"/>
  <outline>
    <contour>
      <point x="259" y="-20" type="curve"/>
      <point x="275" y="92" type="line"/>
      <point x="233" y="97"/>
      <point x="211" y="85"/>
      <point x="211" y="154" type="curve" smooth="yes"/>
      <point x="211" y="351" type="line"/>
      <point x="277" y="351" type="line"/>
      <point x="277" y="452" type="line"/>
      <point x="211" y="452" type="line"/>
      <point x="211" y="776" type="line"/>
      <point x="73" y="754" type="line"/>
      <point x="73" y="452" type="line"/>
      <point x="8" y="452" type="line"/>
      <point x="8" y="351" type="line"/>
      <point x="73" y="351" type="line"/>
      <point x="73" y="153" type="line" smooth="yes"/>
      <point x="73" y="10"/>
      <point x="131" y="-20"/>
    </contour>
  </outline>
</glyph>
<glyph name="uni01A4" format="2">
  <advance width="587.575"/>
  <unicode hex="01A4"/>
  <outline>
    <contour>
      <point x="151" y="0" type="line"/>
      <point x="293" y="0" type="line"/>
      <point x="293" y="239" type="line"/>
      <point x="310" y="239" type="line" smooth="yes"/>
      <point x="421" y="239"/>
      <point x="560" y="293"/>
      <point x="560" y="472" type="curve" smooth="yes"/>
      <point x="560" y="625"/>
      <point x="464" y="703"/>
      <point x="301" y="703" type="curve" smooth="yes"/>
      <point x="266" y="703"/>
      <point x="-3" y="755"/>
      <point x="-3" y="538" type="curve" smooth="yes"/>
      <point x="-3" y="524"/>
      <point x="-1" y="494"/>
      <point x="2" y="479" type="curve"/>
      <point x="113" y="493" type="line"/>
      <point x="111" y="509"/>
      <point x="113" y="514"/>
      <point x="113" y="512" type="curve" smooth="yes"/>
      <point x="113" y="562"/>
      <point x="135" y="588"/>
      <point x="151" y="579" type="curve"/>
    </contour>
    <contour>
      <point x="293" y="359" type="line"/>
      <point x="293" y="584" type="line"/>
      <point x="290" y="584"/>
      <point x="312" y="580"/>
      <point x="308" y="580" type="curve" smooth="yes"/>
      <point x="311" y="580"/>
      <point x="409" y="590"/>
      <point x="409" y="472" type="curve" smooth="yes"/>
      <point x="409" y="401"/>
      <point x="384" y="359"/>
      <point x="296" y="359" type="curve" smooth="yes"/>
    </contour>
  </outline>
</glyph>
<glyph name="uni01AA" format="2">
  <advance width="228.225"/>
  <unicode hex="01AA"/>
  <outline>
    <contour>
      <point x="210" y="-187" type="curve"/>
      <point x="229" y="-74" type="line"/>
      <point x="195" y="-73"/>
      <point x="161" y="-76"/>
      <point x="161" y="-28" type="curve" smooth="yes"/>
      <point x="161" y="590" type="line" smooth="yes"/>
      <point x="161" y="681"/>
      <point x="149" y="776"/>
      <point x="2" y="776" type="curve" smooth="yes"/>
      <point x="-63" y="776"/>
      <point x="-129" y="713"/>
      <point x="-129" y="619" type="curve" smooth="yes"/>
      <point x="-129" y="543"/>
      <point x="-82" y="473"/>
      <point x="-4" y="473" type="curve" smooth="yes"/>
      <point x="1" y="473"/>
      <point x="15" y="473"/>
      <point x="19" y="461" type="curve"/>
      <point x="19" y="-16" type="line" smooth="yes"/>
      <point x="19" y="-155"/>
      <point x="98" y="-192"/>
    </contour>
    <contour>
      <point x="14" y="577" type="curve" smooth="yes"/>
      <point x="-11" y="577"/>
      <point x="-20" y="608"/>
      <point x="-20" y="622" type="curve" smooth="yes"/>
      <point x="-20" y="638"/>
      <point x="-20" y="671"/>
      <point x="-5" y="671" type="curve" smooth="yes"/>
      <point x="5" y="671"/>
      <point x="19" y="680"/>
      <point x="19" y="637" type="curve" smooth="yes"/>
      <point x="19" y="567" type="line"/>
      <point x="22" y="587"/>
      <point x="38" y="577"/>
    </contour>
  </outline>
</glyph>
<glyph name="Uhorn" format="2">
  <advance width="589.2"/>
  <unicode hex="01AF"/>
  <anchor x="295" y="0" name="bottom"/>
  <anchor x="295" y="693" name="top"/>
  <outline>
    <contour>
      <point x="282" y="-23" type="curve" smooth="yes"/>
      <point x="453" y="-23"/>
      <point x="504" y="96"/>
      <point x="504" y="211" type="curve" smooth="yes"/>
      <point x="504" y="591" type="line"/>
      <point x="618" y="610"/>
      <point x="628" y="736"/>
      <point x="628" y="783" type="curve" smooth="yes"/>
      <point x="628" y="787"/>
      <point x="628" y="801"/>
      <point x="628" y="806" type="curve"/>
      <point x="493" y="806" type="line"/>
      <point x="490" y="810"/>
      <point x="495" y="783"/>
      <point x="495" y="768" type="curve" smooth="yes"/>
      <point x="495" y="717"/>
      <point x="458" y="693"/>
      <point x="466" y="693" type="curve" smooth="yes"/>
      <point x="363" y="693" type="line"/>
      <point x="363" y="222" type="line" smooth="yes"/>
      <point x="363" y="128"/>
      <point x="317" y="101"/>
      <point x="284" y="101" type="curve" smooth="yes"/>
      <point x="259" y="101"/>
      <point x="213" y="125"/>
      <point x="213" y="222" type="curve" smooth="yes"/>
      <point x="213" y="693" type="line"/>
      <point x="71" y="693" type="line"/>
      <point x="71" y="211" type="line" smooth="yes"/>
      <point x="71" y="98"/>
      <point x="119" y="-23"/>
    </contour>
  </outline>
</glyph>
<glyph name="uhorn" format="2">
  <advance width="515.175"/>
  <unicode hex="01B0"/>
  <anchor x="257" y="0" name="bottom"/>
  <anchor x="257" y="527" name="top"/>
  <outline>
    <contour>
      <point x="252" y="-18" type="curve" smooth="yes"/>
      <point x="350" y="-18"/>
      <point x="415" y="3"/>
      <point x="436" y="5" type="curve"/>
      <point x="436" y="421" type="line"/>
      <point x="546" y="441"/>
      <point x="553" y="566"/>
      <point x="553" y="614" type="curve" smooth="yes"/>
      <point x="553" y="616"/>
      <point x="553" y="631"/>
      <point x="553" y="640" type="curve"/>
      <point x="418" y="640" type="line"/>
      <point x="416" y="640"/>
      <point x="420" y="613"/>
      <point x="420" y="598" type="curve" smooth="yes"/>
      <point x="420" y="544"/>
      <point x="386" y="525"/>
      <point x="397" y="525" type="curve" smooth="yes"/>
      <point x="299" y="525" type="line"/>
      <point x="299" y="103" type="line"/>
      <point x="314" y="107"/>
      <point x="306" y="104"/>
      <point x="265" y="104" type="curve" smooth="yes"/>
      <point x="230" y="104"/>
      <point x="202" y="135"/>
      <point x="202" y="232" type="curve" smooth="yes"/>
      <point x="202" y="525" type="line"/>
      <point x="64" y="525" type="line"/>
      <point x="64" y="195" type="line" smooth="yes"/>
      <point x="64" y="83"/>
      <point x="129" y="-18"/>
    </contour>
  </outline>
</glyph>
<glyph name="uni01B1" format="2">
  <advance width="618"/>
  <unicode hex="01B1"/>
  <anchor x="309" y="0.0" name="bottom"/>
  <anchor x="309" y="693.0" name="top"/>
  <outline>
    <contour>
      <point x="309" y="-14" type="curve"/>
      <point x="466" y="-14"/>
      <point x="565" y="113"/>
      <point x="565" y="314" type="curve" smooth="yes"/>
      <point x="565" y="405"/>
      <point x="535" y="506"/>
      <point x="488" y="575" type="curve"/>
      <point x="583" y="575" type="line"/>
      <point x="583" y="693" type="line"/>
      <point x="347" y="693" type="line"/>
      <point x="347" y="591" type="line"/>
      <point x="390" y="517"/>
      <point x="415" y="415"/>
      <point x="415" y="312" type="curve" smooth="yes"/>
      <point x="415" y="173"/>
      <point x="382" y="110"/>
      <point x="309" y="110" type="curve"/>
      <point x="236" y="110"/>
      <point x="203" y="173"/>
      <point x="203" y="312" type="curve" smooth="yes"/>
      <point x="203" y="415"/>
      <point x="228" y="517"/>
      <point x="271" y="591" type="curve"/>
      <point x="271" y="693" type="line"/>
      <point x="35" y="693" type="line"/>
      <point x="35" y="575" type="line"/>
      <point x="130" y="575" type="line"/>
      <point x="83" y="506"/>
      <point x="53" y="405"/>
      <point x="53" y="314" type="curve" smooth="yes"/>
      <point x="53" y="113"/>
      <point x="152" y="-14"/>
    </contour>
  </outline>
</glyph>
<glyph name="uni01B2" format="2">
  <advance width="595"/>
  <unicode hex="01B2"/>
  <anchor x="298" y="0" name="bottom"/>
  <anchor x="298" y="693" name="top"/>
  <outline>
    <contour>
      <point x="293" y="-14" type="curve"/>
      <point x="455" y="-14"/>
      <point x="546" y="115"/>
      <point x="546" y="346" type="curve" smooth="yes"/>
      <point x="546" y="594"/>
      <point x="477" y="697"/>
      <point x="338" y="697" type="curve" smooth="yes"/>
      <point x="319" y="697"/>
      <point x="300" y="695"/>
      <point x="286" y="693" type="curve"/>
      <point x="294" y="568" type="line"/>
      <point x="299" y="569"/>
      <point x="307" y="570"/>
      <point x="316" y="570" type="curve" smooth="yes"/>
      <point x="371" y="570"/>
      <point x="396" y="525"/>
      <point x="396" y="345" type="curve" smooth="yes"/>
      <point x="396" y="182"/>
      <point x="366" y="110"/>
      <point x="295" y="110" type="curve"/>
      <point x="233" y="110"/>
      <point x="210" y="141"/>
      <point x="210" y="222" type="curve" smooth="yes"/>
      <point x="210" y="693" type="line"/>
      <point x="68" y="693" type="line"/>
      <point x="68" y="211" type="line" smooth="yes"/>
      <point x="68" y="65"/>
      <point x="147" y="-14"/>
    </contour>
  </outline>
</glyph>
<glyph name="uni01B3" format="2">
  <advance width="552"/>
  <unicode hex="01B3"/>
  <anchor x="277" y="0" name="bottom"/>
  <anchor x="277" y="693" name="top"/>
  <outline>
    <contour>
      <point x="178" y="0" type="line"/>
      <point x="320" y="0" type="line"/>
      <point x="320" y="261" type="line"/>
      <point x="354" y="359"/>
      <point x="401" y="483"/>
      <point x="423" y="529" type="curve" smooth="yes"/>
      <point x="445.0" y="575.0"/>
      <point x="460" y="583"/>
      <point x="480" y="583" type="curve"/>
      <point x="495" y="583"/>
      <point x="511" y="577"/>
      <point x="520" y="569" type="curve"/>
      <point x="562" y="673" type="line"/>
      <point x="539" y="693"/>
      <point x="497" y="707"/>
      <point x="453" y="707" type="curve"/>
      <point x="400" y="707"/>
      <point x="364.0" y="683.0"/>
      <point x="331" y="610" type="curve" smooth="yes"/>
      <point x="298" y="537"/>
      <point x="269" y="453"/>
      <point x="250" y="397" type="curve"/>
      <point x="211" y="499"/>
      <point x="177" y="603"/>
      <point x="153" y="693" type="curve"/>
      <point x="1" y="693" type="line"/>
      <point x="36" y="590"/>
      <point x="113" y="402"/>
      <point x="178" y="261" type="curve"/>
    </contour>
  </outline>
</glyph>
<glyph name="uni01BC" format="2">
  <advance width="338.35"/>
  <unicode hex="01BC"/>
  <anchor x="169" y="0" name="bottom"/>
  <anchor x="169" y="693" name="top"/>
  <outline>
    <contour>
      <point x="131" y="-15" type="curve" smooth="yes"/>
      <point x="311" y="-15"/>
      <point x="387" y="80"/>
      <point x="387" y="203" type="curve" smooth="yes"/>
      <point x="387" y="313"/>
      <point x="352" y="403"/>
      <point x="180" y="442" type="curve"/>
      <point x="183" y="438"/>
      <point x="182" y="479"/>
      <point x="191" y="573" type="curve"/>
      <point x="361" y="573" type="line"/>
      <point x="361" y="693" type="line"/>
      <point x="-1" y="693" type="line"/>
      <point x="-1" y="572" type="line"/>
      <point x="58" y="572" type="line"/>
      <point x="55" y="474"/>
      <point x="47" y="407"/>
      <point x="41" y="334" type="curve"/>
      <point x="183" y="329"/>
      <point x="231" y="278"/>
      <point x="231" y="198" type="curve" smooth="yes"/>
      <point x="231" y="167"/>
      <point x="217" y="112"/>
      <point x="125" y="112" type="curve" smooth="yes"/>
      <point x="56" y="112"/>
      <point x="34" y="130"/>
      <point x="21" y="137" type="curve"/>
      <point x="-14" y="21" type="line"/>
      <point x="-10" y="16"/>
      <point x="53" y="-15"/>
    </contour>
  </outline>
</glyph>
<glyph name="uni01BD" format="2">
  <advance width="389.45"/>
  <unicode hex="01BD"/>
  <anchor x="195" y="0" name="bottom"/>
  <anchor x="195" y="527" name="top"/>
  <outline>
    <contour>
      <point x="143" y="-23" type="curve" smooth="yes"/>
      <point x="282" y="-23"/>
      <point x="354" y="61"/>
      <point x="354" y="152" type="curve" smooth="yes"/>
      <point x="354" y="211"/>
      <point x="331" y="315"/>
      <point x="203" y="328" type="curve"/>
      <point x="196" y="328" type="line"/>
      <point x="201" y="356"/>
      <point x="202" y="399"/>
      <point x="208" y="411" type="curve"/>
      <point x="332" y="411" type="line"/>
      <point x="332" y="527" type="line"/>
      <point x="19" y="527" type="line"/>
      <point x="19" y="410" type="line"/>
      <point x="88" y="410" type="line"/>
      <point x="85" y="370"/>
      <point x="81" y="318"/>
      <point x="71" y="234" type="curve"/>
      <point x="94" y="234" type="line"/>
      <point x="265" y="234"/>
      <point x="215" y="163"/>
      <point x="215" y="156" type="curve" smooth="yes"/>
      <point x="215" y="120"/>
      <point x="171" y="98"/>
      <point x="146" y="98" type="curve" smooth="yes"/>
      <point x="56" y="98"/>
      <point x="59" y="119"/>
      <point x="63" y="121" type="curve"/>
      <point x="29" y="8" type="line"/>
      <point x="40" y="-6"/>
      <point x="92" y="-23"/>
    </contour>
  </outline>
</glyph>
<glyph name="uni01BF" format="2">
  <advance width="493"/>
  <unicode hex="01BF"/>
  <outline>
    <contour>
      <point x="69" y="-185.0" type="line"/>
      <point x="207" y="-185.0" type="line"/>
      <point x="207" y="-52" type="line"/>
      <point x="344" y="1"/>
      <point x="450" y="131"/>
      <point x="450" y="301" type="curve" smooth="yes"/>
      <point x="450" y="459"/>
      <point x="359" y="542"/>
      <point x="233" y="542" type="curve" smooth="yes"/>
      <point x="174" y="542"/>
      <point x="114" y="525"/>
      <point x="69" y="504" type="curve"/>
    </contour>
    <contour>
      <point x="207" y="86" type="curve"/>
      <point x="207" y="419" type="line"/>
      <point x="215" y="422"/>
      <point x="221" y="423"/>
      <point x="233" y="423" type="curve" smooth="yes"/>
      <point x="277" y="423"/>
      <point x="306" y="384"/>
      <point x="306" y="303" type="curve" smooth="yes"/>
      <point x="306" y="197"/>
      <point x="265" y="120"/>
    </contour>
  </outline>
</glyph>
<glyph name="uni01F6" format="2">
  <advance width="833"/>
  <unicode hex="01F6"/>
  <outline>
    <contour>
      <point x="573" y="-11" type="curve" smooth="yes"/>
      <point x="714" y="-11"/>
      <point x="778" y="65"/>
      <point x="778" y="194" type="curve" smooth="yes"/>
      <point x="778" y="539" type="line"/>
      <point x="636" y="539" type="line"/>
      <point x="636" y="200" type="line" smooth="yes"/>
      <point x="636.0" y="139.0"/>
      <point x="618" y="113"/>
      <point x="573" y="113" type="curve" smooth="yes"/>
      <point x="529" y="113"/>
      <point x="511.0" y="139.0"/>
      <point x="511" y="199" type="curve" smooth="yes"/>
      <point x="511" y="693" type="line"/>
      <point x="369" y="693" type="line"/>
      <point x="369" y="420" type="line"/>
      <point x="220" y="420" type="line"/>
      <point x="220" y="693" type="line"/>
      <point x="78" y="693" type="line"/>
      <point x="78" y="0" type="line"/>
      <point x="220" y="0" type="line"/>
      <point x="220" y="300" type="line"/>
      <point x="369" y="300" type="line"/>
      <point x="369" y="194" type="line" smooth="yes"/>
      <point x="369" y="55"/>
      <point x="440" y="-11"/>
    </contour>
  </outline>
</glyph>
<glyph name="uni01F7" format="2">
  <advance width="554"/>
  <unicode hex="01F7"/>
  <outline>
    <contour>
      <point x="78" y="-185.0" type="line"/>
      <point x="220" y="-185.0" type="line"/>
      <point x="220" y="0" type="line"/>
      <point x="394" y="85"/>
      <point x="519" y="230"/>
      <point x="519" y="435" type="curve" smooth="yes"/>
      <point x="519" y="608"/>
      <point x="428" y="703"/>
      <point x="275" y="703" type="curve" smooth="yes"/>
      <point x="205" y="703"/>
      <point x="138" y="684"/>
      <point x="78" y="655" type="curve"/>
    </contour>
    <contour>
      <point x="220" y="138" type="curve"/>
      <point x="220" y="575" type="line"/>
      <point x="235" y="579"/>
      <point x="248" y="581"/>
      <point x="261" y="581" type="curve"/>
      <point x="328" y="581"/>
      <point x="369" y="533"/>
      <point x="369" y="426" type="curve" smooth="yes"/>
      <point x="369" y="297"/>
      <point x="312" y="198"/>
    </contour>
  </outline>
</glyph>
<glyph name="uni021C" format="2">
  <advance width="461"/>
  <unicode hex="021C"/>
  <outline>
    <contour>
      <point x="60" y="-184" type="curve" smooth="yes"/>
      <point x="263" y="-184"/>
      <point x="421" y="-94"/>
      <point x="421" y="109" type="curve" smooth="yes"/>
      <point x="421" y="184"/>
      <point x="387" y="259"/>
      <point x="305" y="306" type="curve"/>
      <point x="375" y="350"/>
      <point x="400" y="425"/>
      <point x="400" y="487" type="curve"/>
      <point x="400" y="617"/>
      <point x="312" y="707"/>
      <point x="180" y="707" type="curve" smooth="yes"/>
      <point x="137" y="707"/>
      <point x="76" y="697"/>
      <point x="23" y="673" type="curve"/>
      <point x="64" y="562" type="line"/>
      <point x="96" y="577"/>
      <point x="125" y="583"/>
      <point x="151" y="583" type="curve"/>
      <point x="218" y="583"/>
      <point x="250" y="543"/>
      <point x="250" y="474" type="curve"/>
      <point x="250" y="404"/>
      <point x="218" y="358"/>
      <point x="133" y="358" type="curve" smooth="yes"/>
      <point x="80" y="358" type="line"/>
      <point x="80" y="240" type="line"/>
      <point x="136" y="240" type="line" smooth="yes"/>
      <point x="235" y="240"/>
      <point x="271" y="188"/>
      <point x="271" y="105" type="curve" smooth="yes"/>
      <point x="271" y="-5"/>
      <point x="203" y="-60"/>
      <point x="62" y="-60" type="curve" smooth="yes"/>
      <point x="45" y="-60"/>
      <point x="32" y="-59"/>
      <point x="15" y="-57" type="curve"/>
      <point x="10" y="-182" type="line"/>
      <point x="28" y="-184"/>
      <point x="44" y="-184"/>
    </contour>
  </outline>
</glyph>
<glyph name="uni0221" format="2">
  <advance width="620"/>
  <unicode hex="0221"/>
  <outline>
    <contour>
      <point x="461" y="-185" type="curve" smooth="yes"/>
      <point x="562" y="-185"/>
      <point x="616" y="-108"/>
      <point x="616" y="-21" type="curve" smooth="yes"/>
      <point x="616" y="73"/>
      <point x="562" y="138"/>
      <point x="483" y="138" type="curve"/>
      <point x="460" y="138"/>
      <point x="440" y="133"/>
      <point x="428" y="127" type="curve"/>
      <point x="428" y="776" type="line"/>
      <point x="290" y="754" type="line"/>
      <point x="290" y="530" type="line"/>
      <point x="273" y="538"/>
      <point x="250" y="542"/>
      <point x="229" y="542" type="curve"/>
      <point x="104" y="542"/>
      <point x="43" y="448"/>
      <point x="43" y="257" type="curve" smooth="yes"/>
      <point x="43" y="84"/>
      <point x="118" y="-10"/>
      <point x="258" y="-10" type="curve"/>
      <point x="269" y="-10"/>
      <point x="280" y="-10"/>
      <point x="290" y="-9" type="curve"/>
      <point x="290" y="-11" type="line"/>
      <point x="206" y="-130" type="line"/>
      <point x="279" y="-189" type="line"/>
      <point x="329" y="-118" type="line"/>
      <point x="361" y="-164"/>
      <point x="412" y="-185"/>
    </contour>
    <contour>
      <point x="261" y="107" type="curve"/>
      <point x="209" y="107"/>
      <point x="187" y="133"/>
      <point x="187" y="257" type="curve" smooth="yes"/>
      <point x="187" y="392"/>
      <point x="208" y="425"/>
      <point x="255" y="425" type="curve"/>
      <point x="268" y="425"/>
      <point x="281" y="423"/>
      <point x="290" y="418" type="curve"/>
      <point x="290" y="110" type="line"/>
      <point x="281" y="108"/>
      <point x="272" y="107"/>
    </contour>
    <contour>
      <point x="469" y="-92" type="curve" smooth="yes"/>
      <point x="439" y="-92"/>
      <point x="428" y="-64"/>
      <point x="428" y="-15" type="curve" smooth="yes"/>
      <point x="428" y="26" type="line"/>
      <point x="436" y="37"/>
      <point x="448" y="43"/>
      <point x="462" y="43" type="curve"/>
      <point x="493" y="43"/>
      <point x="506" y="17"/>
      <point x="506" y="-28" type="curve" smooth="yes"/>
      <point x="506" y="-72"/>
      <point x="493" y="-92"/>
    </contour>
  </outline>
</glyph>
<glyph name="uni0222" format="2">
  <advance width="544.05"/>
  <unicode hex="0222"/>
  <outline>
    <contour>
      <point x="273" y="5" type="curve" smooth="yes"/>
      <point x="452" y="5"/>
      <point x="510" y="103"/>
      <point x="510" y="216" type="curve" smooth="yes"/>
      <point x="510" y="320"/>
      <point x="432" y="361"/>
      <point x="422" y="381" type="curve"/>
      <point x="446" y="409"/>
      <point x="477" y="471"/>
      <point x="477" y="541" type="curve" smooth="yes"/>
      <point x="477" y="634"/>
      <point x="466" y="673"/>
      <point x="463" y="693" type="curve"/>
      <point x="325" y="693" type="line"/>
      <point x="325" y="673"/>
      <point x="339" y="628"/>
      <point x="339" y="556" type="curve" smooth="yes"/>
      <point x="339" y="486"/>
      <point x="318" y="430"/>
      <point x="272" y="430" type="curve" smooth="yes"/>
      <point x="226" y="430"/>
      <point x="206" y="486"/>
      <point x="206" y="556" type="curve" smooth="yes"/>
      <point x="206" y="628"/>
      <point x="219" y="673"/>
      <point x="219" y="693" type="curve"/>
      <point x="84" y="693" type="line"/>
      <point x="81" y="673"/>
      <point x="67" y="634"/>
      <point x="67" y="541" type="curve" smooth="yes"/>
      <point x="67" y="471"/>
      <point x="98" y="409"/>
      <point x="122" y="381" type="curve"/>
      <point x="111" y="361"/>
      <point x="34" y="321"/>
      <point x="34" y="216" type="curve" smooth="yes"/>
      <point x="34" y="103"/>
      <point x="93" y="5"/>
    </contour>
    <contour>
      <point x="272" y="124" type="curve" smooth="yes"/>
      <point x="251" y="124"/>
      <point x="183" y="139"/>
      <point x="183" y="221" type="curve" smooth="yes"/>
      <point x="183" y="302"/>
      <point x="245" y="314"/>
      <point x="272" y="314" type="curve" smooth="yes"/>
      <point x="299" y="314"/>
      <point x="361" y="302"/>
      <point x="361" y="221" type="curve" smooth="yes"/>
      <point x="361" y="139"/>
      <point x="293" y="124"/>
    </contour>
  </outline>
</glyph>
<glyph name="uni0224" format="2">
  <advance width="460.475"/>
  <unicode hex="0224"/>
  <outline>
    <contour>
      <point x="267" y="-184" type="curve" smooth="yes"/>
      <point x="448" y="-184"/>
      <point x="432" y="-71"/>
      <point x="432" y="100" type="curve" smooth="yes"/>
      <point x="432" y="119" type="line"/>
      <point x="177" y="119" type="line"/>
      <point x="260" y="299"/>
      <point x="374" y="472"/>
      <point x="425" y="572" type="curve"/>
      <point x="425" y="693" type="line"/>
      <point x="39" y="693" type="line"/>
      <point x="39" y="574" type="line"/>
      <point x="277" y="574" type="line"/>
      <point x="236" y="501"/>
      <point x="74" y="233"/>
      <point x="24" y="87" type="curve"/>
      <point x="24" y="0" type="line"/>
      <point x="306" y="0" type="line"/>
      <point x="306" y="58" type="line" smooth="yes"/>
      <point x="306" y="-40"/>
      <point x="303" y="-71"/>
      <point x="245" y="-71" type="curve" smooth="yes"/>
      <point x="235" y="-71"/>
      <point x="215" y="-67"/>
      <point x="214" y="-66" type="curve"/>
      <point x="206" y="-174" type="line"/>
      <point x="215" y="-176"/>
      <point x="252" y="-184"/>
    </contour>
  </outline>
</glyph>
<glyph name="uni0228" format="2">
  <advance width="484.475"/>
  <unicode hex="0228"/>
  <outline>
    <contour>
      <point x="240" y="-192" type="curve" smooth="yes"/>
      <point x="339" y="-192"/>
      <point x="358" y="-140"/>
      <point x="358" y="-107" type="curve" smooth="yes"/>
      <point x="358" y="-68"/>
      <point x="339" y="-52"/>
      <point x="306" y="-40" type="curve"/>
      <point x="306" y="-40"/>
      <point x="314" y="-18"/>
      <point x="324" y="0" type="curve"/>
      <point x="448" y="0" type="line"/>
      <point x="448" y="119" type="line"/>
      <point x="219" y="119" type="line"/>
      <point x="219" y="306" type="line"/>
      <point x="411" y="306" type="line"/>
      <point x="411" y="421" type="line"/>
      <point x="219" y="421" type="line"/>
      <point x="219" y="574" type="line"/>
      <point x="427" y="574" type="line"/>
      <point x="427" y="693" type="line"/>
      <point x="77" y="693" type="line"/>
      <point x="77" y="0" type="line"/>
      <point x="236" y="0" type="line"/>
      <point x="224" y="-25"/>
      <point x="207" y="-65"/>
      <point x="203" y="-87" type="curve"/>
      <point x="225" y="-95"/>
      <point x="239" y="-96"/>
      <point x="239" y="-100" type="curve" smooth="yes"/>
      <point x="239" y="-107"/>
      <point x="229" y="-107"/>
      <point x="226" y="-107" type="curve" smooth="yes"/>
      <point x="192" y="-107"/>
      <point x="182" y="-103"/>
      <point x="169" y="-98" type="curve"/>
      <point x="154" y="-178" type="line"/>
      <point x="166" y="-184"/>
      <point x="212" y="-192"/>
    </contour>
  </outline>
</glyph>
<glyph name="uni0234" format="2">
  <advance width="382.275"/>
  <unicode hex="0234"/>
  <outline>
    <contour>
      <point x="239" y="-195" type="curve" smooth="yes"/>
      <point x="338" y="-195"/>
      <point x="386" y="-115"/>
      <point x="386" y="-34" type="curve" smooth="yes"/>
      <point x="386" y="35"/>
      <point x="340" y="118"/>
      <point x="252" y="118" type="curve" smooth="yes"/>
      <point x="239" y="118"/>
      <point x="220" y="122"/>
      <point x="207" y="131" type="curve"/>
      <point x="207" y="776" type="line"/>
      <point x="69" y="753" type="line"/>
      <point x="69" y="12" type="line"/>
      <point x="69" y="-4"/>
      <point x="69" y="-11"/>
      <point x="71" y="-29" type="curve"/>
      <point x="-21" y="-162" type="line"/>
      <point x="44" y="-211" type="line"/>
      <point x="93" y="-148" type="line"/>
      <point x="131" y="-176"/>
      <point x="169" y="-195"/>
    </contour>
    <contour>
      <point x="246" y="-95" type="curve" smooth="yes"/>
      <point x="224" y="-95"/>
      <point x="209" y="-80"/>
      <point x="209" y="-28" type="curve" smooth="yes"/>
      <point x="209" y="31" type="line"/>
      <point x="209" y="17"/>
      <point x="204" y="19"/>
      <point x="225" y="19" type="curve" smooth="yes"/>
      <point x="262" y="19"/>
      <point x="274" y="-24"/>
      <point x="274" y="-37" type="curve" smooth="yes"/>
      <point x="274" y="-68"/>
      <point x="272" y="-95"/>
    </contour>
  </outline>
</glyph>
<glyph name="uni0235" format="2">
  <advance width="618.9"/>
  <unicode hex="0235"/>
  <outline>
    <contour>
      <point x="476" y="-195" type="curve" smooth="yes"/>
      <point x="574" y="-195"/>
      <point x="622" y="-115"/>
      <point x="622" y="-34" type="curve" smooth="yes"/>
      <point x="622" y="35"/>
      <point x="577" y="118"/>
      <point x="489" y="118" type="curve" smooth="yes"/>
      <point x="476" y="118"/>
      <point x="456" y="122"/>
      <point x="443" y="131" type="curve"/>
      <point x="443" y="324" type="line" smooth="yes"/>
      <point x="443" y="476"/>
      <point x="368" y="543"/>
      <point x="254" y="543" type="curve" smooth="yes"/>
      <point x="187" y="543"/>
      <point x="120" y="532"/>
      <point x="71" y="520" type="curve"/>
      <point x="71" y="0" type="line"/>
      <point x="209" y="0" type="line"/>
      <point x="209" y="425" type="line"/>
      <point x="228" y="429"/>
      <point x="231" y="421"/>
      <point x="236" y="421" type="curve" smooth="yes"/>
      <point x="279" y="421"/>
      <point x="306" y="403"/>
      <point x="306" y="312" type="curve" smooth="yes"/>
      <point x="306" y="10" type="line"/>
      <point x="306" y="-6"/>
      <point x="306" y="-12"/>
      <point x="307" y="-29" type="curve"/>
      <point x="216" y="-162" type="line"/>
      <point x="280" y="-211" type="line"/>
      <point x="330" y="-148" type="line"/>
      <point x="368" y="-176"/>
      <point x="406" y="-195"/>
    </contour>
    <contour>
      <point x="483" y="-95" type="curve" smooth="yes"/>
      <point x="461" y="-95"/>
      <point x="445" y="-80"/>
      <point x="445" y="-28" type="curve" smooth="yes"/>
      <point x="445" y="31" type="line"/>
      <point x="446" y="17"/>
      <point x="440" y="19"/>
      <point x="461" y="19" type="curve" smooth="yes"/>
      <point x="499" y="19"/>
      <point x="510" y="-24"/>
      <point x="510" y="-37" type="curve" smooth="yes"/>
      <point x="510" y="-68"/>
      <point x="509" y="-95"/>
    </contour>
  </outline>
</glyph>
<glyph name="uni0236" format="2">
  <advance width="407"/>
  <unicode hex="0236"/>
  <outline>
    <contour>
      <point x="248" y="-185" type="curve" smooth="yes"/>
      <point x="349" y="-185"/>
      <point x="403" y="-108"/>
      <point x="403" y="-21" type="curve" smooth="yes"/>
      <point x="403" y="73"/>
      <point x="349" y="138"/>
      <point x="270" y="138" type="curve"/>
      <point x="247" y="138"/>
      <point x="227" y="133"/>
      <point x="215" y="127" type="curve"/>
      <point x="215" y="419" type="line"/>
      <point x="342" y="419" type="line"/>
      <point x="342" y="532" type="line"/>
      <point x="215" y="532" type="line"/>
      <point x="215" y="681" type="line"/>
      <point x="77" y="659" type="line"/>
      <point x="77" y="7" type="line"/>
      <point x="77.0" y="2"/>
      <point x="77.0" y="-6"/>
      <point x="77" y="-11" type="curve"/>
      <point x="-7" y="-130" type="line"/>
      <point x="66" y="-189" type="line"/>
      <point x="116" y="-118" type="line"/>
      <point x="148" y="-164"/>
      <point x="199" y="-185"/>
    </contour>
    <contour>
      <point x="270" y="-92" type="curve" smooth="yes"/>
      <point x="240" y="-92"/>
      <point x="229" y="-64"/>
      <point x="229" y="-15" type="curve" smooth="yes"/>
      <point x="229" y="26" type="line"/>
      <point x="237" y="37"/>
      <point x="249" y="43"/>
      <point x="263" y="43" type="curve"/>
      <point x="294" y="43"/>
      <point x="307" y="17"/>
      <point x="307" y="-28" type="curve" smooth="yes"/>
      <point x="307" y="-72"/>
      <point x="294" y="-92"/>
    </contour>
  </outline>
</glyph>
<glyph name="dotlessj" format="2">
  <advance width="276"/>
  <unicode hex="0237"/>
  <anchor x="136" y="-185" name="bottom"/>
  <anchor x="136" y="527" name="top"/>
  <outline>
    <contour>
      <point x="41" y="-188" type="curve" smooth="yes"/>
      <point x="155" y="-188"/>
      <point x="207" y="-124"/>
      <point x="207" y="-18" type="curve" smooth="yes"/>
      <point x="207" y="532" type="line"/>
      <point x="69" y="532" type="line"/>
      <point x="69" y="-18" type="line" smooth="yes"/>
      <point x="69" y="-54"/>
      <point x="58" y="-68"/>
      <point x="28" y="-68" type="curve"/>
      <point x="15" y="-68"/>
      <point x="4" y="-66"/>
      <point x="-9" y="-62" type="curve"/>
      <point x="-28" y="-175" type="line"/>
      <point x="-6" y="-183"/>
      <point x="18" y="-188"/>
    </contour>
  </outline>
</glyph>
<glyph name="uni0238" format="2">
  <advance width="705.075"/>
  <unicode hex="0238"/>
  <outline>
    <contour>
      <point x="262" y="-21" type="curve" smooth="yes"/>
      <point x="305" y="-21"/>
      <point x="346" y="-3"/>
      <point x="358" y="5" type="curve"/>
      <point x="376" y="-4"/>
      <point x="404" y="-21"/>
      <point x="473" y="-21" type="curve" smooth="yes"/>
      <point x="572" y="-21"/>
      <point x="664" y="73"/>
      <point x="664" y="257" type="curve" smooth="yes"/>
      <point x="664" y="431"/>
      <point x="607" y="543"/>
      <point x="469" y="543" type="curve" smooth="yes"/>
      <point x="429" y="543"/>
      <point x="426" y="534"/>
      <point x="420" y="539" type="curve"/>
      <point x="420" y="776" type="line"/>
      <point x="285" y="754" type="line"/>
      <point x="285" y="543" type="line"/>
      <point x="294" y="528"/>
      <point x="279" y="543"/>
      <point x="231" y="543" type="curve" smooth="yes"/>
      <point x="92" y="543"/>
      <point x="41" y="421"/>
      <point x="41" y="264" type="curve" smooth="yes"/>
      <point x="41" y="77"/>
      <point x="117" y="-21"/>
    </contour>
    <contour>
      <point x="244" y="100" type="curve" smooth="yes"/>
      <point x="227" y="100"/>
      <point x="182" y="136"/>
      <point x="182" y="264" type="curve" smooth="yes"/>
      <point x="182" y="356"/>
      <point x="177" y="422"/>
      <point x="249" y="422" type="curve" smooth="yes"/>
      <point x="275" y="422"/>
      <point x="297" y="406"/>
      <point x="285" y="423" type="curve"/>
      <point x="285" y="102" type="line"/>
      <point x="285" y="105"/>
      <point x="285" y="100"/>
    </contour>
    <contour>
      <point x="466" y="100" type="curve" smooth="yes"/>
      <point x="415" y="100"/>
      <point x="413" y="107"/>
      <point x="420" y="107" type="curve"/>
      <point x="420" y="418" type="line"/>
      <point x="425" y="414"/>
      <point x="434" y="422"/>
      <point x="447" y="422" type="curve" smooth="yes"/>
      <point x="522" y="422"/>
      <point x="519" y="371"/>
      <point x="519" y="257" type="curve" smooth="yes"/>
      <point x="519" y="136"/>
      <point x="480" y="100"/>
    </contour>
  </outline>
</glyph>
<glyph name="uni023A" format="2">
  <advance width="518"/>
  <unicode hex="023A"/>
  <outline>
    <contour>
      <point x="232" y="-96" type="line"/>
      <point x="285" y="146" type="line"/>
      <point x="339" y="146" type="line"/>
      <point x="348" y="92"/>
      <point x="356" y="42"/>
      <point x="362" y="0" type="curve"/>
      <point x="510" y="0" type="line"/>
      <point x="475" y="176"/>
      <point x="427" y="362"/>
      <point x="373" y="551" type="curve"/>
      <point x="421" y="774" type="line"/>
      <point x="356" y="790" type="line"/>
      <point x="333" y="684" type="line"/>
      <point x="332" y="687"/>
      <point x="331" y="690"/>
      <point x="330" y="693" type="curve"/>
      <point x="188" y="693" type="line"/>
      <point x="115" y="456"/>
      <point x="52" y="220"/>
      <point x="8" y="0" type="curve"/>
      <point x="151" y="0" type="line"/>
      <point x="157" y="44"/>
      <point x="165" y="93"/>
      <point x="175" y="146" type="curve"/>
      <point x="217" y="146" type="line"/>
      <point x="167" y="-80" type="line"/>
    </contour>
    <contour>
      <point x="197" y="261" type="line"/>
      <point x="215" y="354"/>
      <point x="237" y="451"/>
      <point x="258" y="539" type="curve"/>
      <point x="264" y="511"/>
      <point x="272" y="484"/>
      <point x="281" y="458" type="curve"/>
      <point x="238" y="261" type="line"/>
    </contour>
    <contour>
      <point x="297" y="261" type="line"/>
      <point x="315" y="345" type="line"/>
      <point x="321" y="318"/>
      <point x="328" y="288"/>
      <point x="332" y="261" type="curve"/>
    </contour>
  </outline>
</glyph>
<glyph name="uni023B" format="2">
  <advance width="494.125"/>
  <unicode hex="023B"/>
  <outline>
    <contour>
      <point x="237" y="-99" type="line"/>
      <point x="249" y="-26" type="line"/>
      <point x="265" y="-23"/>
      <point x="282" y="-23"/>
      <point x="295" y="-23" type="curve" smooth="yes"/>
      <point x="432" y="-23"/>
      <point x="494" y="22"/>
      <point x="481" y="27" type="curve"/>
      <point x="441" y="144" type="line"/>
      <point x="432" y="129"/>
      <point x="407" y="101"/>
      <point x="311" y="101" type="curve" smooth="yes"/>
      <point x="301" y="101"/>
      <point x="291" y="100"/>
      <point x="288" y="98" type="curve"/>
      <point x="387" y="571" type="line"/>
      <point x="407" y="562"/>
      <point x="421" y="551"/>
      <point x="428" y="542" type="curve"/>
      <point x="472" y="664" type="line"/>
      <point x="473" y="667"/>
      <point x="452" y="678"/>
      <point x="424" y="690" type="curve"/>
      <point x="442" y="773" type="line"/>
      <point x="354" y="797" type="line"/>
      <point x="334" y="713" type="line"/>
      <point x="323" y="716"/>
      <point x="306" y="717"/>
      <point x="289" y="717" type="curve" smooth="yes"/>
      <point x="189" y="717"/>
      <point x="48" y="655"/>
      <point x="48" y="357" type="curve" smooth="yes"/>
      <point x="48" y="175"/>
      <point x="94" y="66"/>
      <point x="165" y="15" type="curve"/>
      <point x="147" y="-74" type="line"/>
    </contour>
    <contour>
      <point x="209" y="166" type="line"/>
      <point x="199" y="210"/>
      <point x="201" y="274"/>
      <point x="201" y="360" type="curve" smooth="yes"/>
      <point x="201" y="524"/>
      <point x="199" y="593"/>
      <point x="313" y="593" type="curve" smooth="yes"/>
      <point x="310" y="593"/>
      <point x="303" y="593"/>
      <point x="298" y="593" type="curve"/>
    </contour>
  </outline>
</glyph>
<glyph name="uni023C" format="2">
  <advance width="391.525"/>
  <unicode hex="023C"/>
  <outline>
    <contour>
      <point x="234" y="-90" type="line"/>
      <point x="241" y="-29" type="line"/>
      <point x="247" y="-22"/>
      <point x="250" y="-21"/>
      <point x="248" y="-21" type="curve" smooth="yes"/>
      <point x="307" y="-21"/>
      <point x="345" y="-6"/>
      <point x="361" y="3" type="curve"/>
      <point x="332" y="110" type="line"/>
      <point x="331" y="111"/>
      <point x="330" y="100"/>
      <point x="274" y="100" type="curve" smooth="yes"/>
      <point x="273" y="100"/>
      <point x="271" y="98"/>
      <point x="269" y="94" type="curve"/>
      <point x="311" y="418" type="line"/>
      <point x="321" y="412"/>
      <point x="329" y="404"/>
      <point x="342" y="398" type="curve"/>
      <point x="376" y="510" type="line"/>
      <point x="369" y="513"/>
      <point x="354" y="522"/>
      <point x="338" y="529" type="curve"/>
      <point x="347" y="603" type="line"/>
      <point x="265" y="621" type="line"/>
      <point x="253" y="545" type="line"/>
      <point x="241" y="545"/>
      <point x="226" y="546"/>
      <point x="241" y="546" type="curve" smooth="yes"/>
      <point x="105" y="542"/>
      <point x="40" y="424"/>
      <point x="40" y="266" type="curve" smooth="yes"/>
      <point x="40" y="149"/>
      <point x="70" y="38"/>
      <point x="160" y="-4" type="curve"/>
      <point x="151" y="-72" type="line"/>
    </contour>
    <contour>
      <point x="191" y="148" type="line"/>
      <point x="181" y="181"/>
      <point x="185" y="232"/>
      <point x="185" y="266" type="curve" smooth="yes"/>
      <point x="185" y="376"/>
      <point x="205" y="403"/>
      <point x="226" y="426" type="curve"/>
    </contour>
  </outline>
</glyph>
<glyph name="uni023F" format="2">
  <advance width="376"/>
  <unicode hex="023F"/>
  <outline>
    <contour>
      <point x="276" y="-185" type="curve"/>
      <point x="290" y="-185"/>
      <point x="318" y="-182"/>
      <point x="349" y="-174" type="curve"/>
      <point x="338" y="-68" type="line"/>
      <point x="322" y="-73"/>
      <point x="304" y="-75"/>
      <point x="288" y="-74" type="curve" smooth="yes"/>
      <point x="266" y="-73"/>
      <point x="252" y="-66"/>
      <point x="231" y="-41" type="curve"/>
      <point x="222" y="-30"/>
      <point x="213" y="-21"/>
      <point x="205" y="-11" type="curve"/>
      <point x="205" y="-11"/>
      <point x="205" y="-11"/>
      <point x="205" y="-11" type="curve"/>
      <point x="292" y="3"/>
      <point x="348" y="65"/>
      <point x="348" y="154" type="curve" smooth="yes"/>
      <point x="348" y="219"/>
      <point x="313" y="267"/>
      <point x="254" y="307" type="curve" smooth="yes"/>
      <point x="195" y="347"/>
      <point x="175" y="361"/>
      <point x="175" y="393" type="curve"/>
      <point x="175" y="420"/>
      <point x="194" y="434"/>
      <point x="230" y="434" type="curve" smooth="yes"/>
      <point x="254" y="434"/>
      <point x="278" y="430"/>
      <point x="308" y="418" type="curve"/>
      <point x="330" y="524" type="line"/>
      <point x="312" y="533"/>
      <point x="269" y="546"/>
      <point x="218" y="546" type="curve" smooth="yes"/>
      <point x="111" y="546"/>
      <point x="41" y="475"/>
      <point x="41" y="379" type="curve" smooth="yes"/>
      <point x="41" y="310"/>
      <point x="67" y="270"/>
      <point x="129" y="231" type="curve" smooth="yes"/>
      <point x="191" y="192"/>
      <point x="210" y="175"/>
      <point x="210" y="142" type="curve"/>
      <point x="210" y="116"/>
      <point x="194" y="98"/>
      <point x="153" y="98" type="curve"/>
      <point x="128" y="98"/>
      <point x="95" y="108"/>
      <point x="70" y="127" type="curve"/>
      <point x="34" y="23" type="line"/>
      <point x="48" y="16"/>
      <point x="61" y="5"/>
      <point x="75" y="-10" type="curve" smooth="yes"/>
      <point x="97" y="-36"/>
      <point x="119" y="-67"/>
      <point x="131" y="-89" type="curve"/>
      <point x="159" y="-132"/>
      <point x="204" y="-185"/>
    </contour>
  </outline>
</glyph>
<glyph name="uni0241" format="2">
  <advance width="392.05"/>
  <unicode hex="0241"/>
  <outline>
    <contour>
      <point x="80" y="0" type="line"/>
      <point x="222" y="0" type="line"/>
      <point x="222" y="184" type="line" smooth="yes"/>
      <point x="222" y="276"/>
      <point x="261" y="314"/>
      <point x="286" y="343" type="curve" smooth="yes"/>
      <point x="281" y="357"/>
      <point x="374" y="390"/>
      <point x="374" y="522" type="curve" smooth="yes"/>
      <point x="374" y="666"/>
      <point x="273" y="717"/>
      <point x="142" y="717" type="curve" smooth="yes"/>
      <point x="59" y="717"/>
      <point x="-18" y="679"/>
      <point x="0" y="677" type="curve"/>
      <point x="41" y="566" type="line"/>
      <point x="33" y="563"/>
      <point x="68" y="596"/>
      <point x="134" y="596" type="curve" smooth="yes"/>
      <point x="178" y="596"/>
      <point x="227" y="578"/>
      <point x="227" y="520" type="curve" smooth="yes"/>
      <point x="227" y="463"/>
      <point x="175" y="426"/>
      <point x="202" y="438" type="curve" smooth="yes"/>
      <point x="195" y="422"/>
      <point x="80" y="368"/>
      <point x="80" y="189" type="curve"/>
    </contour>
  </outline>
</glyph>
<glyph name="uni0242" format="2">
  <advance width="342.775"/>
  <unicode hex="0242"/>
  <outline>
    <contour>
      <point x="60" y="0" type="line"/>
      <point x="200" y="0" type="line"/>
      <point x="200" y="142" type="line" smooth="yes"/>
      <point x="200" y="194"/>
      <point x="251" y="236"/>
      <point x="264" y="259" type="curve" smooth="yes"/>
      <point x="242" y="261"/>
      <point x="319" y="298"/>
      <point x="319" y="378" type="curve" smooth="yes"/>
      <point x="319" y="486"/>
      <point x="245" y="545"/>
      <point x="106" y="545" type="curve" smooth="yes"/>
      <point x="52" y="545"/>
      <point x="-19" y="510"/>
      <point x="-5" y="520" type="curve"/>
      <point x="27" y="404" type="line"/>
      <point x="16" y="399"/>
      <point x="69" y="425"/>
      <point x="107" y="425" type="curve" smooth="yes"/>
      <point x="133" y="425"/>
      <point x="181" y="428"/>
      <point x="181" y="376" type="curve" smooth="yes"/>
      <point x="181" y="352"/>
      <point x="141" y="325"/>
      <point x="156" y="321" type="curve" smooth="yes"/>
      <point x="157" y="308"/>
      <point x="61" y="271"/>
      <point x="60" y="155" type="curve" smooth="yes"/>
    </contour>
  </outline>
</glyph>
<glyph name="uni0249" format="2">
  <advance width="285.55"/>
  <unicode hex="0249"/>
  <anchor x="143" y="0" name="bottom"/>
  <anchor x="143" y="527" name="top"/>
  <outline>
    <contour>
      <point x="64" y="-186" type="curve" smooth="yes"/>
      <point x="146" y="-186"/>
      <point x="233" y="-177"/>
      <point x="233" y="-16" type="curve" smooth="yes"/>
      <point x="233" y="225" type="line"/>
      <point x="279" y="225" type="line"/>
      <point x="279" y="330" type="line"/>
      <point x="233" y="330" type="line"/>
      <point x="233" y="532" type="line"/>
      <point x="95" y="532" type="line"/>
      <point x="95" y="330" type="line"/>
      <point x="8" y="330" type="line"/>
      <point x="8" y="225" type="line"/>
      <point x="95" y="225" type="line"/>
      <point x="95" y="-16" type="line" smooth="yes"/>
      <point x="95" y="-89"/>
      <point x="61" y="-66"/>
      <point x="53" y="-66" type="curve" smooth="yes"/>
      <point x="32" y="-66"/>
      <point x="25" y="-64"/>
      <point x="13" y="-61" type="curve"/>
      <point x="-6" y="-173" type="line"/>
      <point x="16" y="-181"/>
      <point x="39" y="-186"/>
    </contour>
    <contour>
      <point x="163" y="596" type="curve" smooth="yes"/>
      <point x="207" y="596"/>
      <point x="246" y="629"/>
      <point x="246" y="680" type="curve" smooth="yes"/>
      <point x="246" y="731"/>
      <point x="207" y="764"/>
      <point x="163" y="764" type="curve" smooth="yes"/>
      <point x="118" y="764"/>
      <point x="80" y="731"/>
      <point x="80" y="680" type="curve" smooth="yes"/>
      <point x="80" y="629"/>
      <point x="118" y="596"/>
    </contour>
  </outline>
</glyph>
<glyph name="apostrophe" format="2">
  <advance width="242"/>
  <unicode hex="02BC"/>
  <outline>
    <contour>
      <point x="126" y="555" type="line"/>
      <point x="166" y="608"/>
      <point x="194" y="672"/>
      <point x="194" y="745" type="curve" smooth="yes"/>
      <point x="194" y="758"/>
      <point x="194" y="766"/>
      <point x="193" y="781" type="curve"/>
      <point x="72" y="781" type="line"/>
      <point x="74" y="767"/>
      <point x="75" y="754"/>
      <point x="75" y="738" type="curve" smooth="yes"/>
      <point x="75" y="684"/>
      <point x="67" y="634"/>
      <point x="37" y="581" type="curve"/>
    </contour>
  </outline>
</glyph>
<glyph name="circumflex" format="2">
  <advance width="328"/>
  <unicode hex="02C6"/>
  <outline>
    <contour>
      <point x="100" y="581" type="line"/>
      <point x="163" y="651" type="line"/>
      <point x="228" y="581" type="line"/>
      <point x="293" y="638" type="line"/>
      <point x="164" y="790" type="line"/>
      <point x="35" y="638" type="line"/>
    </contour>
  </outline>
</glyph>
<glyph name="caron" format="2">
  <advance width="321"/>
  <unicode hex="02C7"/>
  <outline>
    <contour>
      <point x="164" y="583" type="line"/>
      <point x="293" y="735" type="line"/>
      <point x="228" y="792" type="line"/>
      <point x="163" y="722" type="line"/>
      <point x="100" y="792" type="line"/>
      <point x="35" y="735" type="line"/>
    </contour>
  </outline>
</glyph>
<glyph name="breve" format="2">
  <advance width="327.4"/>
  <unicode hex="02D8"/>
  <outline>
    <contour>
      <point x="164" y="593" type="curve" smooth="yes"/>
      <point x="220" y="593"/>
      <point x="304" y="638"/>
      <point x="299" y="761" type="curve"/>
      <point x="212" y="761" type="line"/>
      <point x="214" y="779"/>
      <point x="232" y="696"/>
      <point x="164" y="696" type="curve" smooth="yes"/>
      <point x="95" y="696"/>
      <point x="114" y="779"/>
      <point x="115" y="761" type="curve"/>
      <point x="29" y="761" type="line"/>
      <point x="24" y="638"/>
      <point x="106" y="593"/>
    </contour>
  </outline>
</glyph>
<glyph name="ogonek" format="2">
  <advance width="281"/>
  <unicode hex="02DB"/>
  <outline>
    <contour>
      <point x="175" y="-208" type="curve" smooth="yes"/>
      <point x="204" y="-208"/>
      <point x="237" y="-204"/>
      <point x="264" y="-193" type="curve"/>
      <point x="255" y="-100" type="line"/>
      <point x="236" y="-107"/>
      <point x="223" y="-108"/>
      <point x="211" y="-108" type="curve" smooth="yes"/>
      <point x="187" y="-108"/>
      <point x="175" y="-97"/>
      <point x="175" y="-75" type="curve"/>
      <point x="175" y="-53"/>
      <point x="192" y="-28"/>
      <point x="260" y="12" type="curve"/>
      <point x="144" y="12" type="line"/>
      <point x="92" y="-26"/>
      <point x="59" y="-64"/>
      <point x="59" y="-113" type="curve" smooth="yes"/>
      <point x="59" y="-172"/>
      <point x="105" y="-208"/>
    </contour>
  </outline>
</glyph>
<glyph name="breve_inverted" format="2">
  <advance width="290.55"/>
  <unicode hex="0311"/>
  <outline>
    <contour>
      <point x="10" y="598" type="curve"/>
      <point x="97" y="598" type="line"/>
      <point x="95" y="580"/>
      <point x="76" y="662"/>
      <point x="145" y="662" type="curve" smooth="yes"/>
      <point x="214" y="662"/>
      <point x="195" y="580"/>
      <point x="194" y="598" type="curve"/>
      <point x="280" y="598" type="line"/>
      <point x="285" y="721"/>
      <point x="202" y="766"/>
      <point x="145" y="766" type="curve" smooth="yes"/>
      <point x="88" y="766"/>
      <point x="5" y="721"/>
    </contour>
  </outline>
</glyph>
